<svg xmlns="http://www.w3.org/2000/svg" xmlns:xlink="http://www.w3.org/1999/xlink" width="614.4" height="460.8" viewBox="0 0 460.8 345.6"><path d="M0 345.6h460.8V0H0z" fill="#fff"/><path d="M57.6 307.584h357.12V41.472H57.6z" fill="#fff"/><clipPath id="a"><path transform="matrix(1 0 0 -1 0 345.6)" d="M57.6 38.016h357.12v266.112H57.6z"/></clipPath><g clip-path="url(#a)"><path d="M73.833 307.584H87.36V109.708H73.833z" fill="#df7a5e"/></g><clipPath id="b"><path transform="matrix(1 0 0 -1 0 345.6)" d="M57.6 38.016h357.12v266.112H57.6z"/></clipPath><g clip-path="url(#b)"><path d="M141.47 307.584h13.526V113.851H141.47z" fill="#df7a5e"/></g><clipPath id="c"><path transform="matrix(1 0 0 -1 0 345.6)" d="M57.6 38.016h357.12v266.112H57.6z"/></clipPath><g clip-path="url(#c)"><path d="M209.105 307.584h13.528V148.149h-13.528z" fill="#df7a5e"/></g><clipPath id="d"><path transform="matrix(1 0 0 -1 0 345.6)" d="M57.6 38.016h357.12v266.112H57.6z"/></clipPath><g clip-path="url(#d)"><path d="M276.742 307.584h13.527V185.492h-13.527z" fill="#df7a5e"/></g><clipPath id="e"><path transform="matrix(1 0 0 -1 0 345.6)" d="M57.6 38.016h357.12v266.112H57.6z"/></clipPath><g clip-path="url(#e)"><path d="M344.378 307.584h13.527v-115.35h-13.527z" fill="#df7a5e"/></g><clipPath id="f"><path transform="matrix(1 0 0 -1 0 345.6)" d="M57.6 38.016h357.12v266.112H57.6z"/></clipPath><g clip-path="url(#f)"><path d="M87.36 307.584h13.527v-145.55H87.36z" fill="#3c405b"/></g><clipPath id="g"><path transform="matrix(1 0 0 -1 0 345.6)" d="M57.6 38.016h357.12v266.112H57.6z"/></clipPath><g clip-path="url(#g)"><path d="M154.996 307.584h13.528v-142.71h-13.528z" fill="#3c405b"/></g><clipPath id="h"><path transform="matrix(1 0 0 -1 0 345.6)" d="M57.6 38.016h357.12v266.112H57.6z"/></clipPath><g clip-path="url(#h)"><path d="M222.633 307.584h13.527V176.977h-13.527z" fill="#3c405b"/></g><clipPath id="i"><path transform="matrix(1 0 0 -1 0 345.6)" d="M57.6 38.016h357.12v266.112H57.6z"/></clipPath><g clip-path="url(#i)"><path d="M290.27 307.584h13.526v-144.83H290.27z" fill="#3c405b"/></g><clipPath id="j"><path transform="matrix(1 0 0 -1 0 345.6)" d="M57.6 38.016h357.12v266.112H57.6z"/></clipPath><g clip-path="url(#j)"><path d="M357.905 307.584h13.528V163.932h-13.528z" fill="#3c405b"/></g><clipPath id="k"><path transform="matrix(1 0 0 -1 0 345.6)" d="M57.6 38.016h357.12v266.112H57.6z"/></clipPath><g clip-path="url(#k)"><path d="M100.887 307.584h13.528V54.144h-13.528z" fill="#82b29a"/></g><clipPath id="l"><path transform="matrix(1 0 0 -1 0 345.6)" d="M57.6 38.016h357.12v266.112H57.6z"/></clipPath><g clip-path="url(#l)"><path d="M168.524 307.584h13.527V65.559h-13.527z" fill="#82b29a"/></g><clipPath id="m"><path transform="matrix(1 0 0 -1 0 345.6)" d="M57.6 38.016h357.12v266.112H57.6z"/></clipPath><g clip-path="url(#m)"><path d="M236.16 307.584h13.527V86.035H236.16z" fill="#82b29a"/></g><clipPath id="n"><path transform="matrix(1 0 0 -1 0 345.6)" d="M57.6 38.016h357.12v266.112H57.6z"/></clipPath><g clip-path="url(#n)"><path d="M303.796 307.584h13.528V127.013h-13.528z" fill="#82b29a"/></g><clipPath id="o"><path transform="matrix(1 0 0 -1 0 345.6)" d="M57.6 38.016h357.12v266.112H57.6z"/></clipPath><g clip-path="url(#o)"><path d="M371.433 307.584h13.527V141.117h-13.527z" fill="#82b29a"/></g><clipPath id="p"><path transform="matrix(1 0 0 -1 0 345.6)" d="M57.6 38.016h357.12v266.112H57.6z"/></clipPath><g clip-path="url(#p)"><path d="M114.415 307.584h13.527V170.698h-13.527z" fill="#f2cc8e"/></g><clipPath id="q"><path transform="matrix(1 0 0 -1 0 345.6)" d="M57.6 38.016h357.12v266.112H57.6z"/></clipPath><g clip-path="url(#q)"><path d="M182.05 307.584h13.528V179.568h-13.527z" fill="#f2cc8e"/></g><clipPath id="r"><path transform="matrix(1 0 0 -1 0 345.6)" d="M57.6 38.016h357.12v266.112H57.6z"/></clipPath><g clip-path="url(#r)"><path d="M249.687 307.584h13.528V195.578h-13.528z" fill="#f2cc8e"/></g><clipPath id="s"><path transform="matrix(1 0 0 -1 0 345.6)" d="M57.6 38.016h357.12v266.112H57.6z"/></clipPath><g clip-path="url(#s)"><path d="M317.324 307.584h13.527V183.177h-13.527z" fill="#f2cc8e"/></g><clipPath id="t"><path transform="matrix(1 0 0 -1 0 345.6)" d="M57.6 38.016h357.12v266.112H57.6z"/></clipPath><g clip-path="url(#t)"><path d="M384.96 307.584h13.527V190.921H384.96z" fill="#f2cc8e"/></g><path stroke-width=".8" stroke-linejoin="round" fill="none" stroke="#000" d="M87.36 307.584v3.5"/><symbol id="u"><path transform="translate(-.021) scale(.001)" d="M555 669H336V0h-98v669H21v87h534v-87z"/></symbol><symbol id="v"><path transform="translate(-.098) scale(.001)" d="M676 0h-98v341H195V0H98v756h97V428h383v328h98V0z"/></symbol><symbol id="w"><path transform="translate(-.011) scale(.001)" d="M692 0H584l-77 207H192L119 0H11l288 756h105L692 0zM477 292 362 607c-4 10-7 27-11 53h-3c-4-24-8-41-12-53L223 292h254z"/></symbol><use xlink:href="#u" transform="matrix(10 0 0 -10 77.32 322.584)"/><use xlink:href="#v" transform="matrix(10 0 0 -10 83.82 322.584)"/><use xlink:href="#w" transform="matrix(10 0 0 -10 90.68 322.584)"/><path stroke-width=".8" stroke-linejoin="round" fill="none" stroke="#000" d="M154.996 307.584v3.5"/><symbol id="x"><path transform="translate(-.098) scale(.001)" d="M715 0H600L219 588c-11 16-20 33-26 50h-3c2-18 4-53 4-106V0H98v756h122l370-578c18-28 28-45 32-52h2c-4 21-5 58-5 110v520h96V0z"/></symbol><symbol id="y"><path transform="matrix(.001 0 0 .001 -.049 .012)" d="M49 264c0 89 25 159 75 211s117 78 203 78c80 0 144-25 190-75s69-118 69-206c0-85-25-154-74-206S397-12 315-12c-81 0-146 25-194 76-48 50-72 117-72 200zm98 3c0-62 15-111 47-147 31-36 73-54 127-54s96 17 125 52c28 35 43 85 43 151s-15 116-43 152c-29 35-71 53-125 53s-97-19-128-56-46-87-46-151z"/></symbol><symbol id="z"><path transform="translate(-.085) scale(.001)" d="M542 0h-95v307c0 111-41 167-122 167-42 0-77-16-104-47-27-32-40-71-40-119V0H85v540h96v-89h2c40 68 99 102 177 102 59 0 104-19 135-57s47-94 47-166V0z"/></symbol><symbol id="A"><path transform="matrix(.001 0 0 .001 -.076 -.263)" d="M364 263H76v73h288v-73z"/></symbol><symbol id="B"><path transform="translate(-.098) scale(.001)" d="M782 0v501c0 41 2 91 7 149h-2c-9-37-17-62-23-76L515 0h-55L211 569c-6 13-13 40-22 81h-3c3-36 5-87 5-153V0H98v756h132l223-518c17-40 28-71 34-93h3c17 46 29 78 36 95l227 516h126V0h-97z"/></symbol><symbol id="C"><path transform="translate(-.098) scale(.001)" d="M497 0H98v756h97V86h302V0z"/></symbol><use xlink:href="#x" transform="matrix(10 0 0 -10 136.039 322.584)"/><use xlink:href="#y" transform="matrix(10 0 0 -10 143.679 322.704)"/><use xlink:href="#z" transform="matrix(10 0 0 -10 150.399 322.584)"/><use xlink:href="#A" transform="matrix(10 0 0 -10 156.469 319.954)"/><use xlink:href="#B" transform="matrix(10 0 0 -10 161.019 322.584)"/><use xlink:href="#C" transform="matrix(10 0 0 -10 170.789 322.584)"/><path stroke-width=".8" stroke-linejoin="round" fill="none" stroke="#000" d="M222.633 307.584v3.5"/><symbol id="D"><path transform="matrix(.001 0 0 .001 -.063 .012)" d="M63 142c22-20 53-37 92-50 38-13 75-19 111-19 106 0 159 37 159 113 0 21-6 40-17 57-12 17-27 32-47 45s-58 33-112 60c-76 38-126 73-150 105s-36 69-36 111c0 63 25 113 75 150 50 36 114 55 192 55 74 0 129-9 165-27V635c-46 32-103 48-173 48-46 0-84-10-113-29-29-20-43-47-43-81 0-31 10-56 30-75 20-20 63-46 131-79 74-36 125-71 155-106 30-36 45-76 45-120 0-66-24-117-72-152-48-36-115-53-201-53-30 0-65 4-105 12S81 18 63 31v111z"/></symbol><symbol id="E"><path transform="translate(-.098) scale(.001)" d="M504 0H98v756h389v-87H195V427h271v-86H195V86h309V0z"/></symbol><use xlink:href="#D" transform="matrix(10 0 0 -10 207.677 322.704)"/><use xlink:href="#C" transform="matrix(10 0 0 -10 213.797 322.584)"/><use xlink:href="#E" transform="matrix(10 0 0 -10 218.927 322.584)"/><use xlink:href="#v" transform="matrix(10 0 0 -10 224.427 322.584)"/><use xlink:href="#w" transform="matrix(10 0 0 -10 231.287 322.584)"/><path stroke-width=".8" stroke-linejoin="round" fill="none" stroke="#000" d="M290.27 307.584v3.5"/><symbol id="F"><path transform="matrix(.001 0 0 .001 -.049 .101)" d="M49 369c0 122 33 219 99 291s155 109 269 109c104 0 189-36 253-106 64-71 97-163 97-276 0-123-33-220-99-292-16-17-32-32-50-45l212-151H669L526 4c-38-10-78-16-122-16-108 0-194 35-258 105-65 70-97 162-97 276zm102 8c0-92 23-165 70-220 47-56 108-83 183-83 80 0 144 26 190 79s70 127 70 222c0 98-23 173-68 226-46 53-107 80-185 80s-140-28-188-84-72-130-72-220z"/></symbol><use xlink:href="#F" transform="matrix(10 0 0 -10 279.298 323.594)"/><use xlink:href="#v" transform="matrix(10 0 0 -10 287.938 322.584)"/><use xlink:href="#w" transform="matrix(10 0 0 -10 294.798 322.584)"/><path stroke-width=".8" stroke-linejoin="round" fill="none" stroke="#000" d="M357.905 307.584v3.5"/><symbol id="G"><path transform="translate(-.098) scale(.001)" d="M195 283V0H98v756h215c81 0 144-20 189-59 45-40 68-96 68-169 0-74-27-134-79-180-53-46-119-68-198-65h-98zm0 387V369h91c59 0 104 13 135 40 31 26 47 65 47 115 0 97-58 146-173 146H195z"/></symbol><symbol id="H"><path transform="translate(-.085) scale(.001)" d="M375 445c-16 11-38 17-66 17-38 0-68-18-92-52-24-35-36-81-36-137V0H85v540h96V430h2c27 79 74 119 142 119 21 0 38-3 50-7v-97z"/></symbol><symbol id="I"><path transform="matrix(.001 0 0 .001 -.085 .248)" d="M181 76v-324H85v788h96v-93h2c42 70 104 106 186 106 68 0 122-25 162-73 39-48 59-113 59-194 0-90-23-163-67-217S419-12 344-12c-70 0-123 29-161 88h-2zm0 147c0-44 14-82 42-112s64-45 107-45c50 0 90 19 119 59 28 39 43 93 43 162 0 58-14 104-40 137-27 33-64 50-110 50-48 0-86-17-116-51s-45-77-45-129v-71z"/></symbol><symbol id="J"><path transform="matrix(.001 0 0 .001 -.055 .012)" d="M55 117c48-36 100-53 156-53 74 0 112 24 112 74 0 20-9 37-25 51-16 13-49 29-99 48-60 24-99 47-117 71s-26 53-26 87c0 47 20 85 60 114s90 44 150 44c46 0 88-8 128-24v-92c-41 26-87 39-137 39-31 0-56-7-75-20-20-14-29-31-29-53s7-39 21-51 44-28 92-46c60-23 100-46 122-70 21-24 32-54 32-89 0-50-21-89-61-117-41-28-93-42-157-42C146-12 97-1 55 19v98z"/></symbol><symbol id="K"><path transform="matrix(.001 0 0 .001 -.049 .012)" d="M525 246H147c2-58 18-103 48-134 30-32 71-47 125-47 60 0 116 19 167 58V38C439 4 376-12 298-12S159 12 115 62c-44 49-66 118-66 206 0 82 24 150 72 204s107 81 179 81c70 0 125-23 165-68 40-46 60-109 60-191v-48zm-95 76c-1 49-13 87-35 114-23 26-55 40-96 40-38 0-71-15-99-43s-46-65-53-111h283z"/></symbol><symbol id="L"><path transform="matrix(.001 0 0 .001 -.049 .012)" d="M554 0h-96v90h-1C417 22 355-12 273-12c-69 0-124 24-164 72S49 174 49 257c0 89 22 161 68 215s105 81 179 81 127-29 161-86h1v332h96V0zm-95 321c0 43-15 79-43 109-28 29-63 44-105 44-51 0-91-19-120-57-30-38-44-90-44-155 0-61 14-109 42-144s65-52 113-52c46 0 83 17 113 51 29 34 44 77 44 129v75z"/></symbol><use xlink:href="#G" transform="matrix(10 0 0 -10 336.08 322.584)"/><use xlink:href="#H" transform="matrix(10 0 0 -10 342.07 322.584)"/><use xlink:href="#y" transform="matrix(10 0 0 -10 345.39 322.704)"/><use xlink:href="#I" transform="matrix(10 0 0 -10 352.11 325.064)"/><use xlink:href="#y" transform="matrix(10 0 0 -10 358.14 322.704)"/><use xlink:href="#J" transform="matrix(10 0 0 -10 364.56 322.704)"/><use xlink:href="#K" transform="matrix(10 0 0 -10 369.13 322.704)"/><use xlink:href="#L" transform="matrix(10 0 0 -10 374.8 322.704)"/><path stroke-width=".8" stroke-linejoin="round" fill="none" stroke="#000" d="M57.6 307.584h-3.5"/><symbol id="M"><path transform="matrix(.001 0 0 .001 -.044 .012)" d="M44 363c0 133 22 234 66 303 44 68 109 103 193 103 160 0 240-130 240-388 0-128-23-225-68-292C430 21 367-12 286-12c-77 0-137 32-179 96S44 241 44 363zm98 5c0-202 51-302 153-302 100 0 150 102 150 307 0 210-49 316-147 316-104 0-156-107-156-321z"/></symbol><symbol id="N"><path transform="matrix(.001 0 0 .001 -.058 .011)" d="M58 50c0 18 6 33 18 45s27 18 45 18 33-7 45-19 19-27 19-44-7-31-19-43-27-18-45-18S88-5 76 7 58 33 58 50z"/></symbol><use xlink:href="#M" transform="matrix(10 0 0 -10 36.915 311.704)"/><use xlink:href="#N" transform="matrix(10 0 0 -10 42.915 311.694)"/><use xlink:href="#M" transform="matrix(10 0 0 -10 45.185 311.704)"/><path stroke-width=".8" stroke-linejoin="round" fill="none" stroke="#000" d="M57.6 244.776h-3.5"/><symbol id="O"><path transform="translate(-.104) scale(.001)" d="M278 0v647c-15-15-40-32-76-50-36-19-68-32-98-39v93c40 11 82 29 128 53 45 24 80 47 105 69h36V0h-95z"/></symbol><use xlink:href="#M" transform="matrix(10 0 0 -10 36.915 248.896)"/><use xlink:href="#N" transform="matrix(10 0 0 -10 42.915 248.886)"/><use xlink:href="#O" transform="matrix(10 0 0 -10 45.785 248.776)"/><path stroke-width=".8" stroke-linejoin="round" fill="none" stroke="#000" d="M57.6 181.969h-3.5"/><symbol id="P"><path transform="translate(-.058) scale(.001)" d="M417 558c0 40-13 72-39 96-26 23-61 35-105 35-32 0-63-8-95-24s-62-39-89-68v92c24 26 52 45 84 59 31 14 68 21 111 21 68 0 122-19 164-55 42-37 63-87 63-149 0-56-13-104-38-144-26-41-69-83-131-125-64-44-106-76-127-94-22-19-37-37-45-54-8-18-12-39-12-63h376V0H58v38c0 43 6 80 18 110s31 60 59 89c27 29 70 64 128 104 59 42 99 78 121 110 22 31 33 67 33 107z"/></symbol><use xlink:href="#M" transform="matrix(10 0 0 -10 36.915 186.089)"/><use xlink:href="#N" transform="matrix(10 0 0 -10 42.915 186.079)"/><use xlink:href="#P" transform="matrix(10 0 0 -10 45.325 185.969)"/><path stroke-width=".8" stroke-linejoin="round" fill="none" stroke="#000" d="M57.6 119.161h-3.5"/><symbol id="Q"><path transform="matrix(.001 0 0 .001 -.07 .012)" d="M70 126c51-40 109-60 175-60 52 0 93 12 124 38 30 26 46 60 46 104 0 95-69 143-206 143h-63v79h60c121 0 182 45 182 135 0 82-47 124-139 124-54 0-104-18-150-53v90c49 28 107 43 173 43 64 0 116-17 155-51s59-77 59-131c0-99-51-163-151-191v-1c54-6 97-26 129-58 32-33 48-74 48-123 0-68-25-123-74-164-49-42-114-62-195-62-72 0-129 13-173 39v99z"/></symbol><use xlink:href="#M" transform="matrix(10 0 0 -10 36.915 123.281)"/><use xlink:href="#N" transform="matrix(10 0 0 -10 42.915 123.271)"/><use xlink:href="#Q" transform="matrix(10 0 0 -10 45.445 123.281)"/><path stroke-width=".8" stroke-linejoin="round" fill="none" stroke="#000" d="M57.6 56.353h-3.5"/><symbol id="R"><path transform="translate(-.008) scale(.001)" d="M454 756V257h113v-79H454V0h-93v178H8v74c63 70 126 152 190 244 63 92 115 179 157 260h99zM116 257h245v360c-34-61-70-120-109-177-39-58-84-119-136-183z"/></symbol><use xlink:href="#M" transform="matrix(10 0 0 -10 36.915 60.473)"/><use xlink:href="#N" transform="matrix(10 0 0 -10 42.915 60.463)"/><use xlink:href="#R" transform="matrix(10 0 0 -10 44.825 60.353)"/><symbol id="S"><path transform="translate(-.027) scale(.001)" d="m252 648-50-259h127c50 0 90 13 121 41 30 28 46 64 46 108 0 35-11 62-31 81-21 19-51 29-89 29H252zm181-298c20-5 38-17 52-36 14-20 30-58 48-115L595 0H491l-57 187c-15 48-32 80-51 96-20 16-49 25-88 25H186L126 0H27l142 729h222c67 0 119-16 155-46s54-74 54-131c0-51-16-95-46-132-31-38-71-61-121-70z"/></symbol><use xlink:href="#S" transform="matrix(0 -10 -10 0 29.288 187.758)"/><symbol id="T"><path transform="translate(-.027) scale(.001)" d="M169 729h228c66 0 117-16 152-47 34-31 52-76 52-135 0-80-26-143-77-187-52-45-124-67-217-67H183L126 0H27l142 729zm83-81-53-274h124c56 0 99 14 129 43 30 28 45 69 45 123 0 34-11 60-31 79s-49 29-85 29H252z"/></symbol><symbol id="U"><path transform="translate(-.027) scale(.001)" d="M169 729h99l-58-299h358l58 299h99L583 0h-99l68 347H194L126 0H27l142 729z"/></symbol><symbol id="V"><path transform="matrix(.001 0 0 .001 -.04 .013)" d="M456 662c-54 0-102-14-143-40-42-26-78-66-108-119-20-34-35-71-45-109-10-39-15-78-15-116 0-68 16-121 48-157 32-37 78-55 138-55 53 0 101 13 143 40 42 26 77 66 107 118 20 35 35 72 45 111 10 38 16 77 16 115 0 67-17 119-49 156-33 37-79 56-137 56zM328-13c-90 0-160 26-211 79-52 52-77 125-77 217 0 52 10 106 30 161s47 104 83 148c41 50 87 87 138 112 50 25 106 38 168 38 89 0 159-27 211-79 51-53 77-125 77-215 0-56-10-111-30-165s-47-103-83-147c-42-51-89-89-139-113S389-13 328-13z"/></symbol><use xlink:href="#T" transform="matrix(0 -7 -7 0 30.928 180.89)"/><use xlink:href="#T" transform="matrix(0 -7 -7 0 30.928 176.67)"/><use xlink:href="#U" transform="matrix(0 -7 -7 0 30.928 172.448)"/><use xlink:href="#V" transform="matrix(0 -7 -7 0 31.02 167.094)"/><path stroke-width=".8" stroke-linecap="square" stroke-miterlimit="10" fill="none" stroke="#000" d="M57.6 307.584V41.472M414.72 307.584V41.472M57.6 307.584h357.12M57.6 41.472h357.12"/><path d="M257.136 104.61H408.42c1.2 0 1.8-.6 1.8-1.8V47.772c0-1.2-.6-1.8-1.8-1.8H257.136c-1.2 0-1.8.6-1.8 1.8v55.038c0 1.2.6 1.8 1.8 1.8z" fill="#fff" fill-opacity=".8"/><path stroke-miterlimit="10" fill="none" stroke="#d5d6d5" stroke-opacity=".8" d="M257.136 104.61H408.42c1.2 0 1.8-.6 1.8-1.8V47.772c0-1.2-.6-1.8-1.8-1.8H257.136c-1.2 0-1.8.6-1.8 1.8v55.038c0 1.2.6 1.8 1.8 1.8z"/><path d="M258.936 56.76h18v-6.3h-18z" fill="#df7a5e"/><symbol id="W"><path transform="translate(-.085) scale(.001)" d="M85 0v799h96V0H85z"/></symbol><symbol id="X"><path transform="translate(-.012) scale(.001)" d="M777 540 616 0h-99L409 379c-5 16-8 33-9 52h-2c-1-14-5-31-11-51L271 0h-97L12 540h100l108-400c3-12 5-29 7-50h4c1 18 4 35 9 51l116 399h89l113-401c3-12 6-28 8-50h4c0 14 3 31 9 50l106 401h92z"/></symbol><symbol id="Z"><path transform="translate(-.074) scale(.001)" d="M74 730c0 17 5 31 17 43 11 12 25 18 43 18 17 0 31-6 43-18s18-26 18-43-6-31-18-42c-12-12-26-17-43-17-18 0-32 5-43 17-12 11-17 25-17 42zM85 0v540h96V0H85z"/></symbol><symbol id="aa"><path transform="matrix(.001 0 0 .001 -.022 .011)" d="M345 5c-22-10-50-16-85-16-97 0-145 53-145 160v312H22v79h93v130l95 30V540h135v-79H210V166c0-36 6-61 18-76 12-16 33-23 61-23 21 0 40 6 56 18V5z"/></symbol><symbol id="ab"><path transform="matrix(.001 0 0 .001 -.006 .253)" d="M525 540 280-81C234-195 169-253 87-253c-24 0-45 3-61 7v84c18-6 36-10 54-10 43 0 75 26 97 76l41 97L6 540h106l141-406 12-44h3c2 10 5 24 11 43l148 407h98z"/></symbol><symbol id="ac"><path transform="matrix(.001 0 0 .001 -.045 .012)" d="M98 502c54 34 116 51 186 51 130 0 195-69 195-205V0h-94v83h-3c-38-64-93-95-165-95-53 0-95 14-126 42S45 96 45 145c0 100 60 159 180 176l160 22c0 88-37 133-110 133-65 0-124-22-177-66v92zm160-248c-44-6-75-18-91-34-17-16-25-39-25-68 0-26 9-47 27-63s42-24 72-24c42 0 76 14 103 44 27 29 41 66 41 110v52l-127-17z"/></symbol><use xlink:href="#W" transform="matrix(9 0 0 -9 284.9 56.76)"/><use xlink:href="#y" transform="matrix(9 0 0 -9 286.97 56.867)"/><use xlink:href="#X" transform="matrix(9 0 0 -9 292.362 56.76)"/><use xlink:href="#Y" transform="matrix(9 0 0 -9 299.364 56.76)"/><use xlink:href="#L" transform="matrix(9 0 0 -9 302.469 56.867)"/><use xlink:href="#K" transform="matrix(9 0 0 -9 308.229 56.867)"/><use xlink:href="#z" transform="matrix(9 0 0 -9 313.656 56.76)"/><use xlink:href="#J" transform="matrix(9 0 0 -9 318.93 56.867)"/><use xlink:href="#Z" transform="matrix(9 0 0 -9 323.268 56.76)"/><use xlink:href="#aa" transform="matrix(9 0 0 -9 325.194 56.858)"/><use xlink:href="#ab" transform="matrix(9 0 0 -9 328.407 59.036)"/><use xlink:href="#Y" transform="matrix(9 0 0 -9 333.114 56.76)"/><use xlink:href="#ac" transform="matrix(9 0 0 -9 336.183 56.867)"/><use xlink:href="#z" transform="matrix(9 0 0 -9 341.52 56.76)"/><use xlink:href="#L" transform="matrix(9 0 0 -9 346.74 56.867)"/><use xlink:href="#Y" transform="matrix(9 0 0 -9 352.059 56.76)"/><use xlink:href="#W" transform="matrix(9 0 0 -9 355.488 56.76)"/><use xlink:href="#y" transform="matrix(9 0 0 -9 357.558 56.867)"/><use xlink:href="#X" transform="matrix(9 0 0 -9 362.949 56.76)"/><use xlink:href="#Y" transform="matrix(9 0 0 -9 369.95 56.76)"/><use xlink:href="#J" transform="matrix(9 0 0 -9 373.11 56.867)"/><use xlink:href="#I" transform="matrix(9 0 0 -9 377.547 58.991)"/><use xlink:href="#K" transform="matrix(9 0 0 -9 382.974 56.867)"/><use xlink:href="#K" transform="matrix(9 0 0 -9 388.077 56.867)"/><use xlink:href="#L" transform="matrix(9 0 0 -9 393.18 56.867)"/><path d="M258.936 70.744h18v-6.3h-18z" fill="#3c405b"/><symbol id="ad"><path transform="translate(-.085) scale(.001)" d="M542 0h-96v311c0 108-41 163-121 163-42 0-76-16-103-48-28-32-41-72-41-120V0H85v799h96V451h2c41 68 100 102 176 102 122 0 183-74 183-220V0z"/></symbol><symbol id="ae"><path transform="matrix(.001 0 0 .001 -.049 .253)" d="M554 45c0-198-97-298-291-298-67 0-125 13-175 37v92c60-33 118-50 174-50 130 0 196 69 196 206v57h-1C415 21 354-12 273-12c-68 0-123 24-163 72-41 48-61 113-61 193 0 92 22 165 67 219s105 81 180 81c72 0 125-29 161-86h1v73h96V45zm-96 276c0 42-14 78-42 108s-63 45-104 45c-52 0-93-20-122-58s-43-91-43-157c0-58 14-104 42-140s65-53 111-53 84 17 114 51 44 77 44 129v75z"/></symbol><use xlink:href="#W" transform="matrix(9 0 0 -9 284.9 70.744)"/><use xlink:href="#y" transform="matrix(9 0 0 -9 286.97 70.852)"/><use xlink:href="#X" transform="matrix(9 0 0 -9 292.362 70.744)"/><use xlink:href="#Y" transform="matrix(9 0 0 -9 299.364 70.744)"/><use xlink:href="#L" transform="matrix(9 0 0 -9 302.469 70.852)"/><use xlink:href="#K" transform="matrix(9 0 0 -9 308.229 70.852)"/><use xlink:href="#z" transform="matrix(9 0 0 -9 313.656 70.744)"/><use xlink:href="#J" transform="matrix(9 0 0 -9 318.93 70.852)"/><use xlink:href="#Z" transform="matrix(9 0 0 -9 323.268 70.744)"/><use xlink:href="#aa" transform="matrix(9 0 0 -9 325.194 70.843)"/><use xlink:href="#ab" transform="matrix(9 0 0 -9 328.407 73.02)"/><use xlink:href="#Y" transform="matrix(9 0 0 -9 333.114 70.744)"/><use xlink:href="#ac" transform="matrix(9 0 0 -9 336.183 70.852)"/><use xlink:href="#z" transform="matrix(9 0 0 -9 341.52 70.744)"/><use xlink:href="#L" transform="matrix(9 0 0 -9 346.74 70.852)"/><use xlink:href="#Y" transform="matrix(9 0 0 -9 352.059 70.744)"/><use xlink:href="#ad" transform="matrix(9 0 0 -9 355.488 70.744)"/><use xlink:href="#Z" transform="matrix(9 0 0 -9 360.933 70.744)"/><use xlink:href="#ae" transform="matrix(9 0 0 -9 363.102 73.02)"/><use xlink:href="#ad" transform="matrix(9 0 0 -9 369.186 70.744)"/><use xlink:href="#Y" transform="matrix(9 0 0 -9 373.965 70.744)"/><use xlink:href="#J" transform="matrix(9 0 0 -9 377.124 70.852)"/><use xlink:href="#I" transform="matrix(9 0 0 -9 381.56 72.976)"/><use xlink:href="#K" transform="matrix(9 0 0 -9 386.988 70.852)"/><use xlink:href="#K" transform="matrix(9 0 0 -9 392.09 70.852)"/><use xlink:href="#L" transform="matrix(9 0 0 -9 397.194 70.852)"/><path d="M258.936 84.728h18v-6.3h-18z" fill="#82b29a"/><use xlink:href="#ad" transform="matrix(9 0 0 -9 284.9 84.728)"/><use xlink:href="#Z" transform="matrix(9 0 0 -9 290.346 84.728)"/><use xlink:href="#ae" transform="matrix(9 0 0 -9 292.515 87.005)"/><use xlink:href="#ad" transform="matrix(9 0 0 -9 298.599 84.728)"/><use xlink:href="#Y" transform="matrix(9 0 0 -9 303.378 84.728)"/><use xlink:href="#L" transform="matrix(9 0 0 -9 306.483 84.836)"/><use xlink:href="#K" transform="matrix(9 0 0 -9 312.243 84.836)"/><use xlink:href="#z" transform="matrix(9 0 0 -9 317.67 84.728)"/><use xlink:href="#J" transform="matrix(9 0 0 -9 322.944 84.836)"/><use xlink:href="#Z" transform="matrix(9 0 0 -9 327.282 84.728)"/><use xlink:href="#aa" transform="matrix(9 0 0 -9 329.208 84.827)"/><use xlink:href="#ab" transform="matrix(9 0 0 -9 332.42 87.005)"/><use xlink:href="#Y" transform="matrix(9 0 0 -9 337.128 84.728)"/><use xlink:href="#ac" transform="matrix(9 0 0 -9 340.197 84.836)"/><use xlink:href="#z" transform="matrix(9 0 0 -9 345.534 84.728)"/><use xlink:href="#L" transform="matrix(9 0 0 -9 350.754 84.836)"/><use xlink:href="#Y" transform="matrix(9 0 0 -9 356.073 84.728)"/><use xlink:href="#W" transform="matrix(9 0 0 -9 359.502 84.728)"/><use xlink:href="#y" transform="matrix(9 0 0 -9 361.572 84.836)"/><use xlink:href="#X" transform="matrix(9 0 0 -9 366.963 84.728)"/><use xlink:href="#Y" transform="matrix(9 0 0 -9 373.965 84.728)"/><use xlink:href="#J" transform="matrix(9 0 0 -9 377.124 84.836)"/><use xlink:href="#I" transform="matrix(9 0 0 -9 381.56 86.96)"/><use xlink:href="#K" transform="matrix(9 0 0 -9 386.988 84.836)"/><use xlink:href="#K" transform="matrix(9 0 0 -9 392.09 84.836)"/><use xlink:href="#L" transform="matrix(9 0 0 -9 397.194 84.836)"/><path d="M258.936 98.713h18v-6.3h-18z" fill="#f2cc8e"/><use xlink:href="#ad" transform="matrix(9 0 0 -9 284.9 98.713)"/><use xlink:href="#Z" transform="matrix(9 0 0 -9 290.346 98.713)"/><use xlink:href="#ae" transform="matrix(9 0 0 -9 292.515 100.99)"/><use xlink:href="#ad" transform="matrix(9 0 0 -9 298.599 98.713)"/><use xlink:href="#Y" transform="matrix(9 0 0 -9 303.378 98.713)"/><use xlink:href="#L" transform="matrix(9 0 0 -9 306.483 98.82)"/><use xlink:href="#K" transform="matrix(9 0 0 -9 312.243 98.82)"/><use xlink:href="#z" transform="matrix(9 0 0 -9 317.67 98.713)"/><use xlink:href="#J" transform="matrix(9 0 0 -9 322.944 98.82)"/><use xlink:href="#Z" transform="matrix(9 0 0 -9 327.282 98.713)"/><use xlink:href="#aa" transform="matrix(9 0 0 -9 329.208 98.812)"/><use xlink:href="#ab" transform="matrix(9 0 0 -9 332.42 100.99)"/><use xlink:href="#Y" transform="matrix(9 0 0 -9 337.128 98.713)"/><use xlink:href="#ac" transform="matrix(9 0 0 -9 340.197 98.82)"/><use xlink:href="#z" transform="matrix(9 0 0 -9 345.534 98.713)"/><use xlink:href="#L" transform="matrix(9 0 0 -9 350.754 98.82)"/><use xlink:href="#Y" transform="matrix(9 0 0 -9 356.073 98.713)"/><use xlink:href="#ad" transform="matrix(9 0 0 -9 359.502 98.713)"/><use xlink:href="#Z" transform="matrix(9 0 0 -9 364.947 98.713)"/><use xlink:href="#ae" transform="matrix(9 0 0 -9 367.116 100.99)"/><use xlink:href="#ad" transform="matrix(9 0 0 -9 373.2 98.713)"/><use xlink:href="#Y" transform="matrix(9 0 0 -9 377.979 98.713)"/><use xlink:href="#J" transform="matrix(9 0 0 -9 381.138 98.82)"/><use xlink:href="#I" transform="matrix(9 0 0 -9 385.575 100.945)"/><use xlink:href="#K" transform="matrix(9 0 0 -9 391.002 98.82)"/><use xlink:href="#K" transform="matrix(9 0 0 -9 396.105 98.82)"/><use xlink:href="#L" transform="matrix(9 0 0 -9 401.208 98.82)"/></svg>