<svg xmlns="http://www.w3.org/2000/svg" xmlns:xlink="http://www.w3.org/1999/xlink" width="614.4" height="460.8" viewBox="0 0 460.8 345.6"><path d="M0 345.6h460.8V0H0z" fill="#fff"/><path d="M57.6 307.584h357.12V41.472H57.6z" fill="#fff"/><path stroke-width=".8" stroke-linejoin="round" fill="none" stroke="#000" d="M73.833 307.584v3.5"/><symbol id="a"><path transform="matrix(.001 0 0 .001 -.044 .012)" d="M44 363c0 133 22 234 66 303 44 68 109 103 193 103 160 0 240-130 240-388 0-128-23-225-68-292C430 21 367-12 286-12c-77 0-137 32-179 96S44 241 44 363zm98 5c0-202 51-302 153-302 100 0 150 102 150 307 0 210-49 316-147 316-104 0-156-107-156-321z"/></symbol><use xlink:href="#a" transform="matrix(10 0 0 -10 71.343 322.704)"/><path stroke-width=".8" stroke-linejoin="round" fill="none" stroke="#000" d="M139.42 307.584v3.5"/><symbol id="b"><path transform="translate(-.058) scale(.001)" d="M417 558c0 40-13 72-39 96-26 23-61 35-105 35-32 0-63-8-95-24s-62-39-89-68v92c24 26 52 45 84 59 31 14 68 21 111 21 68 0 122-19 164-55 42-37 63-87 63-149 0-56-13-104-38-144-26-41-69-83-131-125-64-44-106-76-127-94-22-19-37-37-45-54-8-18-12-39-12-63h376V0H58v38c0 43 6 80 18 110s31 60 59 89c27 29 70 64 128 104 59 42 99 78 121 110 22 31 33 67 33 107z"/></symbol><use xlink:href="#b" transform="matrix(10 0 0 -10 134.14 322.584)"/><use xlink:href="#a" transform="matrix(10 0 0 -10 139.86 322.704)"/><path stroke-width=".8" stroke-linejoin="round" fill="none" stroke="#000" d="M205.006 307.584v3.5"/><symbol id="c"><path transform="translate(-.008) scale(.001)" d="M454 756V257h113v-79H454V0h-93v178H8v74c63 70 126 152 190 244 63 92 115 179 157 260h99zM116 257h245v360c-34-61-70-120-109-177-39-58-84-119-136-183z"/></symbol><use xlink:href="#c" transform="matrix(10 0 0 -10 199.227 322.584)"/><use xlink:href="#a" transform="matrix(10 0 0 -10 205.447 322.704)"/><path stroke-width=".8" stroke-linejoin="round" fill="none" stroke="#000" d="M270.593 307.584v3.5"/><symbol id="d"><path transform="matrix(.001 0 0 .001 -.058 .012)" d="M497 659c-40 20-81 30-123 30-66 0-119-29-159-85-40-57-60-135-60-233h3c35 69 92 104 171 104 65 0 117-22 156-64 39-43 59-100 59-170 0-74-23-135-68-182-45-48-102-71-172-71-77 0-137 29-181 89S58 222 58 333c0 133 28 239 86 318 57 78 133 118 227 118 53 0 95-8 126-22v-88zM161 248c0-50 13-93 40-129 26-36 62-53 106-53 41 0 75 15 101 46 26 30 39 70 39 118 0 52-13 93-37 122s-59 44-104 44c-44 0-79-15-105-44-27-30-40-64-40-104z"/></symbol><use xlink:href="#d" transform="matrix(10 0 0 -10 265.314 322.704)"/><use xlink:href="#a" transform="matrix(10 0 0 -10 271.034 322.704)"/><path stroke-width=".8" stroke-linejoin="round" fill="none" stroke="#000" d="M336.18 307.584v3.5"/><symbol id="e"><path transform="matrix(.001 0 0 .001 -.048 .011)" d="M48 211c0 43 13 83 39 120s59 63 101 79c-34 18-60 42-79 71s-28 61-28 95c0 35 9 67 27 97s44 53 77 70c32 17 68 26 108 26s76-9 109-25c32-17 58-40 76-70s28-62 28-98c0-34-10-65-28-94-19-30-45-54-78-72 40-16 74-43 100-79 26-37 39-77 39-120 0-44-11-82-31-116-21-34-50-61-88-79s-80-27-127-27-89 9-127 27-67 45-87 79c-21 34-31 73-31 116zm94 4c0-45 13-81 41-108s64-40 110-40c45 0 82 13 110 41 28 27 43 63 43 107 0 42-15 77-43 105-29 28-65 43-109 43s-81-14-109-42c-29-28-43-63-43-106zm27 353c0-34 12-64 36-88s53-36 88-36c34 0 64 12 89 37 24 24 37 53 37 87s-12 62-36 86-53 36-89 36-66-12-90-35-35-52-35-87z"/></symbol><use xlink:href="#e" transform="matrix(10 0 0 -10 330.8 322.694)"/><use xlink:href="#a" transform="matrix(10 0 0 -10 336.62 322.704)"/><path stroke-width=".8" stroke-linejoin="round" fill="none" stroke="#000" d="M401.767 307.584v3.5"/><symbol id="f"><path transform="translate(-.104) scale(.001)" d="M278 0v647c-15-15-40-32-76-50-36-19-68-32-98-39v93c40 11 82 29 128 53 45 24 80 47 105 69h36V0h-95z"/></symbol><use xlink:href="#f" transform="matrix(10 0 0 -10 394.018 322.584)"/><use xlink:href="#a" transform="matrix(10 0 0 -10 399.278 322.704)"/><use xlink:href="#a" transform="matrix(10 0 0 -10 405.138 322.704)"/><symbol id="g"><path transform="translate(-.021) scale(.001)" d="M555 669H336V0h-98v669H21v87h534v-87z"/></symbol><symbol id="h"><path transform="translate(-.085) scale(.001)" d="M375 445c-16 11-38 17-66 17-38 0-68-18-92-52-24-35-36-81-36-137V0H85v540h96V430h2c27 79 74 119 142 119 21 0 38-3 50-7v-97z"/></symbol><symbol id="i"><path transform="matrix(.001 0 0 .001 -.045 .012)" d="M98 502c54 34 116 51 186 51 130 0 195-69 195-205V0h-94v83h-3c-38-64-93-95-165-95-53 0-95 14-126 42S45 96 45 145c0 100 60 159 180 176l160 22c0 88-37 133-110 133-65 0-124-22-177-66v92zm160-248c-44-6-75-18-91-34-17-16-25-39-25-68 0-26 9-47 27-63s42-24 72-24c42 0 76 14 103 44 27 29 41 66 41 110v52l-127-17z"/></symbol><symbol id="j"><path transform="translate(-.074) scale(.001)" d="M74 730c0 17 5 31 17 43 11 12 25 18 43 18 17 0 31-6 43-18s18-26 18-43-6-31-18-42c-12-12-26-17-43-17-18 0-32 5-43 17-12 11-17 25-17 42zM85 0v540h96V0H85z"/></symbol><symbol id="k"><path transform="translate(-.085) scale(.001)" d="M542 0h-95v307c0 111-41 167-122 167-42 0-77-16-104-47-27-32-40-71-40-119V0H85v540h96v-89h2c40 68 99 102 177 102 59 0 104-19 135-57s47-94 47-166V0z"/></symbol><symbol id="m"><path transform="matrix(.001 0 0 .001 -.049 .012)" d="M525 246H147c2-58 18-103 48-134 30-32 71-47 125-47 60 0 116 19 167 58V38C439 4 376-12 298-12S159 12 115 62c-44 49-66 118-66 206 0 82 24 150 72 204s107 81 179 81c70 0 125-23 165-68 40-46 60-109 60-191v-48zm-95 76c-1 49-13 87-35 114-23 26-55 40-96 40-38 0-71-15-99-43s-46-65-53-111h283z"/></symbol><symbol id="n"><path transform="matrix(.001 0 0 .001 -.085 .248)" d="M181 76v-324H85v788h96v-93h2c42 70 104 106 186 106 68 0 122-25 162-73 39-48 59-113 59-194 0-90-23-163-67-217S419-12 344-12c-70 0-123 29-161 88h-2zm0 147c0-44 14-82 42-112s64-45 107-45c50 0 90 19 119 59 28 39 43 93 43 162 0 58-14 104-40 137-27 33-64 50-110 50-48 0-86-17-116-51s-45-77-45-129v-71z"/></symbol><symbol id="o"><path transform="matrix(.001 0 0 .001 -.055 .012)" d="M55 117c48-36 100-53 156-53 74 0 112 24 112 74 0 20-9 37-25 51-16 13-49 29-99 48-60 24-99 47-117 71s-26 53-26 87c0 47 20 85 60 114s90 44 150 44c46 0 88-8 128-24v-92c-41 26-87 39-137 39-31 0-56-7-75-20-20-14-29-31-29-53s7-39 21-51 44-28 92-46c60-23 100-46 122-70 21-24 32-54 32-89 0-50-21-89-61-117-41-28-93-42-157-42C146-12 97-1 55 19v98z"/></symbol><symbol id="p"><path transform="matrix(.001 0 0 .001 -.049 .012)" d="M49 264c0 89 25 159 75 211s117 78 203 78c80 0 144-25 190-75s69-118 69-206c0-85-25-154-74-206S397-12 315-12c-81 0-146 25-194 76-48 50-72 117-72 200zm98 3c0-62 15-111 47-147 31-36 73-54 127-54s96 17 125 52c28 35 43 85 43 151s-15 116-43 152c-29 35-71 53-125 53s-97-19-128-56-46-87-46-151z"/></symbol><symbol id="q"><path transform="matrix(.001 0 0 .001 -.049 .012)" d="M554 0h-96v90h-1C417 22 355-12 273-12c-69 0-124 24-164 72S49 174 49 257c0 89 22 161 68 215s105 81 179 81 127-29 161-86h1v332h96V0zm-95 321c0 43-15 79-43 109-28 29-63 44-105 44-51 0-91-19-120-57-30-38-44-90-44-155 0-61 14-109 42-144s65-52 113-52c46 0 83 17 113 51 29 34 44 77 44 129v75z"/></symbol><use xlink:href="#g" transform="matrix(10 0 0 -10 202.19 337.068)"/><use xlink:href="#h" transform="matrix(10 0 0 -10 207.623 337.068)"/><use xlink:href="#i" transform="matrix(10 0 0 -10 211.043 337.188)"/><use xlink:href="#j" transform="matrix(10 0 0 -10 216.863 337.068)"/><use xlink:href="#k" transform="matrix(10 0 0 -10 219.633 337.068)"/><use xlink:href="#l" transform="matrix(10 0 0 -10 224.943 337.068)"/><use xlink:href="#m" transform="matrix(10 0 0 -10 228.393 337.188)"/><use xlink:href="#n" transform="matrix(10 0 0 -10 234.423 339.548)"/><use xlink:href="#j" transform="matrix(10 0 0 -10 240.703 337.068)"/><use xlink:href="#o" transform="matrix(10 0 0 -10 243.173 337.188)"/><use xlink:href="#p" transform="matrix(10 0 0 -10 247.743 337.188)"/><use xlink:href="#q" transform="matrix(10 0 0 -10 254.103 337.188)"/><use xlink:href="#m" transform="matrix(10 0 0 -10 260.503 337.188)"/><use xlink:href="#o" transform="matrix(10 0 0 -10 266.233 337.188)"/><path stroke-width=".8" stroke-linejoin="round" fill="none" stroke="#000" d="M57.6 295.667h-3.5"/><use xlink:href="#a" transform="matrix(10 0 0 -10 45.18 299.787)"/><path stroke-width=".8" stroke-linejoin="round" fill="none" stroke="#000" d="M57.6 236.761h-3.5"/><use xlink:href="#b" transform="matrix(10 0 0 -10 21.883 240.761)"/><use xlink:href="#a" transform="matrix(10 0 0 -10 27.603 240.881)"/><use xlink:href="#a" transform="matrix(10 0 0 -10 33.463 240.881)"/><use xlink:href="#a" transform="matrix(10 0 0 -10 39.323 240.881)"/><use xlink:href="#a" transform="matrix(10 0 0 -10 45.183 240.881)"/><path stroke-width=".8" stroke-linejoin="round" fill="none" stroke="#000" d="M57.6 177.856h-3.5"/><use xlink:href="#c" transform="matrix(10 0 0 -10 21.383 181.856)"/><use xlink:href="#a" transform="matrix(10 0 0 -10 27.603 181.976)"/><use xlink:href="#a" transform="matrix(10 0 0 -10 33.463 181.976)"/><use xlink:href="#a" transform="matrix(10 0 0 -10 39.323 181.976)"/><use xlink:href="#a" transform="matrix(10 0 0 -10 45.183 181.976)"/><path stroke-width=".8" stroke-linejoin="round" fill="none" stroke="#000" d="M57.6 118.95h-3.5"/><use xlink:href="#d" transform="matrix(10 0 0 -10 21.883 123.07)"/><use xlink:href="#a" transform="matrix(10 0 0 -10 27.603 123.07)"/><use xlink:href="#a" transform="matrix(10 0 0 -10 33.463 123.07)"/><use xlink:href="#a" transform="matrix(10 0 0 -10 39.323 123.07)"/><use xlink:href="#a" transform="matrix(10 0 0 -10 45.183 123.07)"/><path stroke-width=".8" stroke-linejoin="round" fill="none" stroke="#000" d="M57.6 60.045h-3.5"/><use xlink:href="#e" transform="matrix(10 0 0 -10 21.783 64.155)"/><use xlink:href="#a" transform="matrix(10 0 0 -10 27.603 64.165)"/><use xlink:href="#a" transform="matrix(10 0 0 -10 33.463 64.165)"/><use xlink:href="#a" transform="matrix(10 0 0 -10 39.323 64.165)"/><use xlink:href="#a" transform="matrix(10 0 0 -10 45.183 64.165)"/><symbol id="r"><path transform="matrix(.001 0 0 .001 -.049 .012)" d="M615 31C559 2 490-12 406-12 297-12 210 22 146 91c-65 68-97 159-97 273 0 121 36 219 109 293s166 112 278 112c72 0 131-11 179-31V636c-54 30-114 45-178 45-84 0-153-28-206-84-54-56-80-132-80-227 0-91 24-163 74-216 50-54 115-80 195-80 74 0 139 17 195 51V31z"/></symbol><symbol id="s"><path transform="matrix(.001 0 0 .001 -.022 .011)" d="M345 5c-22-10-50-16-85-16-97 0-145 53-145 160v312H22v79h93v130l95 30V540h135v-79H210V166c0-36 6-61 18-76 12-16 33-23 61-23 21 0 40 6 56 18V5z"/></symbol><use xlink:href="#r" transform="matrix(0 -10 -10 0 14.939 184.741)"/><use xlink:href="#p" transform="matrix(0 -10 -10 0 14.939 178.051)"/><use xlink:href="#o" transform="matrix(0 -10 -10 0 14.939 171.631)"/><use xlink:href="#s" transform="matrix(0 -10 -10 0 14.929 167.331)"/><clipPath id="t"><path transform="matrix(1 0 0 -1 0 345.6)" d="M57.6 38.016h357.12v266.112H57.6z"/></clipPath><g clip-path="url(#t)"><path stroke-width="1.5" stroke-linecap="square" stroke-linejoin="round" fill="none" stroke="#1f77b4" d="m73.833 138.314 3.28 56.981 3.278 14.462 3.28 43.337 3.28-21.221 3.278 33.276 3.28 1.569 3.28 6.549 3.278 16.908 3.28-7.707 3.28-1.514 3.278 10.054 3.28-19.998 3.28 2.198 3.278 4.28 3.28-4.424 3.28 4.025 3.278 2.259 3.28-5.292 3.28-4.67 3.279 3.006 3.279 6.447 3.28 12.515 3.279-5.21 3.279 3.91 3.28 2.518 3.279.574 3.279.536 3.28-2.34 3.279 1.333 3.279-8.673 3.28 9.86 3.279-10.612 3.279-2.894 3.28 1.769 3.279 9.394 3.279-.421 3.28-3.03 3.279 4.022 3.279-4.408 3.28.037 3.279-1.231 3.279 3.174 3.28-9.448 3.279 8.835 3.279-13.356 3.28 15.685 3.279-3.507 3.279 2.067 3.28 1.434 3.279-.084 3.279-1.31 3.28 1.117 3.279-1.574 3.279-2.231 3.28 4.378 3.279.61 3.279-4.452 3.28 3.797 3.279-1.021 3.28-2.918 3.278-1.962 3.28 3.795 3.28 3.174 3.278-.7 3.28 1.4 3.28-.436 3.278-.51 3.28-.913 3.28 2.553 3.278.397 3.28-.277 3.28-3.83 3.278 1.456 3.28-1.626 3.28 4.469 3.278-6.222 3.28.136 3.28-1.546 3.278 3.733 3.28 2.938 3.28-1.628 3.279 1.143 3.279-.428 3.28-.41 3.279 1.236 3.279.383 3.28-.866 3.279 1.08 3.279.232 3.28.23 3.279-4.026 3.279-.892 3.28 3.35 3.279-6.909 3.279 7.868 3.28-1.016 3.279.984 3.279.445 3.28.287"/></g><clipPath id="u"><path transform="matrix(1 0 0 -1 0 345.6)" d="M57.6 38.016h357.12v266.112H57.6z"/></clipPath><g clip-path="url(#u)"><path stroke-width="1.5" stroke-linecap="square" stroke-linejoin="round" fill="none" stroke="#ff7f0e" d="m73.833 120.83 3.28 19.165 3.278 60.214 3.28-5.73 3.28 68.715 3.278 8.475 3.28-4.205 3.28 22.704 3.278 1.893 3.28 1.148 3.28-12.735 3.278 11.884 3.28-16.46 3.28-2.051 3.278 20.056 3.28-11.454 3.28 1.704 3.278 1.303 3.28 6.877 3.28-25.19 3.279 26.489 3.279-.502 3.28-1.352 3.279-.025 3.279 1.715 3.28 1.086 3.279-36.294 3.279-1.548 3.28 8.021 3.279 29.885 3.279-.61 3.28 1.041 3.279-1.968 3.279.715 3.28-.615 3.279.588 3.279-.061 3.28.367 3.279-22.47 3.279 17.284 3.28 3.184 3.279.384 3.279 1.334 3.28-.874 3.279 1.235 3.279-.043 3.28-.446 3.279-1.585 3.279 2.51 3.28-.05 3.279.328 3.279.06 3.28.015 3.279-.29 3.279.39 3.28-4.526 3.279-20.096 3.279 24.153 3.28-17.524 3.279 13.665 3.28.399 3.278-3.15 3.28 3.059 3.28.53 3.278 2.786 3.28-.404 3.28.74 3.278-.236 3.28-.667 3.28-.072 3.278.761 3.28-.57 3.28-.853 3.278.21 3.28 1.064 3.28.453 3.278-.342 3.28-1.48 3.28-.856 3.278-.062 3.28 1.326 3.28-1.456 3.279.055 3.279-11.473 3.28 2.017 3.279.257 3.279 12.527 3.28-.04 3.279.114 3.279-.12 3.28-.155 3.279-.064 3.279.228 3.28-.101 3.279-18.6 3.279 18.877 3.28-.199 3.279.154 3.279-.208 3.28-.372"/></g><clipPath id="v"><path transform="matrix(1 0 0 -1 0 345.6)" d="M57.6 38.016h357.12v266.112H57.6z"/></clipPath><g clip-path="url(#v)"><path stroke-width="1.5" stroke-linecap="square" stroke-linejoin="round" fill="none" stroke="#2ca02c" d="m73.833 144.642 3.28 104.14 3.278-3.217 3.28 35.458 3.28-.136 3.278-7.498 3.28 14.7 3.28-4.208 3.278 6.337 3.28 2.609 3.28-5.408 3.278 1.876 3.28-9.457 3.28 3.684 3.278-5.187 3.28 12.265 3.28-10.066 3.278.12 3.28 6.031 3.28 4.601 3.279-10.05 3.279 2.205 3.28 4.433 3.279 6.249 3.279-2.78 3.28 1.734 3.279-.003 3.279-5.207 3.28 3.963 3.279-.263 3.279 1.27 3.28.875 3.279-.127 3.279.524 3.28-4.907 3.279 5.263 3.279-4.097 3.28-1.26 3.279 4.424 3.279-.253 3.28.29 3.279-.142 3.279-1.979 3.28 2.426 3.279-.22 3.279-1.246 3.28-.482 3.279.81 3.279-1.89 3.28 2.391 3.279-1.59 3.279.79 3.28 2.237 3.279-1.119 3.279-.38 3.28-.556 3.279.893 3.279-2.226 3.28 3.289 3.279-.025 3.28-.342 3.278-.906 3.28.725 3.28-.335 3.278-.69 3.28 1.284 3.28.363 3.278-.024 3.28.312 3.28-.242 3.278-.262 3.28.342 3.28.138 3.278-.08 3.28.03 3.28-.574 3.278-1.994 3.28-3.478 3.28 1.704 3.278 3.376 3.28.54 3.28.518 3.279.21 3.279-.334 3.28.024 3.279-.281 3.279-.138 3.28.1 3.279.451 3.279-.108 3.28-.633 3.279.523 3.279-.085 3.28.151 3.279-.863 3.279-2.57 3.28-.886 3.279.172 3.279 1.167 3.28 2.188"/></g><clipPath id="w"><path transform="matrix(1 0 0 -1 0 345.6)" d="M57.6 38.016h357.12v266.112H57.6z"/></clipPath><g clip-path="url(#w)"><path stroke-width="1.5" stroke-linecap="square" stroke-linejoin="round" fill="none" stroke="#d62728" d="m73.833 53.568 3.28 197.606 3.278-2.606 3.28 21.55 3.28 6.164 3.278-6.288 3.28-2.789 3.28 14.51 3.278 1.31 3.28-22.446 3.28 17.507 3.278 4.324 3.28-18.418 3.28 22.237 3.278-.061 3.28-35.305 3.28 26.117 3.278 10.91 3.28-14.01 3.28-.42 3.279 13.174 3.279-83.285 3.28 78.461 3.279 3.852 3.279-20.927 3.28 19.643 3.279 3.083 3.279.191 3.28-18.108 3.279 16.69 3.279 3.128 3.28-2.71 3.279-24.444 3.279 9.898 3.28-9.768 3.279 26.483 3.279-28.297 3.28 31.472 3.279-.25 3.279-7.16 3.28 4.476 3.279 2.515 3.279-6.374 3.28-10.953 3.279 17.388 3.279-3.95 3.28 6.73 3.279-.754 3.279 1.2 3.28-.766 3.279-3.927 3.279-22.745 3.28 17.307 3.279 5.54 3.279 2.64 3.28.837 3.279-.684 3.279.03 3.28 1.895 3.279-.942 3.28.966 3.278-.445 3.28-.03 3.28-2.056 3.278-12.13 3.28 14.057 3.28-4.937 3.278 4.806 3.28-1.053 3.28-1.527 3.278 2.188 3.28.83 3.28-.14 3.278-.405 3.28-2.736 3.28 1.982 3.278-1.803 3.28 1.274 3.28.831 3.278-.594 3.28 1.038 3.28-1.06 3.279-4.811 3.279 1.221 3.28 1.002 3.279 2.669 3.279-2.605 3.28 4.023 3.279.384 3.279-1.225 3.28-3.61 3.279 2.607 3.279.573 3.28 1.096 3.279.032 3.279.729 3.28.032 3.279-.198 3.279-1.065 3.28-2.703"/></g><clipPath id="x"><path transform="matrix(1 0 0 -1 0 345.6)" d="M57.6 38.016h357.12v266.112H57.6z"/></clipPath><g clip-path="url(#x)"><path stroke-width="1.5" stroke-linecap="square" stroke-linejoin="round" fill="none" stroke="#9467bd" d="m73.833 154.96 3.28 45.552 3.278-43.482 3.28 85.84 3.28-6.277 3.278 36.39 3.28-14.822 3.28-19.686 3.278 34.348 3.28 3.73 3.28 12.605 3.278-9.971 3.28 5.218 3.28 3.34 3.278 5.483 3.28-5.078 3.28 4.105 3.278-2.775 3.28-13.113 3.28 14.956 3.279-7.676 3.279.739 3.28 9.89 3.279-2.7 3.279 2.452 3.28 1.17 3.279-.015 3.279-.15 3.28-.099 3.279.25 3.279.033 3.28.132 3.279-.854 3.279.91 3.28-.369 3.279-.366 3.279-3.343 3.28-1.955 3.279 5.72 3.279-3.355 3.28-6.108 3.279 7.191 3.279-2.495 3.28 4.432 3.279-9.056 3.279 8.492 3.28-3.02 3.279 3.38 3.279-4.13 3.28 4.098 3.279-10.512 3.279 10.976 3.28-3.56 3.279.911 3.279 2.002 3.28.703 3.279-3.056 3.279 3.346 3.28-.346 3.279.172 3.28-.752 3.278.758 3.28-2.559 3.28 2.426 3.278-2.412 3.28 2.38 3.28-1.512 3.278 1.204 3.28-.138 3.28-5.094 3.278 5.553 3.28.066 3.28-1.55 3.278.21 3.28 1.179 3.28.37 3.278.01 3.28-.714 3.28-1.252 3.278.874 3.28.266 3.28-.854 3.279-2.2 3.279 3.205 3.28.615 3.279-.884 3.279.575 3.28.358 3.279.074 3.279-.909 3.28.227 3.279.167 3.279-.04 3.28.445 3.279-.023 3.279-.082 3.28-.314 3.279-.368 3.279.21 3.28.114"/></g><clipPath id="y"><path transform="matrix(1 0 0 -1 0 345.6)" d="M57.6 38.016h357.12v266.112H57.6z"/></clipPath><g clip-path="url(#y)"><path stroke-width="1.5" stroke-linecap="square" stroke-linejoin="round" fill="none" stroke="#8c564b" d="m73.833 206.935 3.28 73.11 3.278-6.108 3.28 17.374 3.28-12.395 3.278-.248 3.28 10.035 3.28-9.49 3.278 11.221 3.28 2.143 3.28-2.995 3.278 3.688 3.28.947 3.28.067 3.278.05 3.28.339 3.28.138 3.278-.184 3.28-.054 3.28-1.419 3.279-3.601 3.279 5.396 3.28-.087 3.279-5.355 3.279 5.04 3.28.033 3.279.737 3.279-1.265 3.28-.765 3.279.642 3.279.245 3.28-8.509 3.279 7.801 3.279.984 3.28.219 3.279-.755 3.279.538 3.28-.587 3.279.67 3.279-.13 3.28.432 3.279-.154 3.279-.165 3.28-.777 3.279-.574 3.279 1.547 3.28-1.238 3.279 1.212 3.279-1.531 3.28 1.425 3.279.817 3.279-2.826 3.28 2.517 3.279.025 3.279-.117 3.28.138 3.279.183 3.279-1.562 3.28.482 3.279-2.34 3.28 1.315 3.278 1.43 3.28.708 3.28.007 3.278.07 3.28-.247 3.28.175 3.278-.414 3.28-.26 3.28.276 3.278-.257 3.28-.163 3.28-.975 3.278 1.114 3.28.81 3.28-2.756 3.278 1.763 3.28.52 3.28-.496 3.278-.364 3.28.759 3.28.044 3.279-.714 3.279.605 3.28-.428 3.279.718 3.279-.089 3.28-.308 3.279-.737 3.279-.103 3.28.711 3.279.647 3.279-.032 3.28.161 3.279.03 3.279.062 3.28-.66 3.279-.247 3.279.779 3.28-.232"/></g><clipPath id="z"><path transform="matrix(1 0 0 -1 0 345.6)" d="M57.6 38.016h357.12v266.112H57.6z"/></clipPath><g clip-path="url(#z)"><path stroke-width="1.5" stroke-linecap="square" stroke-linejoin="round" fill="none" stroke="#e377c2" d="m73.833 209.608 3.28 65.07 3.278 9.756 3.28-10.229 3.28.91 3.278-2.971 3.28 4.41 3.28-1.056 3.278-4.686 3.28-36.929 3.28 47.166 3.278-2.303 3.28-.522 3.28 8.68 3.278-9.837 3.28 3.16 3.28 8.317 3.278-6.157 3.28 6.768 3.28-4.936 3.279 3.327 3.279-1.905 3.28 5.326 3.279-4.364 3.279.19 3.28 2.349 3.279-1.654 3.279-.42 3.28-.859 3.279 1.032 3.279 1.762 3.28-1.241 3.279 4.732 3.279-2.98 3.28-.868 3.279-14.032 3.279 1.095 3.28 4.859 3.279 3.718 3.279 6.039 3.28-1.891 3.279-28.237 3.279 21.787 3.28-3.806 3.279-5.49 3.279 8.639 3.28 4.542 3.279 2.346 3.279 3.48 3.28-.65 3.279-1.21 3.279-4.056 3.28-6.385 3.279-1.675 3.279 7.44 3.28 3.197 3.279.279 3.279-2.654 3.28-3.39 3.279 3.403 3.28-1.073 3.278 7.265 3.28-1.712 3.28-4.711 3.278-.105 3.28-3.501 3.28 4.238 3.278 1.842 3.28 1.605 3.28-2.51 3.278-2.464 3.28-3.561 3.28-6.317 3.278 7.744 3.28 2.99 3.28 1.325 3.278 4.45 3.28 1.432 3.28-.646 3.278-1.556 3.28-2.2 3.28-2.384 3.279 3.941 3.279.01 3.28 1.709 3.279.786 3.279-.505 3.28-3.775 3.279.005 3.279-4.05 3.28-2.509 3.279-1.034 3.279 3.139 3.28 2.387 3.279 1.646 3.279-.414 3.28 2.748 3.279 1.961 3.279 1.803 3.28-1.014"/></g><path stroke-width=".8" stroke-linecap="square" stroke-miterlimit="10" fill="none" stroke="#000" d="M57.6 307.584V41.472M414.72 307.584V41.472M57.6 307.584h357.12M57.6 41.472h357.12"/><path d="M293.754 134.685H409.12c1.067 0 1.6-.534 1.6-1.6V47.072c0-1.067-.533-1.6-1.6-1.6H293.754c-1.066 0-1.6.533-1.6 1.6v86.013c0 1.066.534 1.6 1.6 1.6z" fill="#fff" fill-opacity=".8"/><path stroke-miterlimit="10" fill="none" stroke="#d5d6d5" stroke-opacity=".8" d="M293.754 134.685H409.12c1.067 0 1.6-.534 1.6-1.6V47.072c0-1.067-.533-1.6-1.6-1.6H293.754c-1.066 0-1.6.533-1.6 1.6v86.013c0 1.066.534 1.6 1.6 1.6z"/><path stroke-width="1.5" stroke-linecap="square" stroke-linejoin="round" fill="none" stroke="#1f77b4" d="M295.354 52.263h16"/><symbol id="A"><path transform="translate(-.013) scale(.001)" d="M630 0H512L343 285c-4 6-10 19-17 39h-3c-1-3-7-16-17-40L132 0H13l251 380L33 756h119l150-261c8-16 17-34 26-54h2c8 17 17 36 29 56l156 259h112L391 381 630 0z"/></symbol><symbol id="B"><path transform="matrix(.001 0 0 .001 -.049 .012)" d="M669 52C593 9 508-12 414-12 304-12 216 22 149 91S49 252 49 368s37 212 111 288c74 75 168 113 284 113 81 0 150-13 207-39V625c-60 38-132 57-216 57-82 0-150-29-204-85s-80-130-80-222c0-96 24-170 74-222 49-53 115-79 199-79 58 0 107 11 147 33v205H407v86h262V52z"/></symbol><symbol id="C"><path transform="translate(-.098) scale(.001)" d="M98 0v756h222c66 0 119-16 159-48s60-73 60-125c0-42-12-79-36-111s-56-55-97-68v-2c51-6 92-25 123-58 30-34 46-76 46-126 0-65-24-118-70-158C458 20 398 0 326 0H98zm97 671V434h89c47 0 84 11 111 34s41 55 41 96c0 71-48 107-143 107h-98zm0-322V85h118c50 0 90 11 118 35s42 57 42 99c0 86-59 130-177 130H195z"/></symbol><use xlink:href="#A" transform="matrix(8 0 0 -8 317.858 55.063)"/><use xlink:href="#B" transform="matrix(8 0 0 -8 323.213 55.159)"/><use xlink:href="#C" transform="matrix(8 0 0 -8 329.557 55.063)"/><path stroke-width="1.5" stroke-linecap="square" stroke-linejoin="round" fill="none" stroke="#ff7f0e" d="M295.354 64.638h16"/><symbol id="D"><path transform="translate(-.098) scale(.001)" d="M782 0v501c0 41 2 91 7 149h-2c-9-37-17-62-23-76L515 0h-55L211 569c-6 13-13 40-22 81h-3c3-36 5-87 5-153V0H98v756h132l223-518c17-40 28-71 34-93h3c17 46 29 78 36 95l227 516h126V0h-97z"/></symbol><symbol id="E"><path transform="translate(-.098) scale(.001)" d="M497 0H98v756h97V86h302V0z"/></symbol><symbol id="F"><path transform="translate(-.098) scale(.001)" d="M195 283V0H98v756h215c81 0 144-20 189-59 45-40 68-96 68-169 0-74-27-134-79-180-53-46-119-68-198-65h-98zm0 387V369h91c59 0 104 13 135 40 31 26 47 65 47 115 0 97-58 146-173 146H195z"/></symbol><use xlink:href="#D" transform="matrix(8 0 0 -8 318.538 67.438)"/><use xlink:href="#E" transform="matrix(8 0 0 -8 326.354 67.438)"/><use xlink:href="#F" transform="matrix(8 0 0 -8 330.458 67.438)"/><path stroke-width="1.5" stroke-linecap="square" stroke-linejoin="round" fill="none" stroke="#2ca02c" d="M295.354 77.013h16"/><symbol id="G"><path transform="translate(-.098) scale(.001)" d="M98 0v756h215c114 0 210-34 286-100 76-67 114-156 114-268 0-118-38-212-114-282C523 35 425 0 306 0H98zm97 669V86h110c96 0 171 26 225 79 54 52 81 126 81 220s-28 165-83 213c-56 47-128 71-218 71H195z"/></symbol><symbol id="H"><path transform="matrix(.001 0 0 .001 -.049 .012)" d="M458 24c-42-24-91-36-149-36-78 0-141 25-189 75S49 177 49 257c0 88 25 160 77 214 51 54 120 82 206 82 49 0 91-9 127-27v-94c-38 28-81 42-127 42-55 0-100-19-134-57s-51-89-51-152c0-62 16-111 48-146 32-36 76-53 132-53 46 0 89 15 131 46V24z"/></symbol><symbol id="I"><path transform="translate(-.085) scale(.001)" d="M85 0v799h96V0H85z"/></symbol><symbol id="J"><path transform="translate(-.027) scale(.001)" d="M362 718c-18 9-38 14-58 14-60 0-90-37-90-111v-81h127v-79H214V0h-94v461H27v79h93v85c0 58 16 103 50 136 33 33 75 50 127 50 27 0 49-3 65-9v-84z"/></symbol><use xlink:href="#G" transform="matrix(8 0 0 -8 318.538 79.813)"/><use xlink:href="#m" transform="matrix(8 0 0 -8 324.242 79.909)"/><use xlink:href="#H" transform="matrix(8 0 0 -8 328.778 79.909)"/><use xlink:href="#j" transform="matrix(8 0 0 -8 332.986 79.813)"/><use xlink:href="#o" transform="matrix(8 0 0 -8 334.962 79.909)"/><use xlink:href="#j" transform="matrix(8 0 0 -8 338.818 79.813)"/><use xlink:href="#p" transform="matrix(8 0 0 -8 340.746 79.909)"/><use xlink:href="#k" transform="matrix(8 0 0 -8 346.122 79.813)"/><use xlink:href="#g" transform="matrix(8 0 0 -8 350.538 79.813)"/><use xlink:href="#h" transform="matrix(8 0 0 -8 354.884 79.813)"/><use xlink:href="#m" transform="matrix(8 0 0 -8 357.543 79.909)"/><use xlink:href="#m" transform="matrix(8 0 0 -8 362.079 79.909)"/><use xlink:href="#r" transform="matrix(8 0 0 -8 366.615 79.909)"/><use xlink:href="#I" transform="matrix(8 0 0 -8 372.255 79.813)"/><use xlink:href="#i" transform="matrix(8 0 0 -8 374.063 79.909)"/><use xlink:href="#o" transform="matrix(8 0 0 -8 378.567 79.909)"/><use xlink:href="#o" transform="matrix(8 0 0 -8 382.271 79.909)"/><use xlink:href="#j" transform="matrix(8 0 0 -8 386.127 79.813)"/><use xlink:href="#J" transform="matrix(8 0 0 -8 387.879 79.813)"/><use xlink:href="#j" transform="matrix(8 0 0 -8 391.031 79.813)"/><use xlink:href="#m" transform="matrix(8 0 0 -8 392.959 79.909)"/><use xlink:href="#h" transform="matrix(8 0 0 -8 397.783 79.813)"/><path stroke-width="1.5" stroke-linecap="square" stroke-linejoin="round" fill="none" stroke="#d62728" d="M295.354 89.388h16"/><symbol id="K"><path transform="matrix(.001 0 0 .001 -.049 .253)" d="M554 45c0-198-97-298-291-298-67 0-125 13-175 37v92c60-33 118-50 174-50 130 0 196 69 196 206v57h-1C415 21 354-12 273-12c-68 0-123 24-163 72-41 48-61 113-61 193 0 92 22 165 67 219s105 81 180 81c72 0 125-29 161-86h1v73h96V45zm-96 276c0 42-14 78-42 108s-63 45-104 45c-52 0-93-20-122-58s-43-91-43-157c0-58 14-104 42-140s65-53 111-53 84 17 114 51 44 77 44 129v75z"/></symbol><symbol id="L"><path transform="translate(-.098) scale(.001)" d="M650 0H535L409 210c-25 42-48 70-69 85s-46 23-74 23h-71V0H98v756h230c73 0 130-18 172-53 42-36 63-85 63-149 0-105-56-173-167-204v-2c20-10 38-22 53-38s35-44 59-83L650 0zM195 671V404h116c44 0 80 13 108 39s42 60 42 102c0 39-13 70-38 92-26 22-63 34-111 34H195z"/></symbol><use xlink:href="#E" transform="matrix(8 0 0 -8 318.538 92.188)"/><use xlink:href="#p" transform="matrix(8 0 0 -8 322.25 92.284)"/><use xlink:href="#K" transform="matrix(8 0 0 -8 327.338 94.212)"/><use xlink:href="#j" transform="matrix(8 0 0 -8 332.658 92.188)"/><use xlink:href="#o" transform="matrix(8 0 0 -8 334.634 92.284)"/><use xlink:href="#s" transform="matrix(8 0 0 -8 338.074 92.276)"/><use xlink:href="#j" transform="matrix(8 0 0 -8 341.474 92.188)"/><use xlink:href="#H" transform="matrix(8 0 0 -8 343.402 92.284)"/><use xlink:href="#L" transform="matrix(8 0 0 -8 347.802 92.188)"/><use xlink:href="#m" transform="matrix(8 0 0 -8 352.4 92.284)"/><use xlink:href="#K" transform="matrix(8 0 0 -8 356.936 94.212)"/><use xlink:href="#h" transform="matrix(8 0 0 -8 362.344 92.188)"/><use xlink:href="#m" transform="matrix(8 0 0 -8 365.003 92.284)"/><use xlink:href="#o" transform="matrix(8 0 0 -8 369.587 92.284)"/><use xlink:href="#o" transform="matrix(8 0 0 -8 373.29 92.284)"/><use xlink:href="#j" transform="matrix(8 0 0 -8 377.147 92.188)"/><use xlink:href="#p" transform="matrix(8 0 0 -8 379.075 92.284)"/><use xlink:href="#k" transform="matrix(8 0 0 -8 384.45 92.188)"/><path stroke-width="1.5" stroke-linecap="square" stroke-linejoin="round" fill="none" stroke="#9467bd" d="M295.354 101.81h16"/><symbol id="M"><path transform="translate(-.011) scale(.001)" d="M692 0H584l-77 207H192L119 0H11l288 756h105L692 0zM477 292 362 607c-4 10-7 27-11 53h-3c-4-24-8-41-12-53L223 292h254z"/></symbol><use xlink:href="#M" transform="matrix(8 0 0 -8 317.842 104.61)"/><use xlink:href="#q" transform="matrix(8 0 0 -8 323.778 104.706)"/><use xlink:href="#i" transform="matrix(8 0 0 -8 328.866 104.706)"/><use xlink:href="#C" transform="matrix(8 0 0 -8 333.714 104.61)"/><use xlink:href="#p" transform="matrix(8 0 0 -8 338.338 104.706)"/><use xlink:href="#p" transform="matrix(8 0 0 -8 343.426 104.706)"/><use xlink:href="#o" transform="matrix(8 0 0 -8 348.562 104.706)"/><use xlink:href="#s" transform="matrix(8 0 0 -8 352.002 104.698)"/><use xlink:href="#r" transform="matrix(8 0 0 -8 355.202 104.706)"/><use xlink:href="#I" transform="matrix(8 0 0 -8 360.842 104.61)"/><use xlink:href="#i" transform="matrix(8 0 0 -8 362.65 104.706)"/><use xlink:href="#o" transform="matrix(8 0 0 -8 367.154 104.706)"/><use xlink:href="#o" transform="matrix(8 0 0 -8 370.858 104.706)"/><use xlink:href="#j" transform="matrix(8 0 0 -8 374.714 104.61)"/><use xlink:href="#J" transform="matrix(8 0 0 -8 376.466 104.61)"/><use xlink:href="#j" transform="matrix(8 0 0 -8 379.618 104.61)"/><use xlink:href="#m" transform="matrix(8 0 0 -8 381.546 104.706)"/><use xlink:href="#h" transform="matrix(8 0 0 -8 386.37 104.61)"/><path stroke-width="1.5" stroke-linecap="square" stroke-linejoin="round" fill="none" stroke="#8c564b" d="M295.354 114.278h16"/><symbol id="N"><path transform="translate(-.098) scale(.001)" d="M636 0H502L218 344c-10 12-17 21-20 28h-3V0H98v756h97V400h3c5 9 12 18 20 28l274 328h121L295 394 636 0z"/></symbol><symbol id="O"><path transform="translate(-.098) scale(.001)" d="M715 0H600L219 588c-11 16-20 33-26 50h-3c2-18 4-53 4-106V0H98v756h122l370-578c18-28 28-45 32-52h2c-4 21-5 58-5 110v520h96V0z"/></symbol><symbol id="P"><path transform="translate(-.085) scale(.001)" d="M542 0h-96v311c0 108-41 163-121 163-42 0-76-16-103-48-28-32-41-72-41-120V0H85v799h96V451h2c41 68 100 102 176 102 122 0 183-74 183-220V0z"/></symbol><symbol id="Q"><path transform="matrix(.001 0 0 .001 -.085 .012)" d="M181 76V0H85v799h96V447h2c42 70 104 106 186 106 67 0 121-24 161-72s60-113 60-195c0-92-23-164-67-218-45-54-105-80-179-80-71 0-125 29-161 88h-2zm0 146c0-44 14-81 42-111s64-45 107-45c50 0 90 19 119 59 28 39 43 93 43 162 0 57-14 102-40 136-27 34-64 51-110 51-47 0-86-17-116-51s-45-76-45-128v-73z"/></symbol><use xlink:href="#N" transform="matrix(8 0 0 -8 318.538 117.078)"/><use xlink:href="#O" transform="matrix(8 0 0 -8 323.618 117.078)"/><use xlink:href="#m" transform="matrix(8 0 0 -8 329.73 117.174)"/><use xlink:href="#j" transform="matrix(8 0 0 -8 334.466 117.078)"/><use xlink:href="#K" transform="matrix(8 0 0 -8 336.394 119.102)"/><use xlink:href="#P" transform="matrix(8 0 0 -8 341.802 117.078)"/><use xlink:href="#Q" transform="matrix(8 0 0 -8 346.73 117.174)"/><use xlink:href="#p" transform="matrix(8 0 0 -8 351.554 117.174)"/><use xlink:href="#h" transform="matrix(8 0 0 -8 356.93 117.078)"/><use xlink:href="#o" transform="matrix(8 0 0 -8 359.793 117.174)"/><use xlink:href="#r" transform="matrix(8 0 0 -8 363.45 117.174)"/><use xlink:href="#I" transform="matrix(8 0 0 -8 369.09 117.078)"/><use xlink:href="#i" transform="matrix(8 0 0 -8 370.897 117.174)"/><use xlink:href="#o" transform="matrix(8 0 0 -8 375.401 117.174)"/><use xlink:href="#o" transform="matrix(8 0 0 -8 379.105 117.174)"/><use xlink:href="#j" transform="matrix(8 0 0 -8 382.961 117.078)"/><use xlink:href="#J" transform="matrix(8 0 0 -8 384.713 117.078)"/><use xlink:href="#j" transform="matrix(8 0 0 -8 387.865 117.078)"/><use xlink:href="#m" transform="matrix(8 0 0 -8 389.793 117.174)"/><use xlink:href="#h" transform="matrix(8 0 0 -8 394.617 117.078)"/><path stroke-width="1.5" stroke-linecap="square" stroke-linejoin="round" fill="none" stroke="#e377c2" d="M295.354 126.7h16"/><symbol id="R"><path transform="translate(-.085) scale(.001)" d="M863 0h-96v310c0 58-10 100-28 126-18 25-48 38-89 38-36 0-66-17-91-50s-37-72-37-116V0h-96v320c0 102-40 154-118 154-37 0-67-16-91-47-24-32-36-72-36-120V0H85v540h96v-85h2c38 65 95 98 169 98 36 0 67-10 95-30s47-47 58-81c40 74 100 111 180 111 118 0 178-74 178-220V0z"/></symbol><symbol id="S"><path transform="translate(-.098) scale(.001)" d="M487 669H195V417h271v-86H195V0H98v756h389v-87z"/></symbol><use xlink:href="#L" transform="matrix(8 0 0 -8 318.538 129.5)"/><use xlink:href="#i" transform="matrix(8 0 0 -8 323.338 129.596)"/><use xlink:href="#k" transform="matrix(8 0 0 -8 328.082 129.5)"/><use xlink:href="#q" transform="matrix(8 0 0 -8 332.722 129.596)"/><use xlink:href="#p" transform="matrix(8 0 0 -8 337.842 129.596)"/><use xlink:href="#R" transform="matrix(8 0 0 -8 343.218 129.5)"/><use xlink:href="#S" transform="matrix(8 0 0 -8 350.818 129.5)"/><use xlink:href="#p" transform="matrix(8 0 0 -8 354.674 129.596)"/><use xlink:href="#h" transform="matrix(8 0 0 -8 360.05 129.5)"/><use xlink:href="#m" transform="matrix(8 0 0 -8 362.709 129.596)"/><use xlink:href="#o" transform="matrix(8 0 0 -8 367.293 129.596)"/><use xlink:href="#s" transform="matrix(8 0 0 -8 370.733 129.588)"/><use xlink:href="#r" transform="matrix(8 0 0 -8 373.933 129.596)"/><use xlink:href="#I" transform="matrix(8 0 0 -8 379.573 129.5)"/><use xlink:href="#i" transform="matrix(8 0 0 -8 381.381 129.596)"/><use xlink:href="#o" transform="matrix(8 0 0 -8 385.885 129.596)"/><use xlink:href="#o" transform="matrix(8 0 0 -8 389.589 129.596)"/><use xlink:href="#j" transform="matrix(8 0 0 -8 393.445 129.5)"/><use xlink:href="#J" transform="matrix(8 0 0 -8 395.197 129.5)"/><use xlink:href="#j" transform="matrix(8 0 0 -8 398.349 129.5)"/><use xlink:href="#m" transform="matrix(8 0 0 -8 400.277 129.596)"/><use xlink:href="#h" transform="matrix(8 0 0 -8 405.101 129.5)"/></svg>