<svg xmlns="http://www.w3.org/2000/svg" xmlns:xlink="http://www.w3.org/1999/xlink" width="614.4" height="460.8" viewBox="0 0 460.8 345.6"><path d="M0 345.6h460.8V0H0z" fill="#fff"/><path d="M57.6 307.584h357.12V41.472H57.6z" fill="#fff"/><path stroke-width=".8" stroke-linejoin="round" fill="none" stroke="#000" d="M73.833 307.584v3.5"/><symbol id="a"><path transform="matrix(.001 0 0 .001 -.044 .012)" d="M44 363c0 133 22 234 66 303 44 68 109 103 193 103 160 0 240-130 240-388 0-128-23-225-68-292C430 21 367-12 286-12c-77 0-137 32-179 96S44 241 44 363zm98 5c0-202 51-302 153-302 100 0 150 102 150 307 0 210-49 316-147 316-104 0-156-107-156-321z"/></symbol><use xlink:href="#a" transform="matrix(10 0 0 -10 71.343 322.704)"/><path stroke-width=".8" stroke-linejoin="round" fill="none" stroke="#000" d="M114.618 307.584v3.5"/><symbol id="b"><path transform="translate(-.058) scale(.001)" d="M417 558c0 40-13 72-39 96-26 23-61 35-105 35-32 0-63-8-95-24s-62-39-89-68v92c24 26 52 45 84 59 31 14 68 21 111 21 68 0 122-19 164-55 42-37 63-87 63-149 0-56-13-104-38-144-26-41-69-83-131-125-64-44-106-76-127-94-22-19-37-37-45-54-8-18-12-39-12-63h376V0H58v38c0 43 6 80 18 110s31 60 59 89c27 29 70 64 128 104 59 42 99 78 121 110 22 31 33 67 33 107z"/></symbol><symbol id="c"><path transform="matrix(.001 0 0 .001 -.085 .012)" d="M515 233c0-74-25-133-74-178S326-12 244-12C172-12 119-1 85 19v97c51-34 103-50 156-50 52 0 95 14 127 44 32 29 49 68 49 116s-17 85-51 112-81 41-142 41c-48 0-90-2-128-6l28 383h353v-84H204l-16-214 69 3c80 0 143-20 189-60s69-96 69-168z"/></symbol><use xlink:href="#b" transform="matrix(10 0 0 -10 109.34 322.584)"/><use xlink:href="#c" transform="matrix(10 0 0 -10 115.47 322.704)"/><path stroke-width=".8" stroke-linejoin="round" fill="none" stroke="#000" d="M155.404 307.584v3.5"/><use xlink:href="#c" transform="matrix(10 0 0 -10 150.395 322.704)"/><use xlink:href="#a" transform="matrix(10 0 0 -10 155.845 322.704)"/><path stroke-width=".8" stroke-linejoin="round" fill="none" stroke="#000" d="M196.19 307.584v3.5"/><symbol id="d"><path transform="translate(-.054) scale(.001)" d="M535 697c-80-139-142-267-188-385S273 90 263 0h-99c12 88 40 190 85 304 44 114 104 236 180 368H54v84h481v-59z"/></symbol><use xlink:href="#d" transform="matrix(10 0 0 -10 190.87 322.584)"/><use xlink:href="#c" transform="matrix(10 0 0 -10 197.04 322.704)"/><path stroke-width=".8" stroke-linejoin="round" fill="none" stroke="#000" d="M236.976 307.584v3.5"/><symbol id="e"><path transform="translate(-.104) scale(.001)" d="M278 0v647c-15-15-40-32-76-50-36-19-68-32-98-39v93c40 11 82 29 128 53 45 24 80 47 105 69h36V0h-95z"/></symbol><use xlink:href="#e" transform="matrix(10 0 0 -10 229.227 322.584)"/><use xlink:href="#a" transform="matrix(10 0 0 -10 234.487 322.704)"/><use xlink:href="#a" transform="matrix(10 0 0 -10 240.347 322.704)"/><path stroke-width=".8" stroke-linejoin="round" fill="none" stroke="#000" d="M277.761 307.584v3.5"/><use xlink:href="#e" transform="matrix(10 0 0 -10 270.012 322.584)"/><use xlink:href="#b" transform="matrix(10 0 0 -10 275.412 322.584)"/><use xlink:href="#c" transform="matrix(10 0 0 -10 281.542 322.704)"/><path stroke-width=".8" stroke-linejoin="round" fill="none" stroke="#000" d="M318.547 307.584v3.5"/><use xlink:href="#e" transform="matrix(10 0 0 -10 310.798 322.584)"/><use xlink:href="#c" transform="matrix(10 0 0 -10 316.468 322.704)"/><use xlink:href="#a" transform="matrix(10 0 0 -10 321.918 322.704)"/><path stroke-width=".8" stroke-linejoin="round" fill="none" stroke="#000" d="M359.333 307.584v3.5"/><use xlink:href="#e" transform="matrix(10 0 0 -10 351.584 322.584)"/><use xlink:href="#d" transform="matrix(10 0 0 -10 356.944 322.584)"/><use xlink:href="#c" transform="matrix(10 0 0 -10 363.114 322.704)"/><path stroke-width=".8" stroke-linejoin="round" fill="none" stroke="#000" d="M400.119 307.584v3.5"/><use xlink:href="#b" transform="matrix(10 0 0 -10 391.91 322.584)"/><use xlink:href="#a" transform="matrix(10 0 0 -10 397.63 322.704)"/><use xlink:href="#a" transform="matrix(10 0 0 -10 403.49 322.704)"/><symbol id="f"><path transform="translate(-.021) scale(.001)" d="M555 669H336V0h-98v669H21v87h534v-87z"/></symbol><symbol id="g"><path transform="translate(-.085) scale(.001)" d="M375 445c-16 11-38 17-66 17-38 0-68-18-92-52-24-35-36-81-36-137V0H85v540h96V430h2c27 79 74 119 142 119 21 0 38-3 50-7v-97z"/></symbol><symbol id="h"><path transform="matrix(.001 0 0 .001 -.045 .012)" d="M98 502c54 34 116 51 186 51 130 0 195-69 195-205V0h-94v83h-3c-38-64-93-95-165-95-53 0-95 14-126 42S45 96 45 145c0 100 60 159 180 176l160 22c0 88-37 133-110 133-65 0-124-22-177-66v92zm160-248c-44-6-75-18-91-34-17-16-25-39-25-68 0-26 9-47 27-63s42-24 72-24c42 0 76 14 103 44 27 29 41 66 41 110v52l-127-17z"/></symbol><symbol id="i"><path transform="translate(-.074) scale(.001)" d="M74 730c0 17 5 31 17 43 11 12 25 18 43 18 17 0 31-6 43-18s18-26 18-43-6-31-18-42c-12-12-26-17-43-17-18 0-32 5-43 17-12 11-17 25-17 42zM85 0v540h96V0H85z"/></symbol><symbol id="j"><path transform="translate(-.085) scale(.001)" d="M542 0h-95v307c0 111-41 167-122 167-42 0-77-16-104-47-27-32-40-71-40-119V0H85v540h96v-89h2c40 68 99 102 177 102 59 0 104-19 135-57s47-94 47-166V0z"/></symbol><symbol id="l"><path transform="matrix(.001 0 0 .001 -.049 .012)" d="M525 246H147c2-58 18-103 48-134 30-32 71-47 125-47 60 0 116 19 167 58V38C439 4 376-12 298-12S159 12 115 62c-44 49-66 118-66 206 0 82 24 150 72 204s107 81 179 81c70 0 125-23 165-68 40-46 60-109 60-191v-48zm-95 76c-1 49-13 87-35 114-23 26-55 40-96 40-38 0-71-15-99-43s-46-65-53-111h283z"/></symbol><symbol id="m"><path transform="matrix(.001 0 0 .001 -.085 .248)" d="M181 76v-324H85v788h96v-93h2c42 70 104 106 186 106 68 0 122-25 162-73 39-48 59-113 59-194 0-90-23-163-67-217S419-12 344-12c-70 0-123 29-161 88h-2zm0 147c0-44 14-82 42-112s64-45 107-45c50 0 90 19 119 59 28 39 43 93 43 162 0 58-14 104-40 137-27 33-64 50-110 50-48 0-86-17-116-51s-45-77-45-129v-71z"/></symbol><symbol id="n"><path transform="matrix(.001 0 0 .001 -.055 .012)" d="M55 117c48-36 100-53 156-53 74 0 112 24 112 74 0 20-9 37-25 51-16 13-49 29-99 48-60 24-99 47-117 71s-26 53-26 87c0 47 20 85 60 114s90 44 150 44c46 0 88-8 128-24v-92c-41 26-87 39-137 39-31 0-56-7-75-20-20-14-29-31-29-53s7-39 21-51 44-28 92-46c60-23 100-46 122-70 21-24 32-54 32-89 0-50-21-89-61-117-41-28-93-42-157-42C146-12 97-1 55 19v98z"/></symbol><symbol id="o"><path transform="matrix(.001 0 0 .001 -.049 .012)" d="M49 264c0 89 25 159 75 211s117 78 203 78c80 0 144-25 190-75s69-118 69-206c0-85-25-154-74-206S397-12 315-12c-81 0-146 25-194 76-48 50-72 117-72 200zm98 3c0-62 15-111 47-147 31-36 73-54 127-54s96 17 125 52c28 35 43 85 43 151s-15 116-43 152c-29 35-71 53-125 53s-97-19-128-56-46-87-46-151z"/></symbol><symbol id="p"><path transform="matrix(.001 0 0 .001 -.049 .012)" d="M554 0h-96v90h-1C417 22 355-12 273-12c-69 0-124 24-164 72S49 174 49 257c0 89 22 161 68 215s105 81 179 81 127-29 161-86h1v332h96V0zm-95 321c0 43-15 79-43 109-28 29-63 44-105 44-51 0-91-19-120-57-30-38-44-90-44-155 0-61 14-109 42-144s65-52 113-52c46 0 83 17 113 51 29 34 44 77 44 129v75z"/></symbol><use xlink:href="#f" transform="matrix(10 0 0 -10 202.19 337.068)"/><use xlink:href="#g" transform="matrix(10 0 0 -10 207.623 337.068)"/><use xlink:href="#h" transform="matrix(10 0 0 -10 211.043 337.188)"/><use xlink:href="#i" transform="matrix(10 0 0 -10 216.863 337.068)"/><use xlink:href="#j" transform="matrix(10 0 0 -10 219.633 337.068)"/><use xlink:href="#k" transform="matrix(10 0 0 -10 224.943 337.068)"/><use xlink:href="#l" transform="matrix(10 0 0 -10 228.393 337.188)"/><use xlink:href="#m" transform="matrix(10 0 0 -10 234.423 339.548)"/><use xlink:href="#i" transform="matrix(10 0 0 -10 240.703 337.068)"/><use xlink:href="#n" transform="matrix(10 0 0 -10 243.173 337.188)"/><use xlink:href="#o" transform="matrix(10 0 0 -10 247.743 337.188)"/><use xlink:href="#p" transform="matrix(10 0 0 -10 254.103 337.188)"/><use xlink:href="#l" transform="matrix(10 0 0 -10 260.503 337.188)"/><use xlink:href="#n" transform="matrix(10 0 0 -10 266.233 337.188)"/><path stroke-width=".8" stroke-linejoin="round" fill="none" stroke="#000" d="M57.6 295.772h-3.5"/><use xlink:href="#a" transform="matrix(10 0 0 -10 45.18 299.892)"/><path stroke-width=".8" stroke-linejoin="round" fill="none" stroke="#000" d="M57.6 251.674h-3.5"/><use xlink:href="#e" transform="matrix(10 0 0 -10 22.343 255.674)"/><use xlink:href="#a" transform="matrix(10 0 0 -10 27.603 255.794)"/><use xlink:href="#a" transform="matrix(10 0 0 -10 33.463 255.794)"/><use xlink:href="#a" transform="matrix(10 0 0 -10 39.323 255.794)"/><use xlink:href="#a" transform="matrix(10 0 0 -10 45.183 255.794)"/><path stroke-width=".8" stroke-linejoin="round" fill="none" stroke="#000" d="M57.6 207.577h-3.5"/><use xlink:href="#b" transform="matrix(10 0 0 -10 21.883 211.577)"/><use xlink:href="#a" transform="matrix(10 0 0 -10 27.603 211.697)"/><use xlink:href="#a" transform="matrix(10 0 0 -10 33.463 211.697)"/><use xlink:href="#a" transform="matrix(10 0 0 -10 39.323 211.697)"/><use xlink:href="#a" transform="matrix(10 0 0 -10 45.183 211.697)"/><path stroke-width=".8" stroke-linejoin="round" fill="none" stroke="#000" d="M57.6 163.479h-3.5"/><symbol id="q"><path transform="matrix(.001 0 0 .001 -.07 .012)" d="M70 126c51-40 109-60 175-60 52 0 93 12 124 38 30 26 46 60 46 104 0 95-69 143-206 143h-63v79h60c121 0 182 45 182 135 0 82-47 124-139 124-54 0-104-18-150-53v90c49 28 107 43 173 43 64 0 116-17 155-51s59-77 59-131c0-99-51-163-151-191v-1c54-6 97-26 129-58 32-33 48-74 48-123 0-68-25-123-74-164-49-42-114-62-195-62-72 0-129 13-173 39v99z"/></symbol><use xlink:href="#q" transform="matrix(10 0 0 -10 22.003 167.599)"/><use xlink:href="#a" transform="matrix(10 0 0 -10 27.603 167.599)"/><use xlink:href="#a" transform="matrix(10 0 0 -10 33.463 167.599)"/><use xlink:href="#a" transform="matrix(10 0 0 -10 39.323 167.599)"/><use xlink:href="#a" transform="matrix(10 0 0 -10 45.183 167.599)"/><path stroke-width=".8" stroke-linejoin="round" fill="none" stroke="#000" d="M57.6 119.381h-3.5"/><symbol id="r"><path transform="translate(-.008) scale(.001)" d="M454 756V257h113v-79H454V0h-93v178H8v74c63 70 126 152 190 244 63 92 115 179 157 260h99zM116 257h245v360c-34-61-70-120-109-177-39-58-84-119-136-183z"/></symbol><use xlink:href="#r" transform="matrix(10 0 0 -10 21.383 123.381)"/><use xlink:href="#a" transform="matrix(10 0 0 -10 27.603 123.501)"/><use xlink:href="#a" transform="matrix(10 0 0 -10 33.463 123.501)"/><use xlink:href="#a" transform="matrix(10 0 0 -10 39.323 123.501)"/><use xlink:href="#a" transform="matrix(10 0 0 -10 45.183 123.501)"/><path stroke-width=".8" stroke-linejoin="round" fill="none" stroke="#000" d="M57.6 75.284h-3.5"/><use xlink:href="#c" transform="matrix(10 0 0 -10 22.153 79.404)"/><use xlink:href="#a" transform="matrix(10 0 0 -10 27.603 79.404)"/><use xlink:href="#a" transform="matrix(10 0 0 -10 33.463 79.404)"/><use xlink:href="#a" transform="matrix(10 0 0 -10 39.323 79.404)"/><use xlink:href="#a" transform="matrix(10 0 0 -10 45.183 79.404)"/><symbol id="s"><path transform="matrix(.001 0 0 .001 -.049 .012)" d="M615 31C559 2 490-12 406-12 297-12 210 22 146 91c-65 68-97 159-97 273 0 121 36 219 109 293s166 112 278 112c72 0 131-11 179-31V636c-54 30-114 45-178 45-84 0-153-28-206-84-54-56-80-132-80-227 0-91 24-163 74-216 50-54 115-80 195-80 74 0 139 17 195 51V31z"/></symbol><symbol id="t"><path transform="matrix(.001 0 0 .001 -.022 .011)" d="M345 5c-22-10-50-16-85-16-97 0-145 53-145 160v312H22v79h93v130l95 30V540h135v-79H210V166c0-36 6-61 18-76 12-16 33-23 61-23 21 0 40 6 56 18V5z"/></symbol><use xlink:href="#s" transform="matrix(0 -10 -10 0 14.939 184.741)"/><use xlink:href="#o" transform="matrix(0 -10 -10 0 14.939 178.051)"/><use xlink:href="#n" transform="matrix(0 -10 -10 0 14.939 171.631)"/><use xlink:href="#t" transform="matrix(0 -10 -10 0 14.929 167.331)"/><clipPath id="u"><path transform="matrix(1 0 0 -1 0 345.6)" d="M57.6 38.016h357.12v266.112H57.6z"/></clipPath><g clip-path="url(#u)"><path stroke-width="1.5" stroke-linecap="square" stroke-linejoin="round" fill="none" stroke="#1f77b4" d="m73.833 53.568 1.631 175.533 1.632 31.398 1.631 12.31 1.631 7.996L81.99 290.9l1.631 1.387 1.632-9.195 1.631 10.258 1.632.242 1.631-12.687 1.631 4.115 1.632 7.68 1.631 1.314 1.632-7.759 1.631 8.326 1.632-.252 1.631.556 1.631-20.143 1.632 2.517 1.631 6.915 1.632-4.246 1.631 6.265 1.632 4.282 1.631-6.051 1.631-1.74 1.632 3.578 1.631.28 1.632 4.968 1.631 1.165 1.632-1.51 1.631.238 1.631-.15 1.632-2.832 1.631-6.383 1.632 9.995 1.631.5 1.632-5.601 1.631 6.977 3.263-7.671 1.631 6.618 3.263.457 1.632-.853 1.631-.006 1.632-15.99 1.63 17.88 1.632-1.558 1.632 1.006 1.631.553 1.632-19.418 1.631 17.426 1.632-.347 1.63.063 1.632.991 1.632.484 1.631-.281 1.632.556 1.631.925 1.632-14.074 1.631 11.453 1.631.71 1.632.88 1.631-3.814 1.632 4.753 1.631-.902 1.632-.158 1.631-13.068 1.631 10.915 1.632 2.34 1.631.253 1.632-2.451 1.631 2.572 1.632-3.335 1.631 3.015 1.631-1.059 1.632.922 1.631-3.718 1.632 3.482 1.631-1.226 1.632 1.75 1.631.26 1.631-.819 1.632.359 1.631.138 1.632-1.073 1.631.518 1.632.722 1.631-4.21 1.631 2.391 1.632-.287 3.263 1.425 1.631-2.108 1.632 2.153 1.631-2.552 1.631 1.903 1.632.042 1.631-1.376 1.632 1.248 1.631 1.68 1.632-1.39 1.631.818 1.631-1.8 1.632 1.735 1.631-3.02 1.632 2.111 1.631-.399 1.632.76 1.631 1.803 1.631-1.417 1.632-2.262 1.631 3.304 1.632-1.368 1.631.894 1.632-.728 1.631-.149 1.631-8.82 1.632 6.663 1.631 3.32 1.632.518 1.631-.567 1.632-3.62 1.631 3.712 1.631-.334 3.263-1.384 1.632-7.812 1.631 7.07 1.632-.134 1.631 1.57 1.631 1.132 1.632-.82 1.631.4 1.632-.254 1.631.022 1.632-.774 1.631-7.411 1.631 8.412 3.263.52 1.632.55 1.631-.7 1.632-1.54 3.262-.951 3.263.877 1.632 1.853 1.631-.147 1.632.413 1.631-.59 1.632-.73 1.63 1.182 1.632-2.359 1.632.878 1.631-.977 1.632.61 1.631.22 1.631 1.25 1.632.202 1.631.421 1.632-2.23 1.631 2.102 1.632.362 1.631-.64 1.632-.03 1.63.197 1.632.398 1.632-.18 1.631-.57 1.632-1.35 1.631-.732 1.632.769 1.631 1.074 1.631-.588 1.632.69 1.631-.898 1.632-.062 1.631 1.109 1.632-.164 1.631.065 1.631.767 1.632.07 1.631-.061 1.632-.207 1.631-.68 1.632-.363 1.631-.09 3.263.867 1.631.102 1.632-.544 1.631.1 1.632.856 1.631-.409 3.263-.119 1.631.66"/></g><clipPath id="v"><path transform="matrix(1 0 0 -1 0 345.6)" d="M57.6 38.016h357.12v266.112H57.6z"/></clipPath><g clip-path="url(#v)"><path stroke-width="1.5" stroke-linecap="square" stroke-linejoin="round" fill="none" stroke="#ff7f0e" d="m73.833 80.04 1.631 25.014 1.632 14.627 1.631 107.462 1.631-29.61 1.632 73.399 1.631 7.275 1.632-.983 1.631-18.751 1.632 29.495 1.631 3.201 1.631.068 1.632 2.336 1.631.284 1.632-21.52 1.631 1.857 1.632 19.813 1.631-1.616 1.631-4.072 1.632 1.04 1.631-1.065 1.632-23.463 1.631 28.733 1.632-22.82 1.631 22.524 1.631-21.88 1.632 15.586 1.631 7.535 1.632-7.653 1.631 2.349 1.632 2.623 1.631.328 1.631-2.372 1.632 3.101 1.631 1.414 1.632-8 1.631 6.196 1.632-3.151 1.631-9.82 1.631 13.178 1.632-.707 1.631-4.2 1.632-7.22 1.631 5.226 1.632 6.435 1.631 2.392 1.632-10.809 1.63 9.822 1.632-1.078 1.632.05 1.631.629 1.632 1.078 1.631-1.09 1.632 1.337 1.63-2.602 1.632 3.198 1.632-9.229 1.631 8.524 1.632.557 1.631-16.001 1.632 11.537 1.631 2.676 1.631-3.68 1.632-1.096 1.631 3.236 1.632.044 1.631-8.692 1.632 10.936 1.631.505 1.631-.265 1.632.597 1.631-1.878 1.632 2.09 1.631.292 3.263-.284 1.631.214 1.632-.378 1.631-1.28 1.632-5.304 1.631 3.075 1.632-.315 1.631 1.438 1.631 2.228 1.632-2.649 1.631 2.884 1.632-.87 1.631-.024 1.632.702 1.631-.097 1.631-4.263 3.263-.893 1.632 1.424 1.631-2.836 1.632 5.777 1.631-.937 1.631-1.38 1.632-.525 1.631 1.464 1.632-.674 1.631 1.625 1.632-.837 1.631-1.311 1.631.718 1.632-2.817 1.631 4.333 1.632-2.588 1.631 1.345 1.632-.628 1.631-.764 1.631 1.262 1.632.81 1.631-.298 1.632 1.173 1.631.212 1.632-.742 1.631-.882 1.631 2.112 1.632-.67 1.631.033 3.263-.45 1.632.398 1.631-2.44 1.631.452 1.632 1.418 1.631-.175 1.632.951 1.631-.54 1.632.102 1.631-3.406 1.631 4.11 1.632-1.308 1.631.383 1.632 1.092 1.631-.732 1.632-.428 1.631-2 1.631 2.116 1.632-.81 1.631 1.283 1.632-.879 1.631-.2 1.632.531 1.631 1.18 1.631-2.347 1.632.918 1.631-1.517 1.632-1.947 1.631 4.023 1.632-1.25 1.631-2.046 1.632.032 1.63 1.366 1.632 2.898 1.632-2.814 1.631 2.98 1.632.175 1.631-.737 1.631.357 1.632-1.265 1.631-.185 1.632.803 1.631-.01 1.632-2.12 1.631-1.884 1.632-.617 1.63 3.473 1.632.435 1.632.712 1.631-.884 1.632-2.315 1.631 3.717 1.632.99 1.631-.671 1.631-.513 1.632.387 1.631-.463 1.632.465 1.631-1.546 1.632-7.413 1.631 5.523 1.631.643 1.632-.16 1.631 1.456 1.632.287 1.631-2.417 1.632 1.974 1.631-.856 1.631 2.416 1.632-3.669 1.631.18 1.632 2.837 1.631 1.317 1.632-2.454 1.631.815 1.631-.237 1.632-.087 1.631.089"/></g><path stroke-width=".8" stroke-linecap="square" stroke-miterlimit="10" fill="none" stroke="#000" d="M57.6 307.584V41.472M414.72 307.584V41.472M57.6 307.584h357.12M57.6 41.472h357.12"/><path d="M307.692 72.622H409.12c1.067 0 1.6-.533 1.6-1.6v-23.95c0-1.067-.533-1.6-1.6-1.6H307.692c-1.067 0-1.6.533-1.6 1.6v23.95c0 1.067.533 1.6 1.6 1.6z" fill="#fff" fill-opacity=".8"/><path stroke-miterlimit="10" fill="none" stroke="#d5d6d5" stroke-opacity=".8" d="M307.692 72.622H409.12c1.067 0 1.6-.533 1.6-1.6v-23.95c0-1.067-.533-1.6-1.6-1.6H307.692c-1.067 0-1.6.533-1.6 1.6v23.95c0 1.067.533 1.6 1.6 1.6z"/><path stroke-width="1.5" stroke-linecap="square" stroke-linejoin="round" fill="none" stroke="#1f77b4" d="M309.292 52.263h16"/><symbol id="w"><path transform="translate(-.012) scale(.001)" d="M777 540 616 0h-99L409 379c-5 16-8 33-9 52h-2c-1-14-5-31-11-51L271 0h-97L12 540h100l108-400c3-12 5-29 7-50h4c1 18 4 35 9 51l116 399h89l113-401c3-12 6-28 8-50h4c0 14 3 31 9 50l106 401h92z"/></symbol><symbol id="x"><path transform="translate(-.085) scale(.001)" d="M542 0h-96v311c0 108-41 163-121 163-42 0-76-16-103-48-28-32-41-72-41-120V0H85v799h96V451h2c41 68 100 102 176 102 122 0 183-74 183-220V0z"/></symbol><symbol id="y"><path transform="matrix(.001 0 0 .001 -.049 .012)" d="M458 24c-42-24-91-36-149-36-78 0-141 25-189 75S49 177 49 257c0 88 25 160 77 214 51 54 120 82 206 82 49 0 91-9 127-27v-94c-38 28-81 42-127 42-55 0-100-19-134-57s-51-89-51-152c0-62 16-111 48-146 32-36 76-53 132-53 46 0 89 15 131 46V24z"/></symbol><use xlink:href="#w" transform="matrix(8 0 0 -8 331.788 55.063)"/><use xlink:href="#i" transform="matrix(8 0 0 -8 338.604 55.063)"/><use xlink:href="#t" transform="matrix(8 0 0 -8 340.316 55.15)"/><use xlink:href="#x" transform="matrix(8 0 0 -8 343.804 55.063)"/><use xlink:href="#k" transform="matrix(8 0 0 -8 348.052 55.063)"/><use xlink:href="#m" transform="matrix(8 0 0 -8 351.1 57.047)"/><use xlink:href="#g" transform="matrix(8 0 0 -8 356.212 55.063)"/><use xlink:href="#l" transform="matrix(8 0 0 -8 358.87 55.159)"/><use xlink:href="#p" transform="matrix(8 0 0 -8 363.406 55.159)"/><use xlink:href="#o" transform="matrix(8 0 0 -8 368.526 55.159)"/><use xlink:href="#i" transform="matrix(8 0 0 -8 373.814 55.063)"/><use xlink:href="#y" transform="matrix(8 0 0 -8 375.743 55.159)"/><use xlink:href="#t" transform="matrix(8 0 0 -8 379.534 55.15)"/><use xlink:href="#i" transform="matrix(8 0 0 -8 382.935 55.063)"/><use xlink:href="#o" transform="matrix(8 0 0 -8 384.863 55.159)"/><use xlink:href="#j" transform="matrix(8 0 0 -8 390.238 55.063)"/><path stroke-width="1.5" stroke-linecap="square" stroke-linejoin="round" fill="none" stroke="#ff7f0e" d="M309.292 64.638h16"/><symbol id="z"><path transform="matrix(.001 0 0 .001 -.075 .012)" d="M531 0h-96v85h-2c-36-65-92-97-166-97C139-12 75 64 75 217v323h94V231c0-110 42-165 126-165 42 0 75 15 101 46s39 70 39 117v311h96V0z"/></symbol><use xlink:href="#w" transform="matrix(8 0 0 -8 331.788 67.438)"/><use xlink:href="#i" transform="matrix(8 0 0 -8 338.604 67.438)"/><use xlink:href="#t" transform="matrix(8 0 0 -8 340.316 67.526)"/><use xlink:href="#x" transform="matrix(8 0 0 -8 343.804 67.438)"/><use xlink:href="#o" transform="matrix(8 0 0 -8 348.444 67.534)"/><use xlink:href="#z" transform="matrix(8 0 0 -8 353.74 67.534)"/><use xlink:href="#t" transform="matrix(8 0 0 -8 358.244 67.526)"/><use xlink:href="#k" transform="matrix(8 0 0 -8 361.052 67.438)"/><use xlink:href="#m" transform="matrix(8 0 0 -8 364.1 69.422)"/><use xlink:href="#g" transform="matrix(8 0 0 -8 369.212 67.438)"/><use xlink:href="#l" transform="matrix(8 0 0 -8 371.87 67.534)"/><use xlink:href="#p" transform="matrix(8 0 0 -8 376.406 67.534)"/><use xlink:href="#o" transform="matrix(8 0 0 -8 381.526 67.534)"/><use xlink:href="#i" transform="matrix(8 0 0 -8 386.815 67.438)"/><use xlink:href="#y" transform="matrix(8 0 0 -8 388.743 67.534)"/><use xlink:href="#t" transform="matrix(8 0 0 -8 392.534 67.526)"/><use xlink:href="#i" transform="matrix(8 0 0 -8 395.935 67.438)"/><use xlink:href="#o" transform="matrix(8 0 0 -8 397.863 67.534)"/><use xlink:href="#j" transform="matrix(8 0 0 -8 403.238 67.438)"/></svg>