<?xml version="1.0" encoding="utf-8" standalone="no"?>
<!DOCTYPE svg PUBLIC "-//W3C//DTD SVG 1.1//EN"
  "http://www.w3.org/Graphics/SVG/1.1/DTD/svg11.dtd">
<svg xmlns:xlink="http://www.w3.org/1999/xlink" width="460.8pt" height="345.6pt" viewBox="0 0 460.8 345.6" xmlns="http://www.w3.org/2000/svg" version="1.1">
 <metadata>
  <rdf:RDF xmlns:dc="http://purl.org/dc/elements/1.1/" xmlns:cc="http://creativecommons.org/ns#" xmlns:rdf="http://www.w3.org/1999/02/22-rdf-syntax-ns#">
   <cc:Work>
    <dc:type rdf:resource="http://purl.org/dc/dcmitype/StillImage"/>
    <dc:date>2024-01-16T18:45:22.115431</dc:date>
    <dc:format>image/svg+xml</dc:format>
    <dc:creator>
     <cc:Agent>
      <dc:title>Matplotlib v3.5.1, https://matplotlib.org/</dc:title>
     </cc:Agent>
    </dc:creator>
   </cc:Work>
  </rdf:RDF>
 </metadata>
 <defs>
  <style type="text/css">*{stroke-linejoin: round; stroke-linecap: butt}</style>
 </defs>
 <g id="figure_1">
  <g id="patch_1">
   <path d="M 0 345.6 
L 460.8 345.6 
L 460.8 0 
L 0 0 
z
" style="fill: #ffffff"/>
  </g>
  <g id="axes_1">
   <g id="patch_2">
    <path d="M 57.6 307.584 
L 414.72 307.584 
L 414.72 41.472 
L 57.6 41.472 
z
" style="fill: #ffffff"/>
   </g>
   <g id="PathCollection_1">
    <defs>
     <path id="m4bc0ce2b1e" d="M 0 0 
L 0 -3.535534 
M 0 0 
L -2.828427 1.767767 
M 0 0 
L 2.828427 1.767767 
" style="stroke: #ff0000; stroke-width: 1.5"/>
    </defs>
    <g clip-path="url(#p73c39185c8)">
     <use xlink:href="#m4bc0ce2b1e" x="97.022338" y="174.528" style="fill: #ff0000; stroke: #ff0000; stroke-width: 1.5"/>
     <use xlink:href="#m4bc0ce2b1e" x="143.401558" y="174.528" style="fill: #ff0000; stroke: #ff0000; stroke-width: 1.5"/>
     <use xlink:href="#m4bc0ce2b1e" x="189.780779" y="174.528" style="fill: #ff0000; stroke: #ff0000; stroke-width: 1.5"/>
     <use xlink:href="#m4bc0ce2b1e" x="236.16" y="174.528" style="fill: #ff0000; stroke: #ff0000; stroke-width: 1.5"/>
     <use xlink:href="#m4bc0ce2b1e" x="282.539221" y="174.528" style="fill: #ff0000; stroke: #ff0000; stroke-width: 1.5"/>
     <use xlink:href="#m4bc0ce2b1e" x="328.918442" y="174.528" style="fill: #ff0000; stroke: #ff0000; stroke-width: 1.5"/>
     <use xlink:href="#m4bc0ce2b1e" x="375.297662" y="174.528" style="fill: #ff0000; stroke: #ff0000; stroke-width: 1.5"/>
    </g>
   </g>
   <g id="patch_3">
    <path d="M 97.022338 209.312416 
C 106.247273 209.312416 115.09562 205.64731 121.618634 199.124296 
C 128.141648 192.601282 131.806753 183.752935 131.806753 174.528 
C 131.806753 165.303065 128.141648 156.454718 121.618634 149.931704 
C 115.09562 143.40869 106.247273 139.743584 97.022338 139.743584 
C 87.797403 139.743584 78.949056 143.40869 72.426042 149.931704 
C 65.903028 156.454718 62.237922 165.303065 62.237922 174.528 
C 62.237922 183.752935 65.903028 192.601282 72.426042 199.124296 
C 78.949056 205.64731 87.797403 209.312416 97.022338 209.312416 
L 97.022338 209.312416 
z
" clip-path="url(#p73c39185c8)" style="fill: none; stroke: #0000ff; stroke-linejoin: miter"/>
   </g>
   <g id="patch_4">
    <path d="M 143.401558 209.312416 
C 152.626493 209.312416 161.474841 205.64731 167.997855 199.124296 
C 174.520869 192.601282 178.185974 183.752935 178.185974 174.528 
C 178.185974 165.303065 174.520869 156.454718 167.997855 149.931704 
C 161.474841 143.40869 152.626493 139.743584 143.401558 139.743584 
C 134.176624 139.743584 125.328276 143.40869 118.805262 149.931704 
C 112.282248 156.454718 108.617143 165.303065 108.617143 174.528 
C 108.617143 183.752935 112.282248 192.601282 118.805262 199.124296 
C 125.328276 205.64731 134.176624 209.312416 143.401558 209.312416 
L 143.401558 209.312416 
z
" clip-path="url(#p73c39185c8)" style="fill: none; stroke: #0000ff; stroke-linejoin: miter"/>
   </g>
   <g id="patch_5">
    <path d="M 189.780779 209.312416 
C 199.005714 209.312416 207.854061 205.64731 214.377075 199.124296 
C 220.900089 192.601282 224.565195 183.752935 224.565195 174.528 
C 224.565195 165.303065 220.900089 156.454718 214.377075 149.931704 
C 207.854061 143.40869 199.005714 139.743584 189.780779 139.743584 
C 180.555844 139.743584 171.707497 143.40869 165.184483 149.931704 
C 158.661469 156.454718 154.996364 165.303065 154.996364 174.528 
C 154.996364 183.752935 158.661469 192.601282 165.184483 199.124296 
C 171.707497 205.64731 180.555844 209.312416 189.780779 209.312416 
L 189.780779 209.312416 
z
" clip-path="url(#p73c39185c8)" style="fill: none; stroke: #0000ff; stroke-linejoin: miter"/>
   </g>
   <g id="patch_6">
    <path d="M 236.16 209.312416 
C 245.384935 209.312416 254.233282 205.64731 260.756296 199.124296 
C 267.27931 192.601282 270.944416 183.752935 270.944416 174.528 
C 270.944416 165.303065 267.27931 156.454718 260.756296 149.931704 
C 254.233282 143.40869 245.384935 139.743584 236.16 139.743584 
C 226.935065 139.743584 218.086718 143.40869 211.563704 149.931704 
C 205.04069 156.454718 201.375584 165.303065 201.375584 174.528 
C 201.375584 183.752935 205.04069 192.601282 211.563704 199.124296 
C 218.086718 205.64731 226.935065 209.312416 236.16 209.312416 
L 236.16 209.312416 
z
" clip-path="url(#p73c39185c8)" style="fill: none; stroke: #0000ff; stroke-linejoin: miter"/>
   </g>
   <g id="patch_7">
    <path d="M 282.539221 209.312416 
C 291.764156 209.312416 300.612503 205.64731 307.135517 199.124296 
C 313.658531 192.601282 317.323636 183.752935 317.323636 174.528 
C 317.323636 165.303065 313.658531 156.454718 307.135517 149.931704 
C 300.612503 143.40869 291.764156 139.743584 282.539221 139.743584 
C 273.314286 139.743584 264.465939 143.40869 257.942925 149.931704 
C 251.419911 156.454718 247.754805 165.303065 247.754805 174.528 
C 247.754805 183.752935 251.419911 192.601282 257.942925 199.124296 
C 264.465939 205.64731 273.314286 209.312416 282.539221 209.312416 
L 282.539221 209.312416 
z
" clip-path="url(#p73c39185c8)" style="fill: none; stroke: #0000ff; stroke-linejoin: miter"/>
   </g>
   <g id="patch_8">
    <path d="M 328.918442 209.312416 
C 338.143376 209.312416 346.991724 205.64731 353.514738 199.124296 
C 360.037752 192.601282 363.702857 183.752935 363.702857 174.528 
C 363.702857 165.303065 360.037752 156.454718 353.514738 149.931704 
C 346.991724 143.40869 338.143376 139.743584 328.918442 139.743584 
C 319.693507 139.743584 310.845159 143.40869 304.322145 149.931704 
C 297.799131 156.454718 294.134026 165.303065 294.134026 174.528 
C 294.134026 183.752935 297.799131 192.601282 304.322145 199.124296 
C 310.845159 205.64731 319.693507 209.312416 328.918442 209.312416 
L 328.918442 209.312416 
z
" clip-path="url(#p73c39185c8)" style="fill: none; stroke: #0000ff; stroke-linejoin: miter"/>
   </g>
   <g id="patch_9">
    <path d="M 375.297662 209.312416 
C 384.522597 209.312416 393.370944 205.64731 399.893958 199.124296 
C 406.416972 192.601282 410.082078 183.752935 410.082078 174.528 
C 410.082078 165.303065 406.416972 156.454718 399.893958 149.931704 
C 393.370944 143.40869 384.522597 139.743584 375.297662 139.743584 
C 366.072727 139.743584 357.22438 143.40869 350.701366 149.931704 
C 344.178352 156.454718 340.513247 165.303065 340.513247 174.528 
C 340.513247 183.752935 344.178352 192.601282 350.701366 199.124296 
C 357.22438 205.64731 366.072727 209.312416 375.297662 209.312416 
L 375.297662 209.312416 
z
" clip-path="url(#p73c39185c8)" style="fill: none; stroke: #0000ff; stroke-linejoin: miter"/>
   </g>
   <g id="PathCollection_2">
    <g clip-path="url(#p73c39185c8)">
     <use xlink:href="#m4bc0ce2b1e" x="97.022338" y="174.528" style="fill: #ff0000; stroke: #ff0000; stroke-width: 1.5"/>
     <use xlink:href="#m4bc0ce2b1e" x="143.401558" y="174.528" style="fill: #ff0000; stroke: #ff0000; stroke-width: 1.5"/>
     <use xlink:href="#m4bc0ce2b1e" x="189.780779" y="174.528" style="fill: #ff0000; stroke: #ff0000; stroke-width: 1.5"/>
     <use xlink:href="#m4bc0ce2b1e" x="236.16" y="174.528" style="fill: #ff0000; stroke: #ff0000; stroke-width: 1.5"/>
     <use xlink:href="#m4bc0ce2b1e" x="282.539221" y="174.528" style="fill: #ff0000; stroke: #ff0000; stroke-width: 1.5"/>
     <use xlink:href="#m4bc0ce2b1e" x="328.918442" y="174.528" style="fill: #ff0000; stroke: #ff0000; stroke-width: 1.5"/>
     <use xlink:href="#m4bc0ce2b1e" x="375.297662" y="174.528" style="fill: #ff0000; stroke: #ff0000; stroke-width: 1.5"/>
    </g>
   </g>
   <g id="matplotlib.axis_1">
    <g id="xtick_1">
     <g id="line2d_1">
      <defs>
       <path id="m1c7c0ae20d" d="M 0 0 
L 0 3.5 
" style="stroke: #000000; stroke-width: 0.8"/>
      </defs>
      <g>
       <use xlink:href="#m1c7c0ae20d" x="73.832727" y="307.584" style="stroke: #000000; stroke-width: 0.8"/>
      </g>
     </g>
     <g id="text_1">
      <!-- 0 -->
      <g transform="translate(70.900696 322.57775)scale(0.1 -0.1)">
       <defs>
        <path id="MicrosoftYaHei-30" d="M 284 2325 
Q 284 3606 709 4264 
Q 1134 4922 1941 4922 
Q 3478 4922 3478 2441 
Q 3478 1216 3045 567 
Q 2613 -81 1831 -81 
Q 1094 -81 689 534 
Q 284 1150 284 2325 
z
M 909 2353 
Q 909 425 1888 425 
Q 2850 425 2850 2384 
Q 2850 4413 1906 4413 
Q 909 4413 909 2353 
z
" transform="scale(0.015625)"/>
       </defs>
       <use xlink:href="#MicrosoftYaHei-30"/>
      </g>
     </g>
    </g>
    <g id="xtick_2">
     <g id="line2d_2">
      <g>
       <use xlink:href="#m1c7c0ae20d" x="97.022338" y="307.584" style="stroke: #000000; stroke-width: 0.8"/>
      </g>
     </g>
     <g id="text_2">
      <!-- 100 -->
      <g transform="translate(88.226244 322.57775)scale(0.1 -0.1)">
       <defs>
        <path id="MicrosoftYaHei-31" d="M 1781 0 
L 1781 4141 
Q 1638 3997 1295 3819 
Q 953 3641 663 3569 
L 663 4169 
Q 1047 4275 1484 4508 
Q 1922 4741 2156 4947 
L 2388 4947 
L 2388 0 
L 1781 0 
z
" transform="scale(0.015625)"/>
       </defs>
       <use xlink:href="#MicrosoftYaHei-31"/>
       <use xlink:href="#MicrosoftYaHei-30" x="58.642578"/>
       <use xlink:href="#MicrosoftYaHei-30" x="117.285156"/>
      </g>
     </g>
    </g>
    <g id="xtick_3">
     <g id="line2d_3">
      <g>
       <use xlink:href="#m1c7c0ae20d" x="120.211948" y="307.584" style="stroke: #000000; stroke-width: 0.8"/>
      </g>
     </g>
     <g id="text_3">
      <!-- 200 -->
      <g transform="translate(111.415854 322.57775)scale(0.1 -0.1)">
       <defs>
        <path id="MicrosoftYaHei-32" d="M 2666 3572 
Q 2666 3963 2419 4186 
Q 2172 4409 1747 4409 
Q 1447 4409 1140 4256 
Q 834 4103 569 3819 
L 569 4413 
Q 806 4659 1107 4790 
Q 1409 4922 1816 4922 
Q 2472 4922 2872 4570 
Q 3272 4219 3272 3619 
Q 3272 3084 3026 2693 
Q 2781 2303 2188 1894 
Q 1581 1475 1376 1294 
Q 1172 1113 1090 947 
Q 1009 781 1009 544 
L 3416 544 
L 3416 0 
L 372 0 
L 372 241 
Q 372 659 486 951 
Q 600 1244 862 1520 
Q 1125 1797 1681 2184 
Q 2250 2584 2458 2886 
Q 2666 3188 2666 3572 
z
" transform="scale(0.015625)"/>
       </defs>
       <use xlink:href="#MicrosoftYaHei-32"/>
       <use xlink:href="#MicrosoftYaHei-30" x="58.642578"/>
       <use xlink:href="#MicrosoftYaHei-30" x="117.285156"/>
      </g>
     </g>
    </g>
    <g id="xtick_4">
     <g id="line2d_4">
      <g>
       <use xlink:href="#m1c7c0ae20d" x="143.401558" y="307.584" style="stroke: #000000; stroke-width: 0.8"/>
      </g>
     </g>
     <g id="text_4">
      <!-- 300 -->
      <g transform="translate(134.605465 322.57775)scale(0.1 -0.1)">
       <defs>
        <path id="MicrosoftYaHei-33" d="M 447 809 
Q 944 425 1569 425 
Q 2069 425 2361 670 
Q 2653 916 2653 1328 
Q 2653 2247 1338 2247 
L 934 2247 
L 934 2753 
L 1319 2753 
Q 2484 2753 2484 3616 
Q 2484 4413 1594 4413 
Q 1084 4413 634 4069 
L 634 4647 
Q 1109 4922 1744 4922 
Q 2363 4922 2738 4598 
Q 3113 4275 3113 3759 
Q 3113 2809 2144 2538 
L 2144 2525 
Q 2669 2469 2973 2155 
Q 3278 1841 3278 1372 
Q 3278 719 2808 319 
Q 2338 -81 1556 -81 
Q 869 -81 447 175 
L 447 809 
z
" transform="scale(0.015625)"/>
       </defs>
       <use xlink:href="#MicrosoftYaHei-33"/>
       <use xlink:href="#MicrosoftYaHei-30" x="58.642578"/>
       <use xlink:href="#MicrosoftYaHei-30" x="117.285156"/>
      </g>
     </g>
    </g>
    <g id="xtick_5">
     <g id="line2d_5">
      <g>
       <use xlink:href="#m1c7c0ae20d" x="166.591169" y="307.584" style="stroke: #000000; stroke-width: 0.8"/>
      </g>
     </g>
     <g id="text_5">
      <!-- 400 -->
      <g transform="translate(157.795075 322.57775)scale(0.1 -0.1)">
       <defs>
        <path id="MicrosoftYaHei-34" d="M 2906 4841 
L 2906 1644 
L 3631 1644 
L 3631 1138 
L 2906 1138 
L 2906 0 
L 2313 0 
L 2313 1138 
L 53 1138 
L 53 1616 
Q 656 2294 1265 3178 
Q 1875 4063 2272 4841 
L 2906 4841 
z
M 741 1644 
L 2313 1644 
L 2313 3950 
Q 1988 3366 1616 2817 
Q 1244 2269 741 1644 
z
" transform="scale(0.015625)"/>
       </defs>
       <use xlink:href="#MicrosoftYaHei-34"/>
       <use xlink:href="#MicrosoftYaHei-30" x="58.642578"/>
       <use xlink:href="#MicrosoftYaHei-30" x="117.285156"/>
      </g>
     </g>
    </g>
    <g id="xtick_6">
     <g id="line2d_6">
      <g>
       <use xlink:href="#m1c7c0ae20d" x="189.780779" y="307.584" style="stroke: #000000; stroke-width: 0.8"/>
      </g>
     </g>
     <g id="text_6">
      <!-- 500 -->
      <g transform="translate(180.984685 322.57775)scale(0.1 -0.1)">
       <defs>
        <path id="MicrosoftYaHei-35" d="M 3294 1494 
Q 3294 784 2823 350 
Q 2353 -84 1559 -84 
Q 878 -84 544 119 
L 544 744 
Q 1034 425 1544 425 
Q 2050 425 2361 704 
Q 2672 984 2672 1447 
Q 2672 1909 2348 2167 
Q 2025 2425 1434 2425 
Q 978 2425 613 2384 
L 791 4841 
L 3053 4841 
L 3053 4303 
L 1306 4303 
L 1206 2931 
L 1647 2950 
Q 2416 2950 2855 2567 
Q 3294 2184 3294 1494 
z
" transform="scale(0.015625)"/>
       </defs>
       <use xlink:href="#MicrosoftYaHei-35"/>
       <use xlink:href="#MicrosoftYaHei-30" x="58.642578"/>
       <use xlink:href="#MicrosoftYaHei-30" x="117.285156"/>
      </g>
     </g>
    </g>
    <g id="xtick_7">
     <g id="line2d_7">
      <g>
       <use xlink:href="#m1c7c0ae20d" x="212.97039" y="307.584" style="stroke: #000000; stroke-width: 0.8"/>
      </g>
     </g>
     <g id="text_7">
      <!-- 600 -->
      <g transform="translate(204.174296 322.57775)scale(0.1 -0.1)">
       <defs>
        <path id="MicrosoftYaHei-36" d="M 3181 4219 
Q 2803 4413 2391 4413 
Q 1763 4413 1381 3866 
Q 1000 3319 994 2372 
L 1009 2372 
Q 1353 3038 2106 3038 
Q 2734 3038 3109 2628 
Q 3484 2219 3484 1541 
Q 3484 831 3051 375 
Q 2619 -81 1947 -81 
Q 1209 -81 789 495 
Q 369 1072 369 2131 
Q 369 3413 920 4167 
Q 1472 4922 2372 4922 
Q 2888 4922 3181 4781 
L 3181 4219 
z
M 1031 1584 
Q 1031 1106 1286 765 
Q 1541 425 1963 425 
Q 2363 425 2613 719 
Q 2863 1013 2863 1475 
Q 2863 1975 2627 2253 
Q 2391 2531 1956 2531 
Q 1544 2531 1287 2250 
Q 1031 1969 1031 1584 
z
" transform="scale(0.015625)"/>
       </defs>
       <use xlink:href="#MicrosoftYaHei-36"/>
       <use xlink:href="#MicrosoftYaHei-30" x="58.642578"/>
       <use xlink:href="#MicrosoftYaHei-30" x="117.285156"/>
      </g>
     </g>
    </g>
    <g id="xtick_8">
     <g id="line2d_8">
      <g>
       <use xlink:href="#m1c7c0ae20d" x="236.16" y="307.584" style="stroke: #000000; stroke-width: 0.8"/>
      </g>
     </g>
     <g id="text_8">
      <!-- 700 -->
      <g transform="translate(227.363906 322.57775)scale(0.1 -0.1)">
       <defs>
        <path id="MicrosoftYaHei-37" d="M 3422 4463 
Q 2659 3131 2223 1998 
Q 1788 866 1684 0 
L 1047 0 
Q 1163 853 1594 1947 
Q 2025 3041 2747 4300 
L 347 4300 
L 347 4841 
L 3422 4841 
L 3422 4463 
z
" transform="scale(0.015625)"/>
       </defs>
       <use xlink:href="#MicrosoftYaHei-37"/>
       <use xlink:href="#MicrosoftYaHei-30" x="58.642578"/>
       <use xlink:href="#MicrosoftYaHei-30" x="117.285156"/>
      </g>
     </g>
    </g>
    <g id="xtick_9">
     <g id="line2d_9">
      <g>
       <use xlink:href="#m1c7c0ae20d" x="259.34961" y="307.584" style="stroke: #000000; stroke-width: 0.8"/>
      </g>
     </g>
     <g id="text_9">
      <!-- 800 -->
      <g transform="translate(250.553517 322.57775)scale(0.1 -0.1)">
       <defs>
        <path id="MicrosoftYaHei-38" d="M 306 1350 
Q 306 1769 556 2122 
Q 806 2475 1200 2625 
Q 884 2803 700 3081 
Q 516 3359 516 3684 
Q 516 4028 692 4312 
Q 869 4597 1183 4759 
Q 1497 4922 1875 4922 
Q 2256 4922 2572 4761 
Q 2888 4600 3063 4315 
Q 3238 4031 3238 3684 
Q 3238 3366 3058 3086 
Q 2878 2806 2559 2625 
Q 2953 2472 3200 2119 
Q 3447 1766 3447 1350 
Q 3447 938 3250 611 
Q 3053 284 2690 103 
Q 2328 -78 1875 -78 
Q 1425 -78 1065 103 
Q 706 284 506 612 
Q 306 941 306 1350 
z
M 906 1378 
Q 906 947 1172 687 
Q 1438 428 1878 428 
Q 2309 428 2582 692 
Q 2856 956 2856 1378 
Q 2856 1778 2579 2051 
Q 2303 2325 1878 2325 
Q 1456 2325 1181 2058 
Q 906 1791 906 1378 
z
M 1081 3634 
Q 1081 3309 1312 3076 
Q 1544 2844 1878 2844 
Q 2206 2844 2445 3078 
Q 2684 3313 2684 3634 
Q 2684 3963 2454 4191 
Q 2225 4419 1878 4419 
Q 1534 4419 1307 4195 
Q 1081 3972 1081 3634 
z
" transform="scale(0.015625)"/>
       </defs>
       <use xlink:href="#MicrosoftYaHei-38"/>
       <use xlink:href="#MicrosoftYaHei-30" x="58.642578"/>
       <use xlink:href="#MicrosoftYaHei-30" x="117.285156"/>
      </g>
     </g>
    </g>
    <g id="xtick_10">
     <g id="line2d_10">
      <g>
       <use xlink:href="#m1c7c0ae20d" x="282.539221" y="307.584" style="stroke: #000000; stroke-width: 0.8"/>
      </g>
     </g>
     <g id="text_10">
      <!-- 900 -->
      <g transform="translate(273.743127 322.57775)scale(0.1 -0.1)">
       <defs>
        <path id="MicrosoftYaHei-39" d="M 578 656 
Q 978 425 1441 425 
Q 2091 425 2448 937 
Q 2806 1450 2806 2394 
Q 2800 2388 2794 2394 
Q 2475 1788 1722 1788 
Q 1113 1788 713 2206 
Q 313 2625 313 3294 
Q 313 4006 750 4464 
Q 1188 4922 1884 4922 
Q 2606 4922 3012 4355 
Q 3419 3788 3419 2703 
Q 3419 1363 2894 641 
Q 2369 -81 1441 -81 
Q 931 -81 578 84 
L 578 656 
z
M 931 3372 
Q 931 2884 1181 2598 
Q 1431 2313 1872 2313 
Q 2253 2313 2512 2573 
Q 2772 2834 2772 3206 
Q 2772 3728 2514 4070 
Q 2256 4413 1834 4413 
Q 1444 4413 1187 4116 
Q 931 3819 931 3372 
z
" transform="scale(0.015625)"/>
       </defs>
       <use xlink:href="#MicrosoftYaHei-39"/>
       <use xlink:href="#MicrosoftYaHei-30" x="58.642578"/>
       <use xlink:href="#MicrosoftYaHei-30" x="117.285156"/>
      </g>
     </g>
    </g>
    <g id="xtick_11">
     <g id="line2d_11">
      <g>
       <use xlink:href="#m1c7c0ae20d" x="305.728831" y="307.584" style="stroke: #000000; stroke-width: 0.8"/>
      </g>
     </g>
     <g id="text_11">
      <!-- 1000 -->
      <g transform="translate(294.000706 322.57775)scale(0.1 -0.1)">
       <use xlink:href="#MicrosoftYaHei-31"/>
       <use xlink:href="#MicrosoftYaHei-30" x="58.642578"/>
       <use xlink:href="#MicrosoftYaHei-30" x="117.285156"/>
       <use xlink:href="#MicrosoftYaHei-30" x="175.927734"/>
      </g>
     </g>
    </g>
    <g id="xtick_12">
     <g id="line2d_12">
      <g>
       <use xlink:href="#m1c7c0ae20d" x="328.918442" y="307.584" style="stroke: #000000; stroke-width: 0.8"/>
      </g>
     </g>
     <g id="text_12">
      <!-- 1100 -->
      <g transform="translate(317.190317 322.57775)scale(0.1 -0.1)">
       <use xlink:href="#MicrosoftYaHei-31"/>
       <use xlink:href="#MicrosoftYaHei-31" x="58.642578"/>
       <use xlink:href="#MicrosoftYaHei-30" x="117.285156"/>
       <use xlink:href="#MicrosoftYaHei-30" x="175.927734"/>
      </g>
     </g>
    </g>
    <g id="xtick_13">
     <g id="line2d_13">
      <g>
       <use xlink:href="#m1c7c0ae20d" x="352.108052" y="307.584" style="stroke: #000000; stroke-width: 0.8"/>
      </g>
     </g>
     <g id="text_13">
      <!-- 1200 -->
      <g transform="translate(340.379927 322.57775)scale(0.1 -0.1)">
       <use xlink:href="#MicrosoftYaHei-31"/>
       <use xlink:href="#MicrosoftYaHei-32" x="58.642578"/>
       <use xlink:href="#MicrosoftYaHei-30" x="117.285156"/>
       <use xlink:href="#MicrosoftYaHei-30" x="175.927734"/>
      </g>
     </g>
    </g>
    <g id="xtick_14">
     <g id="line2d_14">
      <g>
       <use xlink:href="#m1c7c0ae20d" x="375.297662" y="307.584" style="stroke: #000000; stroke-width: 0.8"/>
      </g>
     </g>
     <g id="text_14">
      <!-- 1300 -->
      <g transform="translate(363.569537 322.57775)scale(0.1 -0.1)">
       <use xlink:href="#MicrosoftYaHei-31"/>
       <use xlink:href="#MicrosoftYaHei-33" x="58.642578"/>
       <use xlink:href="#MicrosoftYaHei-30" x="117.285156"/>
       <use xlink:href="#MicrosoftYaHei-30" x="175.927734"/>
      </g>
     </g>
    </g>
    <g id="xtick_15">
     <g id="line2d_15">
      <g>
       <use xlink:href="#m1c7c0ae20d" x="398.487273" y="307.584" style="stroke: #000000; stroke-width: 0.8"/>
      </g>
     </g>
     <g id="text_15">
      <!-- 1400 -->
      <g transform="translate(386.759148 322.57775)scale(0.1 -0.1)">
       <use xlink:href="#MicrosoftYaHei-31"/>
       <use xlink:href="#MicrosoftYaHei-34" x="58.642578"/>
       <use xlink:href="#MicrosoftYaHei-30" x="117.285156"/>
       <use xlink:href="#MicrosoftYaHei-30" x="175.927734"/>
      </g>
     </g>
    </g>
    <g id="text_16">
     <!-- X position (m) -->
     <g style="fill: #0000ff" transform="translate(202.47875 337.057437)scale(0.1 -0.1)">
      <defs>
       <path id="MicrosoftYaHei-58" d="M 4034 0 
L 3275 0 
L 2194 1822 
Q 2156 1884 2084 2072 
L 2069 2072 
Q 2063 2047 1956 1819 
L 844 0 
L 81 0 
L 1691 2431 
L 209 4841 
L 975 4841 
L 1931 3166 
Q 2016 3019 2100 2822 
L 2113 2822 
Q 2188 2991 2297 3181 
L 3297 4841 
L 4013 4841 
L 2500 2441 
L 4034 0 
z
" transform="scale(0.015625)"/>
       <path id="MicrosoftYaHei-20" transform="scale(0.015625)"/>
       <path id="MicrosoftYaHei-70" d="M 1159 488 
L 1159 -1591 
L 547 -1591 
L 547 3456 
L 1159 3456 
L 1159 2859 
L 1172 2859 
Q 1578 3538 2359 3538 
Q 3022 3538 3398 3073 
Q 3775 2609 3775 1828 
Q 3775 966 3348 442 
Q 2922 -81 2200 -81 
Q 1534 -81 1172 488 
L 1159 488 
z
M 1156 1425 
Q 1156 1003 1428 714 
Q 1700 425 2109 425 
Q 2597 425 2872 800 
Q 3147 1175 3147 1838 
Q 3147 2397 2890 2714 
Q 2634 3031 2191 3031 
Q 1738 3031 1447 2709 
Q 1156 2388 1156 1884 
L 1156 1425 
z
" transform="scale(0.015625)"/>
       <path id="MicrosoftYaHei-6f" d="M 316 1691 
Q 316 2547 794 3042 
Q 1272 3538 2091 3538 
Q 2869 3538 3311 3061 
Q 3753 2584 3753 1744 
Q 3753 925 3281 422 
Q 2809 -81 2016 -81 
Q 1241 -81 778 406 
Q 316 894 316 1691 
z
M 941 1709 
Q 941 1113 1242 769 
Q 1544 425 2053 425 
Q 2578 425 2853 761 
Q 3128 1097 3128 1725 
Q 3128 2356 2853 2693 
Q 2578 3031 2053 3031 
Q 1538 3031 1239 2678 
Q 941 2325 941 1709 
z
" transform="scale(0.015625)"/>
       <path id="MicrosoftYaHei-73" d="M 353 747 
Q 816 413 1350 413 
Q 2066 413 2066 881 
Q 2066 1081 1909 1211 
Q 1753 1341 1275 1519 
Q 700 1750 528 1976 
Q 356 2203 356 2525 
Q 356 2984 745 3261 
Q 1134 3538 1703 3538 
Q 2144 3538 2522 3384 
L 2522 2794 
Q 2134 3044 1644 3044 
Q 1350 3044 1165 2916 
Q 981 2788 981 2578 
Q 981 2372 1114 2256 
Q 1247 2141 1703 1959 
Q 2281 1744 2484 1512 
Q 2688 1281 2688 941 
Q 2688 466 2298 192 
Q 1909 -81 1291 -81 
Q 753 -81 353 122 
L 353 747 
z
" transform="scale(0.015625)"/>
       <path id="MicrosoftYaHei-69" d="M 472 4675 
Q 472 4838 583 4948 
Q 694 5059 856 5059 
Q 1022 5059 1136 4950 
Q 1250 4841 1250 4675 
Q 1250 4513 1136 4405 
Q 1022 4297 856 4297 
Q 691 4297 581 4405 
Q 472 4513 472 4675 
z
M 544 0 
L 544 3456 
L 1156 3456 
L 1156 0 
L 544 0 
z
" transform="scale(0.015625)"/>
       <path id="MicrosoftYaHei-74" d="M 2206 34 
Q 2006 -75 1666 -75 
Q 738 -75 738 953 
L 738 2950 
L 144 2950 
L 144 3456 
L 738 3456 
L 738 4288 
L 1347 4481 
L 1347 3456 
L 2206 3456 
L 2206 2950 
L 1347 2950 
L 1347 1063 
Q 1347 722 1462 575 
Q 1578 428 1847 428 
Q 2053 428 2206 544 
L 2206 34 
z
" transform="scale(0.015625)"/>
       <path id="MicrosoftYaHei-6e" d="M 3469 0 
L 2859 0 
L 2859 1966 
Q 2859 3031 2081 3031 
Q 1678 3031 1418 2731 
Q 1159 2431 1159 1972 
L 1159 0 
L 547 0 
L 547 3456 
L 1159 3456 
L 1159 2884 
L 1172 2884 
Q 1563 3538 2306 3538 
Q 2875 3538 3172 3173 
Q 3469 2809 3469 2113 
L 3469 0 
z
" transform="scale(0.015625)"/>
       <path id="MicrosoftYaHei-28" d="M 1531 -1100 
Q 478 100 478 1847 
Q 478 3594 1531 4841 
L 2072 4841 
Q 1016 3544 1016 1853 
Q 1016 166 2066 -1100 
L 1531 -1100 
z
" transform="scale(0.015625)"/>
       <path id="MicrosoftYaHei-6d" d="M 5522 0 
L 4909 0 
L 4909 1984 
Q 4909 2547 4734 2789 
Q 4559 3031 4159 3031 
Q 3822 3031 3581 2715 
Q 3341 2400 3341 1969 
L 3341 0 
L 2728 0 
L 2728 2047 
Q 2728 3031 1969 3031 
Q 1619 3031 1389 2731 
Q 1159 2431 1159 1966 
L 1159 0 
L 547 0 
L 547 3456 
L 1159 3456 
L 1159 2909 
L 1172 2909 
Q 1541 3538 2250 3538 
Q 2597 3538 2862 3347 
Q 3128 3156 3231 2831 
Q 3616 3538 4381 3538 
Q 5522 3538 5522 2131 
L 5522 0 
z
" transform="scale(0.015625)"/>
       <path id="MicrosoftYaHei-29" d="M 78 -1100 
Q 1131 163 1131 1853 
Q 1131 3547 72 4841 
L 616 4841 
Q 1672 3603 1672 1847 
Q 1672 91 616 -1100 
L 78 -1100 
z
" transform="scale(0.015625)"/>
      </defs>
      <use xlink:href="#MicrosoftYaHei-58"/>
      <use xlink:href="#MicrosoftYaHei-20" x="64.501953"/>
      <use xlink:href="#MicrosoftYaHei-70" x="94.091797"/>
      <use xlink:href="#MicrosoftYaHei-6f" x="157.958984"/>
      <use xlink:href="#MicrosoftYaHei-73" x="221.533203"/>
      <use xlink:href="#MicrosoftYaHei-69" x="267.822266"/>
      <use xlink:href="#MicrosoftYaHei-74" x="294.433594"/>
      <use xlink:href="#MicrosoftYaHei-69" x="331.689453"/>
      <use xlink:href="#MicrosoftYaHei-6f" x="358.300781"/>
      <use xlink:href="#MicrosoftYaHei-6e" x="421.875"/>
      <use xlink:href="#MicrosoftYaHei-20" x="483.496094"/>
      <use xlink:href="#MicrosoftYaHei-28" x="513.085938"/>
      <use xlink:href="#MicrosoftYaHei-6d" x="546.484375"/>
      <use xlink:href="#MicrosoftYaHei-29" x="640.185547"/>
     </g>
    </g>
   </g>
   <g id="matplotlib.axis_2">
    <g id="ytick_1">
     <g id="line2d_16">
      <defs>
       <path id="mf724b37bda" d="M 0 0 
L -3.5 0 
" style="stroke: #000000; stroke-width: 0.8"/>
      </defs>
      <g>
       <use xlink:href="#mf724b37bda" x="57.6" y="267.286442" style="stroke: #000000; stroke-width: 0.8"/>
      </g>
     </g>
     <g id="text_17">
      <!-- -400 -->
      <g transform="translate(28.68125 271.283317)scale(0.1 -0.1)">
       <defs>
        <path id="MicrosoftYaHei-2d" d="M 2328 1681 
L 488 1681 
L 488 2153 
L 2328 2153 
L 2328 1681 
z
" transform="scale(0.015625)"/>
       </defs>
       <use xlink:href="#MicrosoftYaHei-2d"/>
       <use xlink:href="#MicrosoftYaHei-34" x="43.261719"/>
       <use xlink:href="#MicrosoftYaHei-30" x="101.904297"/>
       <use xlink:href="#MicrosoftYaHei-30" x="160.546875"/>
      </g>
     </g>
    </g>
    <g id="ytick_2">
     <g id="line2d_17">
      <g>
       <use xlink:href="#mf724b37bda" x="57.6" y="220.907221" style="stroke: #000000; stroke-width: 0.8"/>
      </g>
     </g>
     <g id="text_18">
      <!-- -200 -->
      <g transform="translate(28.68125 224.904096)scale(0.1 -0.1)">
       <use xlink:href="#MicrosoftYaHei-2d"/>
       <use xlink:href="#MicrosoftYaHei-32" x="43.261719"/>
       <use xlink:href="#MicrosoftYaHei-30" x="101.904297"/>
       <use xlink:href="#MicrosoftYaHei-30" x="160.546875"/>
      </g>
     </g>
    </g>
    <g id="ytick_3">
     <g id="line2d_18">
      <g>
       <use xlink:href="#mf724b37bda" x="57.6" y="174.528" style="stroke: #000000; stroke-width: 0.8"/>
      </g>
     </g>
     <g id="text_19">
      <!-- 0 -->
      <g transform="translate(44.735937 178.524875)scale(0.1 -0.1)">
       <use xlink:href="#MicrosoftYaHei-30"/>
      </g>
     </g>
    </g>
    <g id="ytick_4">
     <g id="line2d_19">
      <g>
       <use xlink:href="#mf724b37bda" x="57.6" y="128.148779" style="stroke: #000000; stroke-width: 0.8"/>
      </g>
     </g>
     <g id="text_20">
      <!-- 200 -->
      <g transform="translate(33.007812 132.145654)scale(0.1 -0.1)">
       <use xlink:href="#MicrosoftYaHei-32"/>
       <use xlink:href="#MicrosoftYaHei-30" x="58.642578"/>
       <use xlink:href="#MicrosoftYaHei-30" x="117.285156"/>
      </g>
     </g>
    </g>
    <g id="ytick_5">
     <g id="line2d_20">
      <g>
       <use xlink:href="#mf724b37bda" x="57.6" y="81.769558" style="stroke: #000000; stroke-width: 0.8"/>
      </g>
     </g>
     <g id="text_21">
      <!-- 400 -->
      <g transform="translate(33.007812 85.766433)scale(0.1 -0.1)">
       <use xlink:href="#MicrosoftYaHei-34"/>
       <use xlink:href="#MicrosoftYaHei-30" x="58.642578"/>
       <use xlink:href="#MicrosoftYaHei-30" x="117.285156"/>
      </g>
     </g>
    </g>
    <g id="text_22">
     <!-- Y position (m) -->
     <g style="fill: #0000ff" transform="translate(22.195312 208.002219)rotate(-90)scale(0.1 -0.1)">
      <defs>
       <path id="MicrosoftYaHei-59" d="M 3828 4841 
L 2234 1781 
L 2234 0 
L 1606 0 
L 1606 1766 
L 53 4841 
L 769 4841 
L 1816 2697 
Q 1819 2694 1931 2388 
L 1941 2388 
Q 1978 2519 2069 2694 
L 3163 4841 
L 3828 4841 
z
" transform="scale(0.015625)"/>
      </defs>
      <use xlink:href="#MicrosoftYaHei-59"/>
      <use xlink:href="#MicrosoftYaHei-20" x="60.351562"/>
      <use xlink:href="#MicrosoftYaHei-70" x="89.941406"/>
      <use xlink:href="#MicrosoftYaHei-6f" x="153.808594"/>
      <use xlink:href="#MicrosoftYaHei-73" x="217.382812"/>
      <use xlink:href="#MicrosoftYaHei-69" x="263.671875"/>
      <use xlink:href="#MicrosoftYaHei-74" x="290.283203"/>
      <use xlink:href="#MicrosoftYaHei-69" x="327.539062"/>
      <use xlink:href="#MicrosoftYaHei-6f" x="354.150391"/>
      <use xlink:href="#MicrosoftYaHei-6e" x="417.724609"/>
      <use xlink:href="#MicrosoftYaHei-20" x="479.345703"/>
      <use xlink:href="#MicrosoftYaHei-28" x="508.935547"/>
      <use xlink:href="#MicrosoftYaHei-6d" x="542.333984"/>
      <use xlink:href="#MicrosoftYaHei-29" x="636.035156"/>
     </g>
    </g>
   </g>
   <g id="line2d_21">
    <defs>
     <path id="mc65cc6319e" d="M 1.5 0 
L -1.5 -1.5 
L -1.5 1.5 
z
" style="stroke: #00bfbf; stroke-linejoin: miter"/>
    </defs>
    <g clip-path="url(#p73c39185c8)">
     <use xlink:href="#mc65cc6319e" x="124.84987" y="174.528" style="fill: #00bfbf; stroke: #00bfbf; stroke-linejoin: miter"/>
     <use xlink:href="#mc65cc6319e" x="171.229091" y="174.528" style="fill: #00bfbf; stroke: #00bfbf; stroke-linejoin: miter"/>
     <use xlink:href="#mc65cc6319e" x="217.608312" y="174.528" style="fill: #00bfbf; stroke: #00bfbf; stroke-linejoin: miter"/>
     <use xlink:href="#mc65cc6319e" x="263.987532" y="174.528" style="fill: #00bfbf; stroke: #00bfbf; stroke-linejoin: miter"/>
     <use xlink:href="#mc65cc6319e" x="310.366753" y="174.528" style="fill: #00bfbf; stroke: #00bfbf; stroke-linejoin: miter"/>
     <use xlink:href="#mc65cc6319e" x="356.745974" y="174.528" style="fill: #00bfbf; stroke: #00bfbf; stroke-linejoin: miter"/>
    </g>
   </g>
   <g id="line2d_22">
    <defs>
     <path id="mfc79b8b76a" d="M 0 -1.5 
L -1.5 1.5 
L 1.5 1.5 
z
" style="stroke: #00bfbf; stroke-linejoin: miter"/>
    </defs>
    <g clip-path="url(#p73c39185c8)">
     <use xlink:href="#mfc79b8b76a" x="73.832727" y="174.528" style="fill: #00bfbf; stroke: #00bfbf; stroke-linejoin: miter"/>
     <use xlink:href="#mfc79b8b76a" x="127.168831" y="174.528" style="fill: #00bfbf; stroke: #00bfbf; stroke-linejoin: miter"/>
     <use xlink:href="#mfc79b8b76a" x="173.548052" y="174.528" style="fill: #00bfbf; stroke: #00bfbf; stroke-linejoin: miter"/>
     <use xlink:href="#mfc79b8b76a" x="219.927273" y="174.528" style="fill: #00bfbf; stroke: #00bfbf; stroke-linejoin: miter"/>
     <use xlink:href="#mfc79b8b76a" x="266.306494" y="174.528" style="fill: #00bfbf; stroke: #00bfbf; stroke-linejoin: miter"/>
     <use xlink:href="#mfc79b8b76a" x="312.685714" y="174.528" style="fill: #00bfbf; stroke: #00bfbf; stroke-linejoin: miter"/>
     <use xlink:href="#mfc79b8b76a" x="359.064935" y="174.528" style="fill: #00bfbf; stroke: #00bfbf; stroke-linejoin: miter"/>
    </g>
   </g>
   <g id="line2d_23">
    <path d="M 73.832727 174.528 
L 398.487273 174.528 
" clip-path="url(#p73c39185c8)" style="fill: none; stroke: #00bfbf; stroke-width: 1.5; stroke-linecap: square"/>
   </g>
   <g id="patch_10">
    <path d="M 57.6 307.584 
L 57.6 41.472 
" style="fill: none; stroke: #000000; stroke-width: 0.8; stroke-linejoin: miter; stroke-linecap: square"/>
   </g>
   <g id="patch_11">
    <path d="M 414.72 307.584 
L 414.72 41.472 
" style="fill: none; stroke: #000000; stroke-width: 0.8; stroke-linejoin: miter; stroke-linecap: square"/>
   </g>
   <g id="patch_12">
    <path d="M 57.6 307.584 
L 414.72 307.584 
" style="fill: none; stroke: #000000; stroke-width: 0.8; stroke-linejoin: miter; stroke-linecap: square"/>
   </g>
   <g id="patch_13">
    <path d="M 57.6 41.472 
L 414.72 41.472 
" style="fill: none; stroke: #000000; stroke-width: 0.8; stroke-linejoin: miter; stroke-linecap: square"/>
   </g>
   <g id="text_23">
    <!-- [21] -->
    <g style="fill: #ff0000" transform="translate(97.022338 172.787844)scale(0.07 -0.07)">
     <defs>
      <path id="MicrosoftYaHei-5b" d="M 1959 -1100 
L 681 -1100 
L 681 4841 
L 1959 4841 
L 1959 4406 
L 1219 4406 
L 1219 -669 
L 1959 -669 
L 1959 -1100 
z
" transform="scale(0.015625)"/>
      <path id="MicrosoftYaHei-5d" d="M 1466 -1100 
L 184 -1100 
L 184 -669 
L 928 -669 
L 928 4406 
L 184 4406 
L 184 4841 
L 1466 4841 
L 1466 -1100 
z
" transform="scale(0.015625)"/>
     </defs>
     <use xlink:href="#MicrosoftYaHei-5b"/>
     <use xlink:href="#MicrosoftYaHei-32" x="33.398438"/>
     <use xlink:href="#MicrosoftYaHei-31" x="92.041016"/>
     <use xlink:href="#MicrosoftYaHei-5d" x="150.683594"/>
    </g>
   </g>
   <g id="text_24">
    <!-- [22] -->
    <g style="fill: #ff0000" transform="translate(143.401558 172.787844)scale(0.07 -0.07)">
     <use xlink:href="#MicrosoftYaHei-5b"/>
     <use xlink:href="#MicrosoftYaHei-32" x="33.398438"/>
     <use xlink:href="#MicrosoftYaHei-32" x="92.041016"/>
     <use xlink:href="#MicrosoftYaHei-5d" x="150.683594"/>
    </g>
   </g>
   <g id="text_25">
    <!-- [23] -->
    <g style="fill: #ff0000" transform="translate(189.780779 172.787844)scale(0.07 -0.07)">
     <use xlink:href="#MicrosoftYaHei-5b"/>
     <use xlink:href="#MicrosoftYaHei-32" x="33.398438"/>
     <use xlink:href="#MicrosoftYaHei-33" x="92.041016"/>
     <use xlink:href="#MicrosoftYaHei-5d" x="150.683594"/>
    </g>
   </g>
   <g id="text_26">
    <!-- [24] -->
    <g style="fill: #ff0000" transform="translate(236.16 172.787844)scale(0.07 -0.07)">
     <use xlink:href="#MicrosoftYaHei-5b"/>
     <use xlink:href="#MicrosoftYaHei-32" x="33.398438"/>
     <use xlink:href="#MicrosoftYaHei-34" x="92.041016"/>
     <use xlink:href="#MicrosoftYaHei-5d" x="150.683594"/>
    </g>
   </g>
   <g id="text_27">
    <!-- [25] -->
    <g style="fill: #ff0000" transform="translate(282.539221 172.787844)scale(0.07 -0.07)">
     <use xlink:href="#MicrosoftYaHei-5b"/>
     <use xlink:href="#MicrosoftYaHei-32" x="33.398438"/>
     <use xlink:href="#MicrosoftYaHei-35" x="92.041016"/>
     <use xlink:href="#MicrosoftYaHei-5d" x="150.683594"/>
    </g>
   </g>
   <g id="text_28">
    <!-- [26] -->
    <g style="fill: #ff0000" transform="translate(328.918442 172.787844)scale(0.07 -0.07)">
     <use xlink:href="#MicrosoftYaHei-5b"/>
     <use xlink:href="#MicrosoftYaHei-32" x="33.398438"/>
     <use xlink:href="#MicrosoftYaHei-36" x="92.041016"/>
     <use xlink:href="#MicrosoftYaHei-5d" x="150.683594"/>
    </g>
   </g>
   <g id="text_29">
    <!-- [27] -->
    <g style="fill: #ff0000" transform="translate(375.297662 172.787844)scale(0.07 -0.07)">
     <use xlink:href="#MicrosoftYaHei-5b"/>
     <use xlink:href="#MicrosoftYaHei-32" x="33.398438"/>
     <use xlink:href="#MicrosoftYaHei-37" x="92.041016"/>
     <use xlink:href="#MicrosoftYaHei-5d" x="150.683594"/>
    </g>
   </g>
   <g id="text_30">
    <!-- 21 -->
    <g transform="translate(69.727884 180.123625)scale(0.07 -0.07)">
     <use xlink:href="#MicrosoftYaHei-32"/>
     <use xlink:href="#MicrosoftYaHei-31" x="58.642578"/>
    </g>
   </g>
   <g id="text_31">
    <!-- 22 -->
    <g transform="translate(123.063987 180.123625)scale(0.07 -0.07)">
     <use xlink:href="#MicrosoftYaHei-32"/>
     <use xlink:href="#MicrosoftYaHei-32" x="58.642578"/>
    </g>
   </g>
   <g id="text_32">
    <!-- 23 -->
    <g transform="translate(169.443208 180.123625)scale(0.07 -0.07)">
     <use xlink:href="#MicrosoftYaHei-32"/>
     <use xlink:href="#MicrosoftYaHei-33" x="58.642578"/>
    </g>
   </g>
   <g id="text_33">
    <!-- 24 -->
    <g transform="translate(215.822429 180.123625)scale(0.07 -0.07)">
     <use xlink:href="#MicrosoftYaHei-32"/>
     <use xlink:href="#MicrosoftYaHei-34" x="58.642578"/>
    </g>
   </g>
   <g id="text_34">
    <!-- 25 -->
    <g transform="translate(262.20165 180.123625)scale(0.07 -0.07)">
     <use xlink:href="#MicrosoftYaHei-32"/>
     <use xlink:href="#MicrosoftYaHei-35" x="58.642578"/>
    </g>
   </g>
   <g id="text_35">
    <!-- 26 -->
    <g transform="translate(308.580871 180.123625)scale(0.07 -0.07)">
     <use xlink:href="#MicrosoftYaHei-32"/>
     <use xlink:href="#MicrosoftYaHei-36" x="58.642578"/>
    </g>
   </g>
   <g id="text_36">
    <!-- 27 -->
    <g transform="translate(354.960091 180.123625)scale(0.07 -0.07)">
     <use xlink:href="#MicrosoftYaHei-32"/>
     <use xlink:href="#MicrosoftYaHei-37" x="58.642578"/>
    </g>
   </g>
   <g id="text_37">
    <!-- 21 -->
    <g transform="translate(120.745026 172.787844)scale(0.07 -0.07)">
     <use xlink:href="#MicrosoftYaHei-32"/>
     <use xlink:href="#MicrosoftYaHei-31" x="58.642578"/>
    </g>
   </g>
   <g id="text_38">
    <!-- 22 -->
    <g transform="translate(167.124247 172.787844)scale(0.07 -0.07)">
     <use xlink:href="#MicrosoftYaHei-32"/>
     <use xlink:href="#MicrosoftYaHei-32" x="58.642578"/>
    </g>
   </g>
   <g id="text_39">
    <!-- 23 -->
    <g transform="translate(213.503468 172.787844)scale(0.07 -0.07)">
     <use xlink:href="#MicrosoftYaHei-32"/>
     <use xlink:href="#MicrosoftYaHei-33" x="58.642578"/>
    </g>
   </g>
   <g id="text_40">
    <!-- 24 -->
    <g transform="translate(259.882689 172.787844)scale(0.07 -0.07)">
     <use xlink:href="#MicrosoftYaHei-32"/>
     <use xlink:href="#MicrosoftYaHei-34" x="58.642578"/>
    </g>
   </g>
   <g id="text_41">
    <!-- 25 -->
    <g transform="translate(306.261909 172.787844)scale(0.07 -0.07)">
     <use xlink:href="#MicrosoftYaHei-32"/>
     <use xlink:href="#MicrosoftYaHei-35" x="58.642578"/>
    </g>
   </g>
   <g id="text_42">
    <!-- 26 -->
    <g transform="translate(352.64113 172.787844)scale(0.07 -0.07)">
     <use xlink:href="#MicrosoftYaHei-32"/>
     <use xlink:href="#MicrosoftYaHei-36" x="58.642578"/>
    </g>
   </g>
  </g>
  <g id="axes_2">
   <g id="matplotlib.axis_3">
    <g id="ytick_6">
     <g id="line2d_24">
      <defs>
       <path id="mb5f661ff6a" d="M 0 0 
L 3.5 0 
" style="stroke: #000000; stroke-width: 0.8"/>
      </defs>
      <g>
       <use xlink:href="#mb5f661ff6a" x="414.72" y="280.276756" style="stroke: #000000; stroke-width: 0.8"/>
      </g>
     </g>
     <g id="text_43">
      <!-- -80 -->
      <g transform="translate(421.72 284.273631)scale(0.1 -0.1)">
       <use xlink:href="#MicrosoftYaHei-2d"/>
       <use xlink:href="#MicrosoftYaHei-38" x="43.261719"/>
       <use xlink:href="#MicrosoftYaHei-30" x="101.904297"/>
      </g>
     </g>
    </g>
    <g id="ytick_7">
     <g id="line2d_25">
      <g>
       <use xlink:href="#mb5f661ff6a" x="414.72" y="244.085873" style="stroke: #000000; stroke-width: 0.8"/>
      </g>
     </g>
     <g id="text_44">
      <!-- -60 -->
      <g transform="translate(421.72 248.082748)scale(0.1 -0.1)">
       <use xlink:href="#MicrosoftYaHei-2d"/>
       <use xlink:href="#MicrosoftYaHei-36" x="43.261719"/>
       <use xlink:href="#MicrosoftYaHei-30" x="101.904297"/>
      </g>
     </g>
    </g>
    <g id="ytick_8">
     <g id="line2d_26">
      <g>
       <use xlink:href="#mb5f661ff6a" x="414.72" y="207.89499" style="stroke: #000000; stroke-width: 0.8"/>
      </g>
     </g>
     <g id="text_45">
      <!-- -40 -->
      <g transform="translate(421.72 211.891865)scale(0.1 -0.1)">
       <use xlink:href="#MicrosoftYaHei-2d"/>
       <use xlink:href="#MicrosoftYaHei-34" x="43.261719"/>
       <use xlink:href="#MicrosoftYaHei-30" x="101.904297"/>
      </g>
     </g>
    </g>
    <g id="ytick_9">
     <g id="line2d_27">
      <g>
       <use xlink:href="#mb5f661ff6a" x="414.72" y="171.704107" style="stroke: #000000; stroke-width: 0.8"/>
      </g>
     </g>
     <g id="text_46">
      <!-- -20 -->
      <g transform="translate(421.72 175.700982)scale(0.1 -0.1)">
       <use xlink:href="#MicrosoftYaHei-2d"/>
       <use xlink:href="#MicrosoftYaHei-32" x="43.261719"/>
       <use xlink:href="#MicrosoftYaHei-30" x="101.904297"/>
      </g>
     </g>
    </g>
    <g id="ytick_10">
     <g id="line2d_28">
      <g>
       <use xlink:href="#mb5f661ff6a" x="414.72" y="135.513224" style="stroke: #000000; stroke-width: 0.8"/>
      </g>
     </g>
     <g id="text_47">
      <!-- 0 -->
      <g transform="translate(421.72 139.510099)scale(0.1 -0.1)">
       <use xlink:href="#MicrosoftYaHei-30"/>
      </g>
     </g>
    </g>
    <g id="ytick_11">
     <g id="line2d_29">
      <g>
       <use xlink:href="#mb5f661ff6a" x="414.72" y="99.322341" style="stroke: #000000; stroke-width: 0.8"/>
      </g>
     </g>
     <g id="text_48">
      <!-- 20 -->
      <g transform="translate(421.72 103.319216)scale(0.1 -0.1)">
       <use xlink:href="#MicrosoftYaHei-32"/>
       <use xlink:href="#MicrosoftYaHei-30" x="58.642578"/>
      </g>
     </g>
    </g>
    <g id="ytick_12">
     <g id="line2d_30">
      <g>
       <use xlink:href="#mb5f661ff6a" x="414.72" y="63.131458" style="stroke: #000000; stroke-width: 0.8"/>
      </g>
     </g>
     <g id="text_49">
      <!-- 40 -->
      <g transform="translate(421.72 67.128333)scale(0.1 -0.1)">
       <use xlink:href="#MicrosoftYaHei-34"/>
       <use xlink:href="#MicrosoftYaHei-30" x="58.642578"/>
      </g>
     </g>
    </g>
    <g id="text_50">
     <!-- SINR (dB) and RSRP (dBm) -->
     <g style="fill: #008000" transform="translate(449.768438 237.686594)rotate(-90)scale(0.1 -0.1)">
      <defs>
       <path id="MicrosoftYaHei-53" d="M 400 909 
Q 622 716 994 591 
Q 1366 466 1700 466 
Q 2719 466 2719 1191 
Q 2719 1394 2609 1556 
Q 2500 1719 2309 1844 
Q 2119 1969 1594 2228 
Q 866 2591 634 2902 
Q 403 3213 403 3613 
Q 403 4216 887 4569 
Q 1372 4922 2109 4922 
Q 2831 4922 3169 4747 
L 3169 4066 
Q 2731 4369 2063 4369 
Q 1619 4369 1339 4183 
Q 1059 3997 1059 3666 
Q 1059 3372 1253 3187 
Q 1447 3003 2094 2684 
Q 2806 2344 3090 2003 
Q 3375 1663 3375 1238 
Q 3375 600 2912 259 
Q 2450 -81 1628 -81 
Q 1341 -81 958 -1 
Q 575 78 400 197 
L 400 909 
z
" transform="scale(0.015625)"/>
       <path id="MicrosoftYaHei-49" d="M 1250 4841 
L 1250 0 
L 625 0 
L 625 4841 
L 1250 4841 
z
" transform="scale(0.015625)"/>
       <path id="MicrosoftYaHei-4e" d="M 4578 0 
L 3838 0 
L 1403 3766 
Q 1300 3925 1238 4081 
L 1219 4081 
Q 1244 3919 1244 3403 
L 1244 0 
L 625 0 
L 625 4841 
L 1409 4841 
L 3778 1141 
Q 3947 878 3978 806 
L 3991 806 
Q 3959 1013 3959 1513 
L 3959 4841 
L 4578 4841 
L 4578 0 
z
" transform="scale(0.015625)"/>
       <path id="MicrosoftYaHei-52" d="M 4159 0 
L 3422 0 
L 2619 1344 
Q 2378 1747 2178 1892 
Q 1978 2038 1700 2038 
L 1250 2038 
L 1250 0 
L 625 0 
L 625 4841 
L 2100 4841 
Q 2806 4841 3206 4500 
Q 3606 4159 3606 3547 
Q 3606 2541 2531 2241 
L 2531 2225 
Q 2731 2141 2876 1984 
Q 3022 1828 3253 1450 
L 4159 0 
z
M 1250 4294 
L 1250 2584 
L 1988 2584 
Q 2416 2584 2683 2834 
Q 2950 3084 2950 3491 
Q 2950 3869 2706 4081 
Q 2463 4294 1997 4294 
L 1250 4294 
z
" transform="scale(0.015625)"/>
       <path id="MicrosoftYaHei-64" d="M 3547 0 
L 2934 0 
L 2934 575 
L 2922 575 
Q 2544 -81 1747 -81 
Q 1091 -81 703 386 
Q 316 853 316 1647 
Q 316 2503 753 3020 
Q 1191 3538 1897 3538 
Q 2603 3538 2922 2988 
L 2934 2988 
L 2934 5116 
L 3547 5116 
L 3547 0 
z
M 2938 2056 
Q 2938 2472 2664 2751 
Q 2391 3031 1991 3031 
Q 1503 3031 1222 2667 
Q 941 2303 941 1675 
Q 941 1097 1211 761 
Q 1481 425 1931 425 
Q 2375 425 2656 754 
Q 2938 1084 2938 1575 
L 2938 2056 
z
" transform="scale(0.015625)"/>
       <path id="MicrosoftYaHei-42" d="M 625 0 
L 625 4841 
L 2047 4841 
Q 2684 4841 3065 4536 
Q 3447 4231 3447 3728 
Q 3447 3328 3220 3022 
Q 2994 2716 2597 2588 
L 2597 2575 
Q 3091 2519 3386 2201 
Q 3681 1884 3681 1397 
Q 3681 772 3232 386 
Q 2784 0 2084 0 
L 625 0 
z
M 1250 4294 
L 1250 2778 
L 1819 2778 
Q 2272 2778 2530 2998 
Q 2788 3219 2788 3609 
Q 2788 4294 1875 4294 
L 1250 4294 
z
M 1250 2234 
L 1250 547 
L 2000 547 
Q 2491 547 2758 773 
Q 3025 1000 3025 1403 
Q 3025 2234 1897 2234 
L 1250 2234 
z
" transform="scale(0.015625)"/>
       <path id="MicrosoftYaHei-61" d="M 628 3216 
Q 1144 3538 1819 3538 
Q 3069 3538 3069 2225 
L 3069 0 
L 2463 0 
L 2463 534 
L 2447 534 
Q 2088 -81 1388 -81 
Q 884 -81 587 191 
Q 291 463 291 925 
Q 291 1894 1438 2053 
L 2463 2197 
Q 2463 3044 1763 3044 
Q 1141 3044 628 2625 
L 628 3216 
z
M 1653 1625 
Q 1228 1569 1067 1412 
Q 906 1256 906 975 
Q 906 728 1081 572 
Q 1256 416 1544 416 
Q 1944 416 2203 697 
Q 2463 978 2463 1403 
L 2463 1734 
L 1653 1625 
z
" transform="scale(0.015625)"/>
       <path id="MicrosoftYaHei-50" d="M 1250 1809 
L 1250 0 
L 625 0 
L 625 4841 
L 2000 4841 
Q 2784 4841 3217 4462 
Q 3650 4084 3650 3381 
Q 3650 2669 3144 2226 
Q 2638 1784 1878 1809 
L 1250 1809 
z
M 1250 4291 
L 1250 2359 
L 1828 2359 
Q 2400 2359 2697 2617 
Q 2994 2875 2994 3356 
Q 2994 4291 1888 4291 
L 1250 4291 
z
" transform="scale(0.015625)"/>
      </defs>
      <use xlink:href="#MicrosoftYaHei-53"/>
      <use xlink:href="#MicrosoftYaHei-49" x="57.714844"/>
      <use xlink:href="#MicrosoftYaHei-4e" x="87.109375"/>
      <use xlink:href="#MicrosoftYaHei-52" x="168.408203"/>
      <use xlink:href="#MicrosoftYaHei-20" x="233.691406"/>
      <use xlink:href="#MicrosoftYaHei-28" x="263.28125"/>
      <use xlink:href="#MicrosoftYaHei-64" x="296.679688"/>
      <use xlink:href="#MicrosoftYaHei-42" x="360.644531"/>
      <use xlink:href="#MicrosoftYaHei-29" x="423.388672"/>
      <use xlink:href="#MicrosoftYaHei-20" x="456.787109"/>
      <use xlink:href="#MicrosoftYaHei-61" x="486.376953"/>
      <use xlink:href="#MicrosoftYaHei-6e" x="541.650391"/>
      <use xlink:href="#MicrosoftYaHei-64" x="603.271484"/>
      <use xlink:href="#MicrosoftYaHei-20" x="667.236328"/>
      <use xlink:href="#MicrosoftYaHei-52" x="696.826172"/>
      <use xlink:href="#MicrosoftYaHei-53" x="762.109375"/>
      <use xlink:href="#MicrosoftYaHei-52" x="819.824219"/>
      <use xlink:href="#MicrosoftYaHei-50" x="885.107422"/>
      <use xlink:href="#MicrosoftYaHei-20" x="946.289062"/>
      <use xlink:href="#MicrosoftYaHei-28" x="975.878906"/>
      <use xlink:href="#MicrosoftYaHei-64" x="1009.277344"/>
      <use xlink:href="#MicrosoftYaHei-42" x="1073.242188"/>
      <use xlink:href="#MicrosoftYaHei-6d" x="1135.986328"/>
      <use xlink:href="#MicrosoftYaHei-29" x="1229.6875"/>
     </g>
    </g>
   </g>
   <g id="line2d_31">
    <path d="M 73.832727 278.983606 
L 74.292578 282.500339 
L 74.752429 282.875591 
L 75.212279 274.744396 
L 75.67213 278.064506 
L 76.13198 282.222219 
L 76.591831 274.509837 
L 77.051682 274.324288 
L 77.511532 273.586047 
L 77.971383 277.676704 
L 78.431234 274.106761 
L 78.891084 274.1452 
L 79.350935 270.796471 
L 79.810785 272.51158 
L 80.270636 267.871332 
L 80.730487 266.497936 
L 81.190337 268.249802 
L 81.650188 257.388973 
L 82.110039 269.741127 
L 82.569889 267.888445 
L 83.02974 268.130378 
L 83.489591 260.281579 
L 83.949441 263.806574 
L 84.409292 264.859849 
L 84.869142 266.245047 
L 85.328993 260.192248 
L 85.788844 264.327985 
L 86.248694 253.820087 
L 86.708545 252.086072 
L 87.628246 257.129494 
L 88.088097 251.407176 
L 88.547947 250.569056 
L 89.007798 241.725213 
L 89.467649 248.553872 
L 89.927499 248.089376 
L 90.38735 243.279432 
L 90.847201 232.99882 
L 91.307051 232.221066 
L 91.766902 237.952593 
L 92.226753 230.57016 
L 92.686603 230.29601 
L 93.146454 229.121347 
L 93.606304 232.163348 
L 94.066155 218.47461 
L 94.526006 216.37384 
L 94.985856 215.853585 
L 95.445707 213.767344 
L 95.905558 215.115088 
L 96.365408 206.792961 
L 96.825259 207.090641 
L 97.285109 210.801468 
L 97.74496 211.201373 
L 98.204811 216.845013 
L 98.664661 229.256351 
L 99.124512 227.160314 
L 99.584363 230.337457 
L 100.044213 228.081605 
L 100.504064 242.701682 
L 100.963914 239.621048 
L 101.423765 239.68422 
L 101.883616 241.960668 
L 102.803317 248.255346 
L 103.263168 248.848345 
L 103.723018 251.12249 
L 104.182869 250.917949 
L 104.64272 256.67217 
L 105.10257 255.217652 
L 105.562421 260.833647 
L 106.022271 248.928638 
L 106.482122 257.734067 
L 106.941973 259.061981 
L 107.401823 255.237766 
L 107.861674 263.075606 
L 108.321525 259.38637 
L 108.781375 264.371424 
L 109.241226 265.450637 
L 110.160927 263.21376 
L 110.620778 270.700525 
L 111.080628 268.925024 
L 111.540479 265.381764 
L 112.00033 269.689309 
L 112.46018 268.068783 
L 112.920031 277.278768 
L 113.379882 276.13289 
L 113.839732 269.209852 
L 114.299583 276.120903 
L 114.759433 274.458006 
L 115.219284 268.314203 
L 115.679135 274.977266 
L 116.138985 273.009922 
L 116.598836 281.653791 
L 117.058687 275.340965 
L 117.518537 274.767981 
L 118.438238 280.851075 
L 118.898089 281.734423 
L 119.35794 283.532534 
L 119.81779 275.309843 
L 120.277641 279.171333 
L 121.197342 282.717566 
L 121.657193 280.307762 
L 122.117044 288.070313 
L 122.576894 280.265145 
L 123.036745 284.685224 
L 123.496595 285.332876 
L 123.956446 282.012912 
L 124.416297 282.0154 
L 124.876147 295.064602 
L 125.335998 289.987231 
L 125.795849 295.488 
L 126.255699 289.348896 
L 126.71555 290.2168 
L 127.1754 273.52911 
L 127.635251 264.380749 
L 128.095102 275.189814 
L 128.554952 271.677861 
L 129.014803 270.034139 
L 129.474654 271.877417 
L 129.934504 263.469517 
L 130.854206 260.108795 
L 131.314056 261.986828 
L 131.773907 253.372585 
L 132.233757 258.401502 
L 132.693608 254.50833 
L 133.613309 257.755559 
L 134.07316 256.183084 
L 134.533011 252.267783 
L 134.992861 249.564527 
L 135.452712 253.761497 
L 135.912562 239.4027 
L 136.372413 243.850802 
L 136.832264 241.53623 
L 137.751965 245.392151 
L 138.211816 237.964732 
L 138.671666 237.968065 
L 139.131517 232.156629 
L 139.591367 229.19013 
L 140.051218 231.574761 
L 140.511069 217.127519 
L 140.970919 217.272458 
L 141.43077 215.95776 
L 141.890621 214.248347 
L 142.350471 217.333648 
L 142.810322 206.117218 
L 143.270173 204.533076 
L 143.730023 215.074522 
L 144.649724 222.412019 
L 145.109575 221.753655 
L 145.569426 232.467477 
L 146.029276 231.194968 
L 146.489127 235.350669 
L 146.948978 230.669423 
L 147.408828 235.345574 
L 147.868679 236.511282 
L 148.328529 235.920567 
L 148.78838 236.870671 
L 149.248231 246.472418 
L 149.708081 248.431298 
L 150.167932 251.955421 
L 150.627783 251.057229 
L 151.087633 249.708025 
L 151.547484 260.751308 
L 152.007335 248.592043 
L 152.467185 252.657561 
L 152.927036 257.814017 
L 153.386886 258.2004 
L 153.846737 258.813537 
L 154.306588 259.078946 
L 154.766438 257.912553 
L 155.226289 260.129792 
L 155.68614 265.31783 
L 156.14599 267.946579 
L 156.605841 265.922602 
L 157.065691 263.189958 
L 157.525542 274.673365 
L 158.445243 268.172424 
L 158.905094 274.284494 
L 159.364945 275.984609 
L 159.824795 275.08206 
L 160.284646 271.983664 
L 160.744497 273.45587 
L 161.204347 276.169282 
L 161.664198 273.985863 
L 162.124048 274.080487 
L 162.583899 271.199958 
L 163.04375 280.488469 
L 163.5036 276.314294 
L 163.963451 277.802982 
L 164.423302 278.656227 
L 164.883152 280.640056 
L 165.343003 283.267934 
L 165.802853 279.953115 
L 166.262704 282.527499 
L 166.722555 288.55883 
L 167.182405 285.858006 
L 167.642256 274.963571 
L 168.102107 279.166021 
L 168.561957 280.725901 
L 169.481659 289.539654 
L 169.941509 286.953136 
L 170.40136 289.755976 
L 170.86121 287.453651 
L 171.321061 286.708112 
L 171.780912 285.426899 
L 172.240762 289.987766 
L 172.700613 282.100137 
L 173.160464 282.06259 
L 173.620314 271.311046 
L 174.080165 278.764673 
L 174.540015 267.744725 
L 174.999866 264.454761 
L 175.459717 270.20472 
L 175.919567 262.819603 
L 176.379418 263.253477 
L 176.839269 263.897564 
L 177.299119 255.552066 
L 177.75897 259.164961 
L 178.21882 255.215096 
L 178.678671 257.166878 
L 179.138522 255.5583 
L 179.598372 256.991369 
L 180.058223 250.771671 
L 180.518074 252.254736 
L 180.977924 256.39245 
L 181.437775 250.532925 
L 181.897626 247.566133 
L 182.357476 249.17031 
L 182.817327 246.762565 
L 183.277177 241.963861 
L 183.737028 242.135767 
L 184.196879 238.03649 
L 184.656729 236.855691 
L 185.11658 231.959971 
L 185.576431 231.265222 
L 186.036281 226.725726 
L 186.496132 223.882487 
L 186.955982 228.502798 
L 187.415833 221.01255 
L 187.875684 217.589662 
L 188.335534 212.481379 
L 188.795385 213.961648 
L 189.255236 210.589525 
L 189.715086 210.780277 
L 190.174937 215.174107 
L 190.634788 217.176536 
L 191.094638 218.52954 
L 191.554489 227.9576 
L 192.014339 228.509435 
L 192.47419 236.267523 
L 192.934041 228.506282 
L 193.393891 237.631813 
L 193.853742 235.089555 
L 194.313593 235.69971 
L 194.773443 241.084726 
L 195.233294 241.499052 
L 195.693144 242.840315 
L 196.152995 243.573293 
L 196.612846 250.094664 
L 197.532547 260.130632 
L 197.992398 260.241931 
L 198.452248 254.33799 
L 198.912099 255.165573 
L 199.37195 260.874029 
L 199.8318 261.278389 
L 200.291651 262.941448 
L 200.751501 263.084926 
L 201.211352 264.696546 
L 201.671203 262.230627 
L 202.131053 263.572254 
L 203.050755 264.609633 
L 203.510605 263.284547 
L 203.970456 269.422486 
L 204.430306 272.450486 
L 204.890157 271.210779 
L 205.809858 271.867951 
L 206.269709 276.408839 
L 206.72956 268.969994 
L 207.18941 276.20637 
L 207.649261 279.141148 
L 208.109112 273.718667 
L 208.568962 279.275436 
L 209.028813 272.735883 
L 209.488663 272.590138 
L 209.948514 276.437479 
L 210.408365 277.628569 
L 210.868215 273.140286 
L 211.328066 279.771369 
L 211.787917 283.902299 
L 212.247767 286.929889 
L 212.707618 281.429852 
L 213.167468 287.382898 
L 213.627319 282.819295 
L 214.08717 289.118622 
L 214.54702 279.54049 
L 215.006871 287.963135 
L 215.466722 288.793697 
L 215.926572 287.703418 
L 216.386423 284.346747 
L 216.846273 288.946719 
L 217.306124 286.289721 
L 217.765975 285.580094 
L 218.225825 289.509568 
L 218.685676 290.521602 
L 219.145527 286.920088 
L 219.605377 293.048011 
L 220.065228 264.678634 
L 220.525079 268.784068 
L 220.984929 263.456763 
L 221.44478 269.305856 
L 221.90463 263.93127 
L 222.824332 269.458859 
L 223.284182 260.16442 
L 223.744033 262.085772 
L 224.203884 261.242636 
L 224.663734 263.427449 
L 225.123585 256.313411 
L 225.583435 261.898173 
L 226.043286 261.119909 
L 226.503137 247.475822 
L 226.962987 249.746857 
L 227.422838 248.695928 
L 228.342539 255.412898 
L 228.80239 244.294821 
L 229.262241 242.443834 
L 229.722091 244.952595 
L 230.181942 245.729165 
L 231.101643 235.509418 
L 231.561494 239.577689 
L 232.021344 231.456437 
L 232.481195 228.338003 
L 232.941046 223.211302 
L 233.400896 223.381903 
L 233.860747 226.140802 
L 234.320597 214.648013 
L 234.780448 215.439613 
L 235.700149 210.368677 
L 236.619851 217.364062 
L 237.079701 215.223586 
L 237.539552 219.059328 
L 237.999403 220.773601 
L 238.459253 226.896629 
L 239.378954 230.715714 
L 239.838805 238.874396 
L 240.298656 232.876572 
L 240.758506 239.405005 
L 241.678208 241.790814 
L 242.138058 246.307681 
L 242.597909 245.073529 
L 243.51761 254.309936 
L 243.977461 249.400096 
L 244.437311 254.439449 
L 244.897162 256.093866 
L 245.816863 256.047292 
L 246.276714 260.563609 
L 246.736565 256.917586 
L 247.196415 257.99778 
L 247.656266 262.872328 
L 248.116116 264.982115 
L 248.575967 263.858319 
L 249.955519 270.060051 
L 250.41537 271.113277 
L 250.87522 265.704051 
L 251.335071 268.174723 
L 251.794921 273.254396 
L 252.254772 270.375884 
L 252.714623 275.568762 
L 253.174473 274.535833 
L 253.634324 272.148085 
L 254.094175 279.066208 
L 254.554025 277.498072 
L 255.473727 282.001639 
L 255.933577 278.84336 
L 256.393428 277.814789 
L 256.853278 287.543486 
L 257.313129 278.606209 
L 257.77298 274.091129 
L 258.23283 283.261681 
L 258.692681 282.866449 
L 259.152532 278.147167 
L 259.612382 281.631006 
L 260.072233 275.211003 
L 260.532083 276.874778 
L 260.991934 285.740844 
L 261.451785 283.210501 
L 261.911635 287.48768 
L 262.371486 285.488349 
L 262.831337 289.228342 
L 263.291187 281.197196 
L 263.751038 287.720506 
L 264.210888 283.192873 
L 264.670739 286.73815 
L 265.13059 282.062703 
L 265.59044 284.205051 
L 266.050291 290.716586 
L 266.510142 273.726824 
L 266.969992 272.768394 
L 267.429843 267.247994 
L 268.349544 265.978934 
L 268.809395 264.21986 
L 269.269245 259.23514 
L 269.729096 259.806933 
L 270.188947 264.574125 
L 270.648797 261.929924 
L 271.108648 261.472849 
L 271.568499 254.253443 
L 272.028349 255.10538 
L 272.4882 257.58632 
L 272.94805 251.042421 
L 273.407901 253.094975 
L 273.867752 253.194286 
L 274.327602 250.298715 
L 274.787453 249.658539 
L 275.247304 248.466658 
L 275.707154 244.495823 
L 276.167005 245.978554 
L 276.626856 243.924506 
L 277.086706 237.529188 
L 277.546557 239.194533 
L 278.006407 230.4204 
L 278.466258 231.406792 
L 278.926109 225.200994 
L 279.385959 221.670849 
L 279.84581 227.042077 
L 280.765511 218.352239 
L 281.225362 209.817549 
L 281.685212 207.874766 
L 282.145063 209.631359 
L 282.604914 208.436176 
L 283.064764 209.926643 
L 283.524615 218.936077 
L 284.444316 224.951492 
L 284.904167 232.946714 
L 285.364018 224.616512 
L 285.823868 230.696401 
L 286.283719 230.9075 
L 286.743569 232.599795 
L 287.20342 243.394818 
L 287.663271 250.156979 
L 288.123121 241.620246 
L 288.582972 248.179147 
L 289.042823 244.47862 
L 289.502673 250.297509 
L 289.962524 248.422456 
L 290.422374 250.599112 
L 290.882225 252.068701 
L 291.342076 253.016671 
L 291.801926 261.067236 
L 292.261777 260.391469 
L 293.181478 253.76071 
L 293.641329 255.467376 
L 294.10118 266.078377 
L 294.56103 258.165613 
L 295.020881 255.766084 
L 295.480731 266.530779 
L 295.940582 263.154806 
L 296.400433 267.052665 
L 296.860283 274.01316 
L 297.320134 267.560102 
L 297.779985 268.909357 
L 298.699686 275.441099 
L 299.159536 266.749016 
L 299.619387 274.53314 
L 300.079238 273.481266 
L 300.539088 276.004252 
L 300.998939 271.323977 
L 301.45879 280.354673 
L 301.91864 271.058526 
L 302.378491 280.242905 
L 302.838341 277.198306 
L 303.298192 282.735076 
L 303.758043 271.755737 
L 305.137595 289.985407 
L 305.597445 278.359781 
L 306.057296 279.213229 
L 306.517147 287.221563 
L 306.976997 283.036896 
L 307.436848 286.023214 
L 307.896698 289.927191 
L 308.356549 282.783513 
L 308.8164 289.155918 
L 309.27625 288.110284 
L 309.736101 285.172837 
L 310.195952 290.006965 
L 310.655802 286.495244 
L 311.115653 286.741203 
L 311.575503 291.277515 
L 312.035354 294.559036 
L 312.495205 291.074331 
L 312.955055 267.973543 
L 313.414906 270.131352 
L 313.874757 264.772766 
L 314.334607 267.676733 
L 314.794458 257.76765 
L 315.254309 269.097742 
L 315.714159 260.178174 
L 316.17401 267.563513 
L 316.63386 256.160718 
L 317.093711 267.085746 
L 317.553562 264.518118 
L 318.013412 254.660849 
L 318.473263 254.723558 
L 318.933114 252.760147 
L 319.392964 260.020107 
L 319.852815 251.197005 
L 320.312665 259.034843 
L 321.692217 245.340341 
L 322.152068 237.23935 
L 322.611919 242.32743 
L 323.071769 244.820293 
L 323.991471 229.139006 
L 324.451321 232.00884 
L 324.911172 230.146394 
L 325.371022 231.674228 
L 325.830873 229.839446 
L 326.290724 224.252351 
L 326.750574 220.968822 
L 327.210425 218.68615 
L 327.670276 219.486805 
L 328.130126 213.77167 
L 328.589977 211.385201 
L 329.049827 214.628588 
L 329.509678 208.238506 
L 329.969529 212.747599 
L 330.429379 213.287347 
L 330.88923 227.04728 
L 331.349081 223.199435 
L 331.808931 234.607151 
L 332.728633 233.651046 
L 333.188483 237.832417 
L 333.648334 238.459839 
L 334.108184 245.163907 
L 334.568035 241.548352 
L 335.027886 243.56445 
L 335.487736 244.945517 
L 335.947587 247.476163 
L 336.867288 253.233869 
L 337.327139 250.204392 
L 337.786989 251.162022 
L 338.24684 254.885842 
L 338.706691 254.283397 
L 339.166541 250.533719 
L 339.626392 262.418633 
L 340.086243 261.929403 
L 341.005944 259.992539 
L 341.465794 266.541637 
L 341.925645 263.360014 
L 342.385496 266.124438 
L 342.845346 270.719089 
L 343.305197 270.486493 
L 343.765048 269.708433 
L 344.224898 264.375924 
L 344.684749 274.891409 
L 345.1446 269.586844 
L 345.60445 274.06106 
L 346.064301 274.027564 
L 346.524151 271.311365 
L 346.984002 269.499913 
L 347.443853 275.714656 
L 347.903703 279.987065 
L 348.363554 277.966622 
L 348.823405 271.878421 
L 349.283255 278.915514 
L 349.743106 273.043524 
L 350.202956 284.77981 
L 350.662807 285.037386 
L 351.122658 283.303285 
L 351.582508 284.839396 
L 352.042359 283.5798 
L 352.50221 285.641482 
L 352.96206 279.039429 
L 353.421911 280.417483 
L 353.881762 286.500551 
L 354.341612 277.862641 
L 354.801463 287.887898 
L 355.261313 290.257373 
L 355.721164 289.296494 
L 356.181015 282.837282 
L 356.640865 284.449306 
L 357.560567 289.472249 
L 358.020417 284.666393 
L 358.480268 288.522215 
L 358.940118 287.567982 
L 359.399969 268.657272 
L 359.85982 262.320549 
L 360.779521 273.438389 
L 361.239372 264.846163 
L 361.699222 268.570538 
L 362.159073 260.058403 
L 362.618924 256.151514 
L 363.078774 258.864778 
L 363.538625 260.327284 
L 363.998475 259.885523 
L 364.458326 256.125535 
L 364.918177 255.092957 
L 365.378027 255.837544 
L 365.837878 255.118886 
L 366.297729 259.278112 
L 366.757579 246.841225 
L 367.21743 246.992464 
L 367.67728 250.466861 
L 368.137131 244.925337 
L 368.596982 241.018792 
L 369.056832 241.684851 
L 369.516683 244.226158 
L 369.976534 236.221705 
L 370.436384 233.424426 
L 370.896235 244.62936 
L 371.356086 231.994376 
L 371.815936 232.290606 
L 372.275787 221.505775 
L 372.735637 224.38158 
L 373.195488 215.52689 
L 373.655339 213.236065 
L 374.115189 207.716735 
L 374.57504 213.369244 
L 375.034891 212.298001 
L 375.494741 213.476667 
L 375.954592 209.730649 
L 376.414442 218.158737 
L 376.874293 218.685327 
L 377.334144 222.411916 
L 377.793994 219.168104 
L 378.253845 226.532837 
L 378.713696 229.975514 
L 379.173546 230.485275 
L 379.633397 230.626336 
L 380.093247 242.30107 
L 381.012949 247.942563 
L 381.472799 241.205348 
L 381.93265 240.670289 
L 382.392501 254.705544 
L 382.852351 253.966885 
L 383.312202 251.610697 
L 383.772053 249.951537 
L 384.231903 256.671526 
L 384.691754 260.64359 
L 385.151604 256.26294 
L 385.611455 256.805491 
L 386.071306 256.876053 
L 386.991007 262.839567 
L 387.450858 257.159137 
L 387.910708 265.29358 
L 388.370559 262.84722 
L 388.830409 267.549667 
L 389.29026 263.245975 
L 389.750111 268.10837 
L 390.669812 269.486448 
L 391.129663 267.95012 
L 391.589513 272.174433 
L 392.049364 273.940504 
L 392.509215 278.174659 
L 392.969065 275.583239 
L 393.428916 278.790324 
L 393.888766 269.974795 
L 394.348617 273.157302 
L 394.808468 270.83257 
L 395.268318 274.54024 
L 395.728169 277.283294 
L 396.18802 276.965988 
L 396.64787 272.083771 
L 397.107721 282.278388 
L 397.567571 277.012516 
L 398.027422 284.880615 
L 398.027422 284.880615 
" clip-path="url(#p73c39185c8)" style="fill: none; stroke: #1f77b4; stroke-width: 1.5; stroke-linecap: square"/>
   </g>
   <g id="line2d_32">
    <path d="M 73.832727 121.336049 
L 74.752429 126.461451 
L 75.212279 116.006145 
L 76.13198 125.779557 
L 76.591831 117.93867 
L 77.051682 115.287678 
L 77.511532 117.617133 
L 77.971383 120.8004 
L 78.431234 119.600798 
L 78.891084 116.685532 
L 79.350935 112.707636 
L 79.810785 114.611705 
L 80.270636 110.329527 
L 80.730487 108.173917 
L 81.190337 115.056615 
L 81.650188 99.84133 
L 82.110039 114.752605 
L 82.569889 113.226773 
L 83.02974 110.715496 
L 83.489591 105.805901 
L 83.949441 104.875553 
L 84.409292 108.071228 
L 84.869142 109.587907 
L 85.328993 105.079206 
L 85.788844 109.892308 
L 86.248694 99.892571 
L 86.708545 94.47875 
L 87.168396 98.885135 
L 87.628246 99.714262 
L 88.088097 97.270901 
L 88.547947 97.92689 
L 89.007798 86.334852 
L 89.467649 92.78144 
L 89.927499 93.324815 
L 90.38735 90.862222 
L 90.847201 76.629592 
L 91.307051 78.500687 
L 91.766902 83.868431 
L 92.226753 78.213942 
L 92.686603 74.720884 
L 93.146454 75.513891 
L 93.606304 74.549745 
L 94.066155 63.989912 
L 94.526006 61.973419 
L 94.985856 61.797335 
L 95.445707 60.965138 
L 95.905558 60.668558 
L 96.365408 56.28204 
L 96.825259 54.862793 
L 97.285109 56.143847 
L 97.74496 61.865831 
L 98.204811 62.799319 
L 98.664661 73.314824 
L 99.124512 74.601791 
L 99.584363 76.36118 
L 100.044213 75.920639 
L 100.504064 90.215527 
L 100.963914 90.118704 
L 101.423765 88.184015 
L 102.343466 91.004826 
L 102.803317 95.892263 
L 103.263168 96.25947 
L 103.723018 102.159411 
L 104.182869 96.586358 
L 104.64272 107.568106 
L 105.10257 101.88522 
L 105.562421 109.407543 
L 106.022271 96.05263 
L 106.482122 110.134852 
L 106.941973 108.252964 
L 107.401823 105.485201 
L 107.861674 109.847497 
L 108.321525 111.649063 
L 108.781375 117.836915 
L 109.241226 116.450959 
L 109.701076 116.815009 
L 110.160927 115.90601 
L 110.620778 122.629726 
L 111.080628 123.049146 
L 111.540479 115.708452 
L 112.00033 120.39185 
L 112.46018 120.664552 
L 112.920031 128.26027 
L 113.379882 132.712218 
L 113.839732 122.568715 
L 114.299583 127.416599 
L 114.759433 130.418588 
L 115.219284 123.892272 
L 115.679135 134.066667 
L 116.138985 130.637665 
L 116.598836 133.91565 
L 117.058687 131.329841 
L 117.518537 131.253587 
L 117.978388 132.068105 
L 118.438238 134.417442 
L 118.898089 133.492755 
L 119.35794 140.991377 
L 119.81779 131.848668 
L 120.277641 143.370712 
L 120.737492 140.641715 
L 121.197342 139.650846 
L 121.657193 142.941057 
L 122.117044 150.148688 
L 122.576894 141.781507 
L 123.036745 147.051262 
L 123.496595 143.014355 
L 123.956446 144.207566 
L 124.416297 157.399746 
L 124.876147 151.531633 
L 125.335998 160.635015 
L 125.795849 150.543638 
L 126.255699 149.758403 
L 126.71555 162.308656 
L 127.1754 123.897149 
L 127.635251 116.692216 
L 128.095102 130.973655 
L 128.554952 121.811162 
L 129.014803 122.939162 
L 129.474654 121.788653 
L 129.934504 115.952484 
L 130.394355 112.078632 
L 130.854206 111.182905 
L 131.314056 114.96279 
L 131.773907 103.867565 
L 132.693608 110.805392 
L 133.153459 107.598094 
L 133.613309 109.231624 
L 134.07316 107.130965 
L 134.533011 102.060839 
L 134.992861 102.062488 
L 135.452712 104.280747 
L 135.912562 85.299615 
L 136.372413 95.668888 
L 136.832264 92.480498 
L 137.292114 94.112436 
L 137.751965 93.521651 
L 138.211816 88.928503 
L 138.671666 87.43554 
L 139.591367 79.837108 
L 140.051218 79.305465 
L 140.511069 67.971093 
L 140.970919 66.917051 
L 141.43077 63.195454 
L 141.890621 62.920641 
L 142.350471 67.458812 
L 142.810322 55.578481 
L 143.270173 53.568 
L 143.730023 62.757394 
L 144.189874 69.171211 
L 145.109575 71.381846 
L 145.569426 82.915554 
L 146.029276 82.203699 
L 146.489127 84.816843 
L 146.948978 80.238648 
L 147.408828 82.566919 
L 147.868679 86.665176 
L 148.328529 85.879866 
L 148.78838 86.83199 
L 149.248231 95.267842 
L 149.708081 97.67488 
L 150.167932 103.207884 
L 150.627783 100.334569 
L 151.087633 99.402277 
L 151.547484 109.608741 
L 152.007335 101.238344 
L 152.467185 104.144432 
L 152.927036 110.785368 
L 153.386886 109.179044 
L 153.846737 112.221628 
L 154.306588 109.174634 
L 154.766438 108.622705 
L 155.68614 117.910584 
L 156.14599 120.691131 
L 156.605841 115.988813 
L 157.065691 117.968922 
L 157.525542 128.516254 
L 158.445243 121.522688 
L 158.905094 124.997043 
L 159.364945 130.414592 
L 159.824795 127.78643 
L 160.284646 123.5758 
L 160.744497 126.785376 
L 161.204347 130.985052 
L 161.664198 126.560802 
L 162.124048 127.123939 
L 162.583899 127.161618 
L 163.04375 138.420487 
L 163.5036 130.740327 
L 163.963451 131.282635 
L 164.423302 132.197717 
L 164.883152 134.099242 
L 165.343003 138.4267 
L 165.802853 137.932118 
L 166.262704 138.092435 
L 166.722555 145.47831 
L 167.182405 140.678114 
L 167.642256 137.093866 
L 168.102107 144.12371 
L 168.561957 143.790335 
L 169.021808 142.941804 
L 169.481659 146.379283 
L 169.941509 147.819774 
L 170.40136 146.243339 
L 170.86121 145.9451 
L 171.321061 146.64233 
L 171.780912 147.636837 
L 172.240762 151.879589 
L 172.700613 150.30347 
L 173.160464 152.575676 
L 173.620314 125.349618 
L 174.080165 129.159343 
L 174.540015 117.948869 
L 174.999866 117.054601 
L 175.459717 120.157817 
L 175.919567 114.766563 
L 176.379418 114.322761 
L 176.839269 115.320122 
L 177.299119 105.758924 
L 177.75897 109.875527 
L 178.21882 107.058585 
L 178.678671 107.048948 
L 179.138522 106.534182 
L 179.598372 106.798774 
L 180.058223 101.267617 
L 180.518074 103.352051 
L 180.977924 108.030963 
L 181.437775 101.448107 
L 181.897626 98.903233 
L 182.357476 98.033351 
L 182.817327 94.792511 
L 183.277177 92.872604 
L 183.737028 88.887589 
L 184.196879 86.160876 
L 184.656729 86.84298 
L 185.11658 81.39758 
L 185.576431 79.531082 
L 186.036281 79.026245 
L 186.496132 73.16533 
L 186.955982 78.108984 
L 187.415833 70.075992 
L 187.875684 69.933452 
L 188.335534 62.240746 
L 188.795385 65.324628 
L 189.255236 60.687204 
L 189.715086 58.50033 
L 190.174937 65.361724 
L 190.634788 66.349843 
L 191.094638 68.194255 
L 191.554489 79.661636 
L 192.014339 77.483382 
L 192.47419 86.663116 
L 192.934041 77.480852 
L 193.393891 86.069191 
L 193.853742 86.214822 
L 194.313593 85.662867 
L 194.773443 92.229699 
L 195.233294 91.953999 
L 195.693144 94.713317 
L 196.152995 94.768459 
L 197.072696 106.043078 
L 197.532547 110.3827 
L 197.992398 112.302364 
L 198.452248 104.428676 
L 198.912099 106.542155 
L 199.37195 110.795113 
L 199.8318 112.650209 
L 200.291651 113.823336 
L 200.751501 111.682974 
L 201.211352 113.820836 
L 201.671203 111.546389 
L 202.131053 114.323977 
L 202.590904 115.671915 
L 203.050755 118.334498 
L 203.510605 113.220867 
L 203.970456 120.798122 
L 204.430306 120.885142 
L 204.890157 121.457998 
L 205.350008 122.855808 
L 205.809858 123.824648 
L 206.269709 131.365154 
L 206.72956 123.661528 
L 207.18941 131.487909 
L 207.649261 134.041672 
L 208.109112 124.334108 
L 208.568962 134.69858 
L 209.028813 130.205252 
L 209.488663 128.791033 
L 209.948514 130.168824 
L 210.408365 134.345648 
L 210.868215 129.602579 
L 211.328066 137.897611 
L 211.787917 143.459114 
L 212.247767 142.023565 
L 212.707618 142.187493 
L 213.167468 144.388398 
L 213.627319 142.837578 
L 214.08717 149.754481 
L 214.54702 140.21251 
L 215.006871 148.777353 
L 215.466722 150.270772 
L 215.926572 148.929828 
L 216.386423 145.225658 
L 216.846273 150.473524 
L 217.306124 142.436036 
L 217.765975 142.039591 
L 218.225825 159.574234 
L 218.685676 163.30594 
L 219.145527 155.008395 
L 219.605377 149.279374 
L 220.065228 114.52244 
L 220.525079 121.554778 
L 220.984929 114.670569 
L 221.44478 118.01172 
L 221.90463 118.471354 
L 222.364481 119.358812 
L 222.824332 120.927422 
L 223.284182 112.583058 
L 223.744033 112.466728 
L 224.203884 111.174958 
L 224.663734 114.232967 
L 225.123585 104.06246 
L 225.583435 110.726254 
L 226.043286 112.859847 
L 226.503137 97.962831 
L 226.962987 100.357873 
L 227.422838 98.108018 
L 227.882689 103.894736 
L 228.342539 106.18049 
L 228.80239 94.221012 
L 229.262241 95.009681 
L 229.722091 97.044282 
L 230.641792 90.831156 
L 231.101643 85.791238 
L 231.561494 90.219299 
L 232.021344 82.177539 
L 232.481195 78.757573 
L 232.941046 73.202615 
L 233.400896 73.049961 
L 233.860747 73.525092 
L 234.320597 66.559398 
L 234.780448 65.191626 
L 235.240299 62.308363 
L 235.700149 62.367637 
L 236.16 64.593884 
L 236.619851 67.713332 
L 237.079701 65.488851 
L 237.539552 66.926347 
L 238.459253 75.807516 
L 239.378954 80.338934 
L 239.838805 88.846776 
L 240.298656 83.063136 
L 240.758506 89.71681 
L 241.218357 90.703879 
L 241.678208 90.506331 
L 242.138058 97.28685 
L 242.597909 95.046203 
L 243.51761 106.044888 
L 243.977461 102.656345 
L 244.437311 105.314817 
L 244.897162 109.3669 
L 245.357013 105.940392 
L 245.816863 106.840718 
L 246.276714 111.071506 
L 246.736565 107.811113 
L 247.196415 108.240213 
L 247.656266 116.293191 
L 248.116116 116.18205 
L 248.575967 117.362431 
L 249.035818 113.849986 
L 249.495668 121.272766 
L 249.955519 122.951673 
L 250.41537 121.875035 
L 250.87522 119.675887 
L 251.335071 120.140442 
L 251.794921 126.570019 
L 252.254772 125.092292 
L 252.714623 130.080603 
L 253.174473 128.114004 
L 253.634324 127.090317 
L 254.094175 136.046132 
L 254.554025 132.666888 
L 255.013876 138.526525 
L 255.473727 139.375854 
L 255.933577 134.064706 
L 256.393428 130.21662 
L 256.853278 143.134566 
L 257.313129 130.362753 
L 257.77298 133.821311 
L 258.23283 139.659034 
L 258.692681 140.944628 
L 259.152532 137.378076 
L 259.612382 139.243692 
L 260.072233 131.086944 
L 260.532083 133.905813 
L 260.991934 145.746079 
L 261.451785 147.816729 
L 261.911635 147.844353 
L 262.371486 147.321405 
L 262.831337 148.417831 
L 263.291187 143.833867 
L 263.751038 143.315474 
L 264.210888 148.969767 
L 264.670739 158.545633 
L 265.13059 152.530681 
L 265.59044 154.017134 
L 266.050291 161.163288 
L 266.510142 125.331669 
L 266.969992 124.344702 
L 267.429843 118.321811 
L 267.889694 120.078114 
L 268.809395 115.909037 
L 269.269245 110.3305 
L 269.729096 110.058691 
L 270.188947 115.490423 
L 270.648797 110.369688 
L 271.108648 113.162431 
L 271.568499 104.742283 
L 272.028349 106.064953 
L 272.4882 106.169058 
L 272.94805 100.434319 
L 273.407901 103.494032 
L 273.867752 104.179477 
L 274.327602 98.778892 
L 274.787453 100.293898 
L 275.247304 99.796019 
L 275.707154 93.178529 
L 276.167005 95.917622 
L 276.626856 93.859277 
L 277.086706 88.858931 
L 277.546557 89.198228 
L 278.006407 79.163741 
L 278.466258 80.696008 
L 278.926109 74.294796 
L 279.385959 70.563345 
L 279.84581 76.150548 
L 280.765511 66.665166 
L 281.225362 58.041057 
L 281.685212 57.070959 
L 282.145063 58.426504 
L 282.604914 56.654122 
L 283.064764 58.487701 
L 283.524615 69.277057 
L 284.444316 75.192652 
L 284.904167 83.472623 
L 285.364018 74.94553 
L 285.823868 80.178133 
L 286.283719 81.660927 
L 286.743569 81.019924 
L 287.20342 93.41405 
L 287.663271 100.211106 
L 288.123121 93.375608 
L 288.582972 97.692688 
L 289.042823 97.064725 
L 289.502673 99.321462 
L 289.962524 100.904192 
L 290.422374 100.992916 
L 290.882225 103.373166 
L 291.342076 102.501875 
L 291.801926 111.277573 
L 292.261777 112.059634 
L 292.721628 109.712863 
L 293.181478 102.777083 
L 293.641329 106.349354 
L 294.10118 119.159439 
L 294.56103 108.247806 
L 295.020881 104.495626 
L 295.480731 119.397065 
L 295.940582 116.043077 
L 296.400433 117.363945 
L 296.860283 127.82098 
L 297.320134 118.532431 
L 297.779985 122.630432 
L 298.239835 125.043139 
L 298.699686 128.222501 
L 299.159536 120.306224 
L 299.619387 126.254504 
L 300.539088 134.533263 
L 300.998939 125.810639 
L 301.45879 131.228716 
L 301.91864 127.338223 
L 302.378491 135.603066 
L 302.838341 132.403702 
L 303.298192 134.2626 
L 303.758043 133.551954 
L 304.217893 134.599802 
L 305.137595 147.236255 
L 305.597445 135.665561 
L 306.057296 133.752477 
L 306.517147 145.765123 
L 306.976997 143.375929 
L 307.436848 142.523781 
L 307.896698 145.450326 
L 308.356549 139.093144 
L 308.8164 151.08867 
L 309.736101 145.579874 
L 310.195952 153.920341 
L 310.655802 157.105883 
L 311.115653 150.131672 
L 311.575503 158.252336 
L 312.035354 154.725941 
L 312.495205 155.15615 
L 312.955055 119.042725 
L 313.414906 124.862978 
L 313.874757 116.258775 
L 314.334607 116.938449 
L 314.794458 108.398041 
L 315.254309 120.642443 
L 315.714159 110.9277 
L 316.17401 118.233129 
L 316.63386 104.907541 
L 317.093711 117.930145 
L 317.553562 115.32669 
L 318.013412 104.242452 
L 318.473263 106.014669 
L 318.933114 102.169453 
L 319.392964 111.707604 
L 319.852815 98.341362 
L 320.312665 110.552731 
L 320.772516 106.105875 
L 321.232367 99.948725 
L 321.692217 97.083673 
L 322.152068 91.732381 
L 322.611919 95.708601 
L 323.071769 93.783196 
L 323.53162 84.989665 
L 323.991471 79.294932 
L 324.451321 81.422444 
L 324.911172 82.01687 
L 325.371022 81.870077 
L 326.290724 71.430559 
L 326.750574 73.421271 
L 327.210425 69.398034 
L 327.670276 68.825438 
L 328.130126 64.107154 
L 328.589977 61.106012 
L 329.049827 62.527526 
L 329.509678 56.900969 
L 329.969529 63.67805 
L 330.429379 61.667325 
L 330.88923 76.176008 
L 331.349081 72.941171 
L 331.808931 87.028016 
L 332.268782 83.743484 
L 332.728633 82.898526 
L 333.188483 86.81245 
L 333.648334 88.555762 
L 334.108184 95.665699 
L 334.568035 91.095659 
L 335.027886 93.277076 
L 335.487736 92.264995 
L 335.947587 94.856882 
L 336.407438 104.347021 
L 336.867288 101.691275 
L 337.327139 101.592953 
L 337.786989 100.660486 
L 338.24684 106.002257 
L 338.706691 106.867088 
L 339.166541 96.809716 
L 339.626392 113.903104 
L 340.086243 111.755022 
L 341.465794 118.473016 
L 341.925645 115.209245 
L 342.385496 116.073468 
L 342.845346 124.718802 
L 343.305197 120.878717 
L 343.765048 121.435118 
L 344.224898 115.06215 
L 344.684749 124.509827 
L 345.1446 119.74491 
L 345.60445 126.268621 
L 346.064301 126.379139 
L 346.524151 123.531652 
L 346.984002 122.051521 
L 347.443853 131.059537 
L 347.903703 137.235737 
L 348.823405 123.63147 
L 349.283255 130.723193 
L 349.743106 132.544033 
L 350.202956 138.427756 
L 350.662807 139.233431 
L 351.122658 136.031032 
L 351.582508 143.387224 
L 352.042359 140.079599 
L 352.50221 147.237114 
L 352.96206 137.998776 
L 353.421911 132.627648 
L 353.881762 147.115495 
L 354.341612 133.045213 
L 354.801463 151.793703 
L 355.261313 150.54629 
L 355.721164 149.975617 
L 356.181015 147.150311 
L 356.640865 151.090241 
L 357.100716 152.664758 
L 357.560567 154.993857 
L 358.020417 156.725487 
L 358.480268 149.660669 
L 358.940118 155.000793 
L 359.399969 123.561664 
L 359.85982 112.676155 
L 360.31967 120.291977 
L 360.779521 122.328859 
L 361.239372 116.494433 
L 361.699222 119.062999 
L 362.159073 109.840378 
L 362.618924 107.188661 
L 363.078774 107.64776 
L 363.538625 115.460606 
L 363.998475 109.028561 
L 364.918177 106.649587 
L 365.378027 103.997993 
L 365.837878 106.014457 
L 366.297729 109.343571 
L 366.757579 93.710484 
L 367.21743 93.189128 
L 367.67728 98.132788 
L 368.137131 93.624139 
L 368.596982 87.224755 
L 369.056832 88.744311 
L 369.516683 91.661708 
L 369.976534 83.824945 
L 370.436384 78.998422 
L 370.896235 93.687118 
L 371.356086 82.683502 
L 371.815936 80.410581 
L 372.275787 68.815014 
L 372.735637 70.475046 
L 373.195488 63.570227 
L 373.655339 61.379979 
L 374.115189 55.509885 
L 374.57504 59.840187 
L 375.494741 58.87463 
L 375.954592 57.576442 
L 376.414442 65.965568 
L 376.874293 62.938171 
L 377.334144 67.469986 
L 377.793994 66.486776 
L 378.713696 76.234759 
L 379.173546 75.412059 
L 381.012949 96.153777 
L 381.472799 86.966952 
L 381.93265 88.455851 
L 382.392501 97.643759 
L 382.852351 98.215861 
L 383.312202 99.698939 
L 383.772053 94.177563 
L 384.231903 99.056776 
L 384.691754 105.823257 
L 385.151604 102.191417 
L 385.611455 102.82641 
L 386.071306 101.747198 
L 386.531156 105.205421 
L 386.991007 107.506125 
L 387.450858 103.184443 
L 387.910708 113.758032 
L 388.370559 107.183499 
L 388.830409 113.378561 
L 389.29026 106.68531 
L 389.750111 113.69714 
L 390.209961 112.687055 
L 391.129663 108.49121 
L 391.589513 116.3651 
L 392.049364 115.279511 
L 392.509215 119.354175 
L 392.969065 117.587732 
L 393.428916 123.571515 
L 393.888766 114.393576 
L 394.348617 116.335593 
L 394.808468 113.854369 
L 395.268318 116.098358 
L 395.728169 118.952057 
L 396.64787 117.835163 
L 397.107721 124.218338 
L 397.567571 118.95511 
L 398.027422 127.417906 
L 398.027422 127.417906 
" clip-path="url(#p73c39185c8)" style="fill: none; stroke: #ff7f0e; stroke-width: 1.5; stroke-linecap: square"/>
   </g>
   <g id="line2d_33">
    <path d="M 57.6 157.227753 
L 414.72 157.227753 
" clip-path="url(#p73c39185c8)" style="fill: none; stroke-dasharray: 5.55,2.4; stroke-dashoffset: 0; stroke: #ff0000; stroke-width: 1.5"/>
   </g>
   <g id="patch_14">
    <path d="M 57.6 307.584 
L 57.6 41.472 
" style="fill: none; stroke: #000000; stroke-width: 0.8; stroke-linejoin: miter; stroke-linecap: square"/>
   </g>
   <g id="patch_15">
    <path d="M 414.72 307.584 
L 414.72 41.472 
" style="fill: none; stroke: #000000; stroke-width: 0.8; stroke-linejoin: miter; stroke-linecap: square"/>
   </g>
   <g id="patch_16">
    <path d="M 57.6 307.584 
L 414.72 307.584 
" style="fill: none; stroke: #000000; stroke-width: 0.8; stroke-linejoin: miter; stroke-linecap: square"/>
   </g>
   <g id="patch_17">
    <path d="M 57.6 41.472 
L 414.72 41.472 
" style="fill: none; stroke: #000000; stroke-width: 0.8; stroke-linejoin: miter; stroke-linecap: square"/>
   </g>
  </g>
  <g id="legend_1">
   <g id="patch_18">
    <path d="M 63.9 303.084 
L 183.107812 303.084 
Q 184.907813 303.084 184.907813 301.284 
L 184.907813 218.541656 
Q 184.907813 216.741656 183.107812 216.741656 
L 63.9 216.741656 
Q 62.1 216.741656 62.1 218.541656 
L 62.1 301.284 
Q 62.1 303.084 63.9 303.084 
z
" style="fill: #ffffff; opacity: 0.8; stroke: #cccccc; stroke-linejoin: miter"/>
   </g>
   <g id="line2d_34">
    <g>
     <use xlink:href="#mc65cc6319e" x="74.7" y="224.386031" style="fill: #00bfbf; stroke: #00bfbf; stroke-linejoin: miter"/>
    </g>
   </g>
   <g id="text_51">
    <!-- initiate handover -->
    <g transform="translate(90.9 227.536031)scale(0.09 -0.09)">
     <defs>
      <path id="MicrosoftYaHei-65" d="M 3363 1572 
L 944 1572 
Q 959 1019 1246 717 
Q 1534 416 2050 416 
Q 2631 416 3116 788 
L 3116 241 
Q 2659 -81 1906 -81 
Q 1156 -81 736 394 
Q 316 869 316 1713 
Q 316 2506 777 3022 
Q 1238 3538 1922 3538 
Q 2600 3538 2981 3102 
Q 3363 2666 3363 1881 
L 3363 1572 
z
M 2750 2063 
Q 2747 2531 2528 2787 
Q 2309 3044 1913 3044 
Q 1547 3044 1280 2772 
Q 1013 2500 944 2063 
L 2750 2063 
z
" transform="scale(0.015625)"/>
      <path id="MicrosoftYaHei-68" d="M 3466 0 
L 2856 0 
L 2856 1988 
Q 2856 3031 2081 3031 
Q 1684 3031 1421 2726 
Q 1159 2422 1159 1959 
L 1159 0 
L 547 0 
L 547 5116 
L 1159 5116 
L 1159 2888 
L 1172 2888 
Q 1569 3538 2300 3538 
Q 3466 3538 3466 2128 
L 3466 0 
z
" transform="scale(0.015625)"/>
      <path id="MicrosoftYaHei-76" d="M 3331 3456 
L 1963 0 
L 1344 0 
L 44 3456 
L 713 3456 
L 1556 988 
Q 1659 691 1678 491 
L 1694 491 
Q 1725 753 1803 975 
L 2688 3456 
L 3331 3456 
z
" transform="scale(0.015625)"/>
      <path id="MicrosoftYaHei-72" d="M 2400 2850 
Q 2247 2959 1978 2959 
Q 1622 2959 1390 2626 
Q 1159 2294 1159 1750 
L 1159 0 
L 547 0 
L 547 3456 
L 1159 3456 
L 1159 2753 
L 1172 2753 
Q 1434 3516 2078 3516 
Q 2288 3516 2400 3469 
L 2400 2850 
z
" transform="scale(0.015625)"/>
     </defs>
     <use xlink:href="#MicrosoftYaHei-69"/>
     <use xlink:href="#MicrosoftYaHei-6e" x="26.611328"/>
     <use xlink:href="#MicrosoftYaHei-69" x="88.232422"/>
     <use xlink:href="#MicrosoftYaHei-74" x="114.84375"/>
     <use xlink:href="#MicrosoftYaHei-69" x="152.099609"/>
     <use xlink:href="#MicrosoftYaHei-61" x="178.710938"/>
     <use xlink:href="#MicrosoftYaHei-74" x="233.984375"/>
     <use xlink:href="#MicrosoftYaHei-65" x="270.365234"/>
     <use xlink:href="#MicrosoftYaHei-20" x="327.103516"/>
     <use xlink:href="#MicrosoftYaHei-68" x="356.693359"/>
     <use xlink:href="#MicrosoftYaHei-61" x="418.265625"/>
     <use xlink:href="#MicrosoftYaHei-6e" x="473.539062"/>
     <use xlink:href="#MicrosoftYaHei-64" x="535.160156"/>
     <use xlink:href="#MicrosoftYaHei-6f" x="599.125"/>
     <use xlink:href="#MicrosoftYaHei-76" x="662.699219"/>
     <use xlink:href="#MicrosoftYaHei-65" x="714.564453"/>
     <use xlink:href="#MicrosoftYaHei-72" x="771.302734"/>
    </g>
   </g>
   <g id="line2d_35">
    <g>
     <use xlink:href="#mfc79b8b76a" x="74.7" y="238.31775" style="fill: #00bfbf; stroke: #00bfbf; stroke-linejoin: miter"/>
    </g>
   </g>
   <g id="text_52">
    <!-- complete handover -->
    <g transform="translate(90.9 241.46775)scale(0.09 -0.09)">
     <defs>
      <path id="MicrosoftYaHei-63" d="M 2934 156 
Q 2538 -81 1978 -81 
Q 1228 -81 772 400 
Q 316 881 316 1647 
Q 316 2497 808 3017 
Q 1300 3538 2125 3538 
Q 2600 3538 2938 3369 
L 2938 2763 
Q 2572 3031 2125 3031 
Q 1600 3031 1270 2667 
Q 941 2303 941 1697 
Q 941 1100 1252 762 
Q 1563 425 2091 425 
Q 2538 425 2934 719 
L 2934 156 
z
" transform="scale(0.015625)"/>
      <path id="MicrosoftYaHei-6c" d="M 544 0 
L 544 5116 
L 1156 5116 
L 1156 0 
L 544 0 
z
" transform="scale(0.015625)"/>
     </defs>
     <use xlink:href="#MicrosoftYaHei-63"/>
     <use xlink:href="#MicrosoftYaHei-6f" x="50.146484"/>
     <use xlink:href="#MicrosoftYaHei-6d" x="113.720703"/>
     <use xlink:href="#MicrosoftYaHei-70" x="207.421875"/>
     <use xlink:href="#MicrosoftYaHei-6c" x="271.289062"/>
     <use xlink:href="#MicrosoftYaHei-65" x="297.900391"/>
     <use xlink:href="#MicrosoftYaHei-74" x="354.638672"/>
     <use xlink:href="#MicrosoftYaHei-65" x="391.019531"/>
     <use xlink:href="#MicrosoftYaHei-20" x="447.757812"/>
     <use xlink:href="#MicrosoftYaHei-68" x="477.347656"/>
     <use xlink:href="#MicrosoftYaHei-61" x="538.919922"/>
     <use xlink:href="#MicrosoftYaHei-6e" x="594.193359"/>
     <use xlink:href="#MicrosoftYaHei-64" x="655.814453"/>
     <use xlink:href="#MicrosoftYaHei-6f" x="719.779297"/>
     <use xlink:href="#MicrosoftYaHei-76" x="783.353516"/>
     <use xlink:href="#MicrosoftYaHei-65" x="835.21875"/>
     <use xlink:href="#MicrosoftYaHei-72" x="891.957031"/>
    </g>
   </g>
   <g id="line2d_36">
    <path d="M 65.7 252.249469 
L 74.7 252.249469 
L 83.7 252.249469 
" style="fill: none; stroke: #00bfbf; stroke-width: 1.5; stroke-linecap: square"/>
   </g>
   <g id="text_53">
    <!-- movement trajectory -->
    <g transform="translate(90.9 255.399469)scale(0.09 -0.09)">
     <defs>
      <path id="MicrosoftYaHei-6a" d="M 475 4675 
Q 475 4838 584 4948 
Q 694 5059 859 5059 
Q 1028 5059 1140 4950 
Q 1253 4841 1253 4675 
Q 1253 4516 1139 4406 
Q 1025 4297 859 4297 
Q 694 4297 584 4408 
Q 475 4519 475 4675 
z
M 1159 134 
Q 1159 -706 811 -1167 
Q 463 -1628 -178 -1628 
Q -416 -1628 -644 -1519 
L -644 -966 
Q -400 -1116 -181 -1116 
Q 547 -1116 547 44 
L 547 3456 
L 1159 3456 
L 1159 134 
z
" transform="scale(0.015625)"/>
      <path id="MicrosoftYaHei-79" d="M 3359 3456 
L 1791 -522 
Q 1353 -1628 556 -1628 
Q 328 -1628 166 -1578 
L 166 -1041 
Q 344 -1109 509 -1109 
Q 925 -1109 1131 -622 
L 1397 6 
L 41 3456 
L 719 3456 
L 1622 859 
L 1697 575 
L 1713 575 
Q 1731 672 1788 853 
L 2731 3456 
L 3359 3456 
z
" transform="scale(0.015625)"/>
     </defs>
     <use xlink:href="#MicrosoftYaHei-6d"/>
     <use xlink:href="#MicrosoftYaHei-6f" x="93.701172"/>
     <use xlink:href="#MicrosoftYaHei-76" x="157.275391"/>
     <use xlink:href="#MicrosoftYaHei-65" x="209.140625"/>
     <use xlink:href="#MicrosoftYaHei-6d" x="265.878906"/>
     <use xlink:href="#MicrosoftYaHei-65" x="359.580078"/>
     <use xlink:href="#MicrosoftYaHei-6e" x="416.318359"/>
     <use xlink:href="#MicrosoftYaHei-74" x="477.939453"/>
     <use xlink:href="#MicrosoftYaHei-20" x="515.195312"/>
     <use xlink:href="#MicrosoftYaHei-74" x="544.785156"/>
     <use xlink:href="#MicrosoftYaHei-72" x="582.041016"/>
     <use xlink:href="#MicrosoftYaHei-61" x="620.224609"/>
     <use xlink:href="#MicrosoftYaHei-6a" x="675.498047"/>
     <use xlink:href="#MicrosoftYaHei-65" x="702.207031"/>
     <use xlink:href="#MicrosoftYaHei-63" x="758.945312"/>
     <use xlink:href="#MicrosoftYaHei-74" x="809.091797"/>
     <use xlink:href="#MicrosoftYaHei-6f" x="845.472656"/>
     <use xlink:href="#MicrosoftYaHei-72" x="909.046875"/>
     <use xlink:href="#MicrosoftYaHei-79" x="951.605469"/>
    </g>
   </g>
   <g id="line2d_37">
    <path d="M 65.7 266.233219 
L 74.7 266.233219 
L 83.7 266.233219 
" style="fill: none; stroke: #1f77b4; stroke-width: 1.5; stroke-linecap: square"/>
   </g>
   <g id="text_54">
    <!-- RSRP -->
    <g transform="translate(90.9 269.383219)scale(0.09 -0.09)">
     <use xlink:href="#MicrosoftYaHei-52"/>
     <use xlink:href="#MicrosoftYaHei-53" x="65.283203"/>
     <use xlink:href="#MicrosoftYaHei-52" x="122.998047"/>
     <use xlink:href="#MicrosoftYaHei-50" x="188.28125"/>
    </g>
   </g>
   <g id="line2d_38">
    <path d="M 65.7 280.164938 
L 74.7 280.164938 
L 83.7 280.164938 
" style="fill: none; stroke: #ff7f0e; stroke-width: 1.5; stroke-linecap: square"/>
   </g>
   <g id="text_55">
    <!-- SINR -->
    <g transform="translate(90.9 283.314937)scale(0.09 -0.09)">
     <use xlink:href="#MicrosoftYaHei-53"/>
     <use xlink:href="#MicrosoftYaHei-49" x="57.714844"/>
     <use xlink:href="#MicrosoftYaHei-4e" x="87.109375"/>
     <use xlink:href="#MicrosoftYaHei-52" x="168.408203"/>
    </g>
   </g>
   <g id="line2d_39">
    <path d="M 65.7 294.096656 
L 74.7 294.096656 
L 83.7 294.096656 
" style="fill: none; stroke-dasharray: 5.55,2.4; stroke-dashoffset: 0; stroke: #ff0000; stroke-width: 1.5"/>
   </g>
   <g id="text_56">
    <!-- SINR threshold -->
    <g transform="translate(90.9 297.246656)scale(0.09 -0.09)">
     <use xlink:href="#MicrosoftYaHei-53"/>
     <use xlink:href="#MicrosoftYaHei-49" x="57.714844"/>
     <use xlink:href="#MicrosoftYaHei-4e" x="87.109375"/>
     <use xlink:href="#MicrosoftYaHei-52" x="168.408203"/>
     <use xlink:href="#MicrosoftYaHei-20" x="233.691406"/>
     <use xlink:href="#MicrosoftYaHei-74" x="263.28125"/>
     <use xlink:href="#MicrosoftYaHei-68" x="300.537109"/>
     <use xlink:href="#MicrosoftYaHei-72" x="362.109375"/>
     <use xlink:href="#MicrosoftYaHei-65" x="398.917969"/>
     <use xlink:href="#MicrosoftYaHei-73" x="455.65625"/>
     <use xlink:href="#MicrosoftYaHei-68" x="501.945312"/>
     <use xlink:href="#MicrosoftYaHei-6f" x="563.517578"/>
     <use xlink:href="#MicrosoftYaHei-6c" x="627.091797"/>
     <use xlink:href="#MicrosoftYaHei-64" x="653.703125"/>
    </g>
   </g>
  </g>
 </g>
 <defs>
  <clipPath id="p73c39185c8">
   <rect x="57.6" y="41.472" width="357.12" height="266.112"/>
  </clipPath>
 </defs>
</svg>
