<svg xmlns="http://www.w3.org/2000/svg" xmlns:xlink="http://www.w3.org/1999/xlink" width="614.4" height="460.8" viewBox="0 0 460.8 345.6"><path d="M0 345.6h460.8V0H0z" fill="#fff"/><path d="M57.6 307.584h357.12V41.472H57.6z" fill="#fff"/><path stroke-width=".8" stroke-linejoin="round" fill="none" stroke="#000" d="M73.833 307.584v3.5"/><symbol id="a"><path transform="matrix(.001 0 0 .001 -.044 .012)" d="M44 363c0 133 22 234 66 303 44 68 109 103 193 103 160 0 240-130 240-388 0-128-23-225-68-292C430 21 367-12 286-12c-77 0-137 32-179 96S44 241 44 363zm98 5c0-202 51-302 153-302 100 0 150 102 150 307 0 210-49 316-147 316-104 0-156-107-156-321z"/></symbol><use xlink:href="#a" transform="matrix(10 0 0 -10 71.343 322.704)"/><path stroke-width=".8" stroke-linejoin="round" fill="none" stroke="#000" d="M114.618 307.584v3.5"/><symbol id="b"><path transform="translate(-.058) scale(.001)" d="M417 558c0 40-13 72-39 96-26 23-61 35-105 35-32 0-63-8-95-24s-62-39-89-68v92c24 26 52 45 84 59 31 14 68 21 111 21 68 0 122-19 164-55 42-37 63-87 63-149 0-56-13-104-38-144-26-41-69-83-131-125-64-44-106-76-127-94-22-19-37-37-45-54-8-18-12-39-12-63h376V0H58v38c0 43 6 80 18 110s31 60 59 89c27 29 70 64 128 104 59 42 99 78 121 110 22 31 33 67 33 107z"/></symbol><symbol id="c"><path transform="matrix(.001 0 0 .001 -.085 .012)" d="M515 233c0-74-25-133-74-178S326-12 244-12C172-12 119-1 85 19v97c51-34 103-50 156-50 52 0 95 14 127 44 32 29 49 68 49 116s-17 85-51 112-81 41-142 41c-48 0-90-2-128-6l28 383h353v-84H204l-16-214 69 3c80 0 143-20 189-60s69-96 69-168z"/></symbol><use xlink:href="#b" transform="matrix(10 0 0 -10 109.34 322.584)"/><use xlink:href="#c" transform="matrix(10 0 0 -10 115.47 322.704)"/><path stroke-width=".8" stroke-linejoin="round" fill="none" stroke="#000" d="M155.404 307.584v3.5"/><use xlink:href="#c" transform="matrix(10 0 0 -10 150.395 322.704)"/><use xlink:href="#a" transform="matrix(10 0 0 -10 155.845 322.704)"/><path stroke-width=".8" stroke-linejoin="round" fill="none" stroke="#000" d="M196.19 307.584v3.5"/><symbol id="d"><path transform="translate(-.054) scale(.001)" d="M535 697c-80-139-142-267-188-385S273 90 263 0h-99c12 88 40 190 85 304 44 114 104 236 180 368H54v84h481v-59z"/></symbol><use xlink:href="#d" transform="matrix(10 0 0 -10 190.87 322.584)"/><use xlink:href="#c" transform="matrix(10 0 0 -10 197.04 322.704)"/><path stroke-width=".8" stroke-linejoin="round" fill="none" stroke="#000" d="M236.976 307.584v3.5"/><symbol id="e"><path transform="translate(-.104) scale(.001)" d="M278 0v647c-15-15-40-32-76-50-36-19-68-32-98-39v93c40 11 82 29 128 53 45 24 80 47 105 69h36V0h-95z"/></symbol><use xlink:href="#e" transform="matrix(10 0 0 -10 229.227 322.584)"/><use xlink:href="#a" transform="matrix(10 0 0 -10 234.487 322.704)"/><use xlink:href="#a" transform="matrix(10 0 0 -10 240.347 322.704)"/><path stroke-width=".8" stroke-linejoin="round" fill="none" stroke="#000" d="M277.761 307.584v3.5"/><use xlink:href="#e" transform="matrix(10 0 0 -10 270.012 322.584)"/><use xlink:href="#b" transform="matrix(10 0 0 -10 275.412 322.584)"/><use xlink:href="#c" transform="matrix(10 0 0 -10 281.542 322.704)"/><path stroke-width=".8" stroke-linejoin="round" fill="none" stroke="#000" d="M318.547 307.584v3.5"/><use xlink:href="#e" transform="matrix(10 0 0 -10 310.798 322.584)"/><use xlink:href="#c" transform="matrix(10 0 0 -10 316.468 322.704)"/><use xlink:href="#a" transform="matrix(10 0 0 -10 321.918 322.704)"/><path stroke-width=".8" stroke-linejoin="round" fill="none" stroke="#000" d="M359.333 307.584v3.5"/><use xlink:href="#e" transform="matrix(10 0 0 -10 351.584 322.584)"/><use xlink:href="#d" transform="matrix(10 0 0 -10 356.944 322.584)"/><use xlink:href="#c" transform="matrix(10 0 0 -10 363.114 322.704)"/><path stroke-width=".8" stroke-linejoin="round" fill="none" stroke="#000" d="M400.119 307.584v3.5"/><use xlink:href="#b" transform="matrix(10 0 0 -10 391.91 322.584)"/><use xlink:href="#a" transform="matrix(10 0 0 -10 397.63 322.704)"/><use xlink:href="#a" transform="matrix(10 0 0 -10 403.49 322.704)"/><symbol id="f"><path transform="translate(-.021) scale(.001)" d="M555 669H336V0h-98v669H21v87h534v-87z"/></symbol><symbol id="g"><path transform="translate(-.085) scale(.001)" d="M375 445c-16 11-38 17-66 17-38 0-68-18-92-52-24-35-36-81-36-137V0H85v540h96V430h2c27 79 74 119 142 119 21 0 38-3 50-7v-97z"/></symbol><symbol id="h"><path transform="matrix(.001 0 0 .001 -.045 .012)" d="M98 502c54 34 116 51 186 51 130 0 195-69 195-205V0h-94v83h-3c-38-64-93-95-165-95-53 0-95 14-126 42S45 96 45 145c0 100 60 159 180 176l160 22c0 88-37 133-110 133-65 0-124-22-177-66v92zm160-248c-44-6-75-18-91-34-17-16-25-39-25-68 0-26 9-47 27-63s42-24 72-24c42 0 76 14 103 44 27 29 41 66 41 110v52l-127-17z"/></symbol><symbol id="i"><path transform="translate(-.074) scale(.001)" d="M74 730c0 17 5 31 17 43 11 12 25 18 43 18 17 0 31-6 43-18s18-26 18-43-6-31-18-42c-12-12-26-17-43-17-18 0-32 5-43 17-12 11-17 25-17 42zM85 0v540h96V0H85z"/></symbol><symbol id="j"><path transform="translate(-.085) scale(.001)" d="M542 0h-95v307c0 111-41 167-122 167-42 0-77-16-104-47-27-32-40-71-40-119V0H85v540h96v-89h2c40 68 99 102 177 102 59 0 104-19 135-57s47-94 47-166V0z"/></symbol><symbol id="l"><path transform="matrix(.001 0 0 .001 -.049 .012)" d="M525 246H147c2-58 18-103 48-134 30-32 71-47 125-47 60 0 116 19 167 58V38C439 4 376-12 298-12S159 12 115 62c-44 49-66 118-66 206 0 82 24 150 72 204s107 81 179 81c70 0 125-23 165-68 40-46 60-109 60-191v-48zm-95 76c-1 49-13 87-35 114-23 26-55 40-96 40-38 0-71-15-99-43s-46-65-53-111h283z"/></symbol><symbol id="m"><path transform="matrix(.001 0 0 .001 -.085 .248)" d="M181 76v-324H85v788h96v-93h2c42 70 104 106 186 106 68 0 122-25 162-73 39-48 59-113 59-194 0-90-23-163-67-217S419-12 344-12c-70 0-123 29-161 88h-2zm0 147c0-44 14-82 42-112s64-45 107-45c50 0 90 19 119 59 28 39 43 93 43 162 0 58-14 104-40 137-27 33-64 50-110 50-48 0-86-17-116-51s-45-77-45-129v-71z"/></symbol><symbol id="n"><path transform="matrix(.001 0 0 .001 -.055 .012)" d="M55 117c48-36 100-53 156-53 74 0 112 24 112 74 0 20-9 37-25 51-16 13-49 29-99 48-60 24-99 47-117 71s-26 53-26 87c0 47 20 85 60 114s90 44 150 44c46 0 88-8 128-24v-92c-41 26-87 39-137 39-31 0-56-7-75-20-20-14-29-31-29-53s7-39 21-51 44-28 92-46c60-23 100-46 122-70 21-24 32-54 32-89 0-50-21-89-61-117-41-28-93-42-157-42C146-12 97-1 55 19v98z"/></symbol><symbol id="o"><path transform="matrix(.001 0 0 .001 -.049 .012)" d="M49 264c0 89 25 159 75 211s117 78 203 78c80 0 144-25 190-75s69-118 69-206c0-85-25-154-74-206S397-12 315-12c-81 0-146 25-194 76-48 50-72 117-72 200zm98 3c0-62 15-111 47-147 31-36 73-54 127-54s96 17 125 52c28 35 43 85 43 151s-15 116-43 152c-29 35-71 53-125 53s-97-19-128-56-46-87-46-151z"/></symbol><symbol id="p"><path transform="matrix(.001 0 0 .001 -.049 .012)" d="M554 0h-96v90h-1C417 22 355-12 273-12c-69 0-124 24-164 72S49 174 49 257c0 89 22 161 68 215s105 81 179 81 127-29 161-86h1v332h96V0zm-95 321c0 43-15 79-43 109-28 29-63 44-105 44-51 0-91-19-120-57-30-38-44-90-44-155 0-61 14-109 42-144s65-52 113-52c46 0 83 17 113 51 29 34 44 77 44 129v75z"/></symbol><use xlink:href="#f" transform="matrix(10 0 0 -10 202.19 337.068)"/><use xlink:href="#g" transform="matrix(10 0 0 -10 207.623 337.068)"/><use xlink:href="#h" transform="matrix(10 0 0 -10 211.043 337.188)"/><use xlink:href="#i" transform="matrix(10 0 0 -10 216.863 337.068)"/><use xlink:href="#j" transform="matrix(10 0 0 -10 219.633 337.068)"/><use xlink:href="#k" transform="matrix(10 0 0 -10 224.943 337.068)"/><use xlink:href="#l" transform="matrix(10 0 0 -10 228.393 337.188)"/><use xlink:href="#m" transform="matrix(10 0 0 -10 234.423 339.548)"/><use xlink:href="#i" transform="matrix(10 0 0 -10 240.703 337.068)"/><use xlink:href="#n" transform="matrix(10 0 0 -10 243.173 337.188)"/><use xlink:href="#o" transform="matrix(10 0 0 -10 247.743 337.188)"/><use xlink:href="#p" transform="matrix(10 0 0 -10 254.103 337.188)"/><use xlink:href="#l" transform="matrix(10 0 0 -10 260.503 337.188)"/><use xlink:href="#n" transform="matrix(10 0 0 -10 266.233 337.188)"/><path stroke-width=".8" stroke-linejoin="round" fill="none" stroke="#000" d="M57.6 295.769h-3.5"/><use xlink:href="#a" transform="matrix(10 0 0 -10 45.18 299.889)"/><path stroke-width=".8" stroke-linejoin="round" fill="none" stroke="#000" d="M57.6 259.324h-3.5"/><use xlink:href="#e" transform="matrix(10 0 0 -10 22.343 263.324)"/><use xlink:href="#a" transform="matrix(10 0 0 -10 27.603 263.444)"/><use xlink:href="#a" transform="matrix(10 0 0 -10 33.463 263.444)"/><use xlink:href="#a" transform="matrix(10 0 0 -10 39.323 263.444)"/><use xlink:href="#a" transform="matrix(10 0 0 -10 45.183 263.444)"/><path stroke-width=".8" stroke-linejoin="round" fill="none" stroke="#000" d="M57.6 222.88h-3.5"/><use xlink:href="#b" transform="matrix(10 0 0 -10 21.883 226.88)"/><use xlink:href="#a" transform="matrix(10 0 0 -10 27.603 227)"/><use xlink:href="#a" transform="matrix(10 0 0 -10 33.463 227)"/><use xlink:href="#a" transform="matrix(10 0 0 -10 39.323 227)"/><use xlink:href="#a" transform="matrix(10 0 0 -10 45.183 227)"/><path stroke-width=".8" stroke-linejoin="round" fill="none" stroke="#000" d="M57.6 186.435h-3.5"/><symbol id="q"><path transform="matrix(.001 0 0 .001 -.07 .012)" d="M70 126c51-40 109-60 175-60 52 0 93 12 124 38 30 26 46 60 46 104 0 95-69 143-206 143h-63v79h60c121 0 182 45 182 135 0 82-47 124-139 124-54 0-104-18-150-53v90c49 28 107 43 173 43 64 0 116-17 155-51s59-77 59-131c0-99-51-163-151-191v-1c54-6 97-26 129-58 32-33 48-74 48-123 0-68-25-123-74-164-49-42-114-62-195-62-72 0-129 13-173 39v99z"/></symbol><use xlink:href="#q" transform="matrix(10 0 0 -10 22.003 190.555)"/><use xlink:href="#a" transform="matrix(10 0 0 -10 27.603 190.555)"/><use xlink:href="#a" transform="matrix(10 0 0 -10 33.463 190.555)"/><use xlink:href="#a" transform="matrix(10 0 0 -10 39.323 190.555)"/><use xlink:href="#a" transform="matrix(10 0 0 -10 45.183 190.555)"/><path stroke-width=".8" stroke-linejoin="round" fill="none" stroke="#000" d="M57.6 149.99h-3.5"/><symbol id="r"><path transform="translate(-.008) scale(.001)" d="M454 756V257h113v-79H454V0h-93v178H8v74c63 70 126 152 190 244 63 92 115 179 157 260h99zM116 257h245v360c-34-61-70-120-109-177-39-58-84-119-136-183z"/></symbol><use xlink:href="#r" transform="matrix(10 0 0 -10 21.383 153.99)"/><use xlink:href="#a" transform="matrix(10 0 0 -10 27.603 154.11)"/><use xlink:href="#a" transform="matrix(10 0 0 -10 33.463 154.11)"/><use xlink:href="#a" transform="matrix(10 0 0 -10 39.323 154.11)"/><use xlink:href="#a" transform="matrix(10 0 0 -10 45.183 154.11)"/><path stroke-width=".8" stroke-linejoin="round" fill="none" stroke="#000" d="M57.6 113.546h-3.5"/><use xlink:href="#c" transform="matrix(10 0 0 -10 22.153 117.666)"/><use xlink:href="#a" transform="matrix(10 0 0 -10 27.603 117.666)"/><use xlink:href="#a" transform="matrix(10 0 0 -10 33.463 117.666)"/><use xlink:href="#a" transform="matrix(10 0 0 -10 39.323 117.666)"/><use xlink:href="#a" transform="matrix(10 0 0 -10 45.183 117.666)"/><path stroke-width=".8" stroke-linejoin="round" fill="none" stroke="#000" d="M57.6 77.102h-3.5"/><symbol id="s"><path transform="matrix(.001 0 0 .001 -.058 .012)" d="M497 659c-40 20-81 30-123 30-66 0-119-29-159-85-40-57-60-135-60-233h3c35 69 92 104 171 104 65 0 117-22 156-64 39-43 59-100 59-170 0-74-23-135-68-182-45-48-102-71-172-71-77 0-137 29-181 89S58 222 58 333c0 133 28 239 86 318 57 78 133 118 227 118 53 0 95-8 126-22v-88zM161 248c0-50 13-93 40-129 26-36 62-53 106-53 41 0 75 15 101 46 26 30 39 70 39 118 0 52-13 93-37 122s-59 44-104 44c-44 0-79-15-105-44-27-30-40-64-40-104z"/></symbol><use xlink:href="#s" transform="matrix(10 0 0 -10 21.883 81.222)"/><use xlink:href="#a" transform="matrix(10 0 0 -10 27.603 81.222)"/><use xlink:href="#a" transform="matrix(10 0 0 -10 33.463 81.222)"/><use xlink:href="#a" transform="matrix(10 0 0 -10 39.323 81.222)"/><use xlink:href="#a" transform="matrix(10 0 0 -10 45.183 81.222)"/><symbol id="t"><path transform="matrix(.001 0 0 .001 -.049 .012)" d="M615 31C559 2 490-12 406-12 297-12 210 22 146 91c-65 68-97 159-97 273 0 121 36 219 109 293s166 112 278 112c72 0 131-11 179-31V636c-54 30-114 45-178 45-84 0-153-28-206-84-54-56-80-132-80-227 0-91 24-163 74-216 50-54 115-80 195-80 74 0 139 17 195 51V31z"/></symbol><symbol id="u"><path transform="matrix(.001 0 0 .001 -.022 .011)" d="M345 5c-22-10-50-16-85-16-97 0-145 53-145 160v312H22v79h93v130l95 30V540h135v-79H210V166c0-36 6-61 18-76 12-16 33-23 61-23 21 0 40 6 56 18V5z"/></symbol><use xlink:href="#t" transform="matrix(0 -10 -10 0 14.939 184.741)"/><use xlink:href="#o" transform="matrix(0 -10 -10 0 14.939 178.051)"/><use xlink:href="#n" transform="matrix(0 -10 -10 0 14.939 171.631)"/><use xlink:href="#u" transform="matrix(0 -10 -10 0 14.929 167.331)"/><clipPath id="v"><path transform="matrix(1 0 0 -1 0 345.6)" d="M57.6 38.016h357.12v266.112H57.6z"/></clipPath><g clip-path="url(#v)"><path stroke-width="1.5" stroke-linecap="square" stroke-linejoin="round" fill="none" stroke="#1f77b4" d="m73.833 95.6 1.631 145.068 1.632 25.95 1.631 10.173 1.631 6.608 1.632 8.344 1.631 1.146 1.632-7.6 1.631 8.479 1.632.2 1.631-10.485 1.631 3.4 1.632 6.348 1.631 1.086 1.632-6.413 1.631 6.88 1.632-.207 1.631.46 1.631-16.648 1.632 2.08 1.631 5.715 1.632-3.51 1.631 5.179 1.632 3.539 1.631-5.001 1.631-1.437 1.632 2.956 1.631.232 1.632 4.105 1.631.963 1.632-1.247 1.631.195 1.631-.124 1.632-2.34 1.631-5.275 1.632 8.26 1.631.414 1.632-4.63 1.631 5.767 3.263-6.34 1.631 5.47 3.263.377 1.632-.705 1.631-.005 1.632-13.214 1.63 14.776 1.632-1.287 1.632.83 1.631.458 1.632-16.048 1.631 14.402 1.632-.287 1.63.052 1.632.82 1.632.399 1.631-.232 1.632.46 1.631.764 1.632-11.631 1.631 9.464 1.631.587 1.632.727 1.631-3.151 1.632 3.928 1.631-.746 1.632-.13 1.631-10.8 1.631 9.02 1.632 1.934 1.631.21 1.632-2.026 1.631 2.126 1.632-2.757 1.631 2.492 1.631-.875 1.632.762 1.631-3.073 1.632 2.878 1.631-1.014 1.632 1.447 1.631.214 1.631-.676 1.632.296 1.631.115 1.632-.888 1.631.429 1.632.596 1.631-3.479 1.631 1.977 1.632-.238 3.263 1.177 1.631-1.742 1.632 1.78 1.631-2.11 1.631 1.573 1.632.036 1.631-1.138 1.632 1.032 1.631 1.388 1.632-1.15 1.631.677 1.631-1.487 1.632 1.433 1.631-2.495 1.632 1.744 1.631-.33 1.632.629 1.631 1.49 1.631-1.172 1.632-1.87 1.631 2.732 1.632-1.131 1.631.74 1.632-.603 1.631-.123 1.631-7.29 1.632 5.507 1.631 2.745 1.632.427 1.631-.468 1.632-2.991 1.631 3.066 1.631-.275 3.263-1.144 1.632-6.456 1.631 5.843 1.632-.11 1.631 1.297 1.631.935 1.632-.678 1.631.332 1.632-.21 1.631.018 1.632-.64 1.631-6.126 1.631 6.953 3.263.43 1.632.455 1.631-.58 1.632-1.272 3.262-.786 3.263.725 1.632 1.532 1.631-.122 1.632.34 1.631-.486 1.632-.604 1.63.977 1.632-1.95 1.632.726 1.631-.808 1.632.505 1.631.181 1.631 1.034 1.632.167 1.631.348 1.632-1.844 1.631 1.738 1.632.299 1.631-.529 1.632-.025 1.63.163 1.632.33 1.632-.15 1.631-.47 1.632-1.117 1.631-.605 1.632.636 1.631.888 1.631-.487 1.632.571 1.631-.742 1.632-.051 1.631.916 1.632-.135 1.631.054 1.631.633 3.263.007 1.632-.17 1.631-.562 1.632-.3 1.631-.074 3.263.716 1.631.084 1.632-.45 1.631.083 1.632.707 1.631-.337 3.263-.099 1.631.545"/></g><clipPath id="w"><path transform="matrix(1 0 0 -1 0 345.6)" d="M57.6 38.016h357.12v266.112H57.6z"/></clipPath><g clip-path="url(#w)"><path stroke-width="1.5" stroke-linecap="square" stroke-linejoin="round" fill="none" stroke="#ff7f0e" d="m73.833 76.202 1.631 67.272 1.632-10.931 1.631 142.253 1.631 7.547 1.632-7.676 1.631-145.375 1.632 152.439 1.631-145.214 1.632-.092 1.631 36.09 1.631 117.592 1.632-12.735 1.631-9.175 1.632 20.84 1.631-4.153 1.632-117.516 1.631 101.61 1.631-10.456 1.632 7.179 1.631-11.762 1.632-54.634 1.631 80.683 1.632 11.715 1.631-16.633 1.631-221.502 1.632 219.409 1.631 3.833 1.632-9.134 1.631 24.087 1.632-.209 1.631-5.524 1.631 4.496 1.632-1.963 1.631 2.67 1.632-82.107 1.631 73.214 1.632 1.772 1.631-.043 1.631.068 1.632 3.157 1.631-8.823 1.632 3.724 1.631-1.418 1.632 5.226 1.631 7.297 1.632-.358 3.262-.01 1.632-1.19 1.631-2.805 1.632 2.707 1.631-.71 1.632-11.593 1.63 1.837 1.632-3.238 1.632-17.32 1.631 23.774 1.632-1.185 3.263 8.909 1.631-12.5 1.631-33.165 1.632 29.75 1.631 15.899 1.632.92 1.631-.634 1.632-1.45 1.631-26 1.631 22.218 1.632-6.807 1.631 4.08 1.632-.391 1.631 8.307 1.632 2.094 1.631-1.082 1.631-1.67 1.632 1.058 1.631-17.556 1.632 9.303 1.631.806 1.632-8.062 1.631.491 1.631 9.404 1.632 6.496 1.631.184 1.632.474 1.631-1.581 1.632-8.854 1.631 4.983 1.631-1.747 1.632.24 1.631-.15 1.632 4.087 1.631-.887 1.632 1.101 1.631 1.684 1.631.727 3.263.125 3.263-.286 1.632-2.714 1.631-9.638 1.631-1.489 1.632-8.503 1.631 18.54 1.632 3.5 1.631-.315 1.632.21 3.262 1.199 1.632-.118 1.631.445h1.632l1.631-1.682 1.632-7.965 1.631-9.104 1.631 11.87 1.632 5.246 1.631.765 1.632 1.2 1.631-1.692 1.632.105 1.631-2.342 1.631-5.444 1.632-6.876 1.631 10.542 1.632-3.452 1.631 6.12 3.263.94 1.631.532 1.632-1.935 1.631-.439 1.632 1.532 1.631-2.102 1.632-3.337 1.631 4.294 1.631.015 1.632-5.32 1.631-9.17 1.632-1.18 1.631 14.634 1.632 1.65 1.631 2.264 1.631-5.725 1.632 5.174 1.631-.15 1.632-2.955 1.631 2.156 1.632-.363 1.631-3.172 1.632-2.497 1.63-5.839 1.632 10.256 1.632-2.324 1.631 3.065 1.632-.044 1.631 1.772 1.631 1.202 1.632-.13 1.631-.796 1.632.508 1.631-1.734 1.632-3.5 1.631-2.792 1.632 2.652 1.63-8.427 1.632 5.033 1.632-2.12 1.631 7.201 1.632 1.066 1.631 1.683 1.632 1.296 1.631-.154 1.631-1.24 1.632-.928 3.263.966 1.631.221 1.632-1.277 1.631-8.62 1.631-2.565 1.632 10.256 1.631-.466 1.632 1.044 1.631 2.32 1.632-1.285 1.631 1.68 1.631-.851 1.632.436 1.631-.02 1.632-.142 1.631.148 1.632-1.515 1.631-.04 1.631-.336 1.632 1.09 1.631 1.27"/></g><path stroke-width=".8" stroke-linecap="square" stroke-miterlimit="10" fill="none" stroke="#000" d="M57.6 307.584V41.472M414.72 307.584V41.472M57.6 307.584h357.12M57.6 41.472h357.12"/><path d="M344.676 72.622h64.444c1.067 0 1.6-.533 1.6-1.6v-23.95c0-1.067-.533-1.6-1.6-1.6h-64.444c-1.066 0-1.6.533-1.6 1.6v23.95c0 1.067.534 1.6 1.6 1.6z" fill="#fff" fill-opacity=".8"/><path stroke-miterlimit="10" fill="none" stroke="#d5d6d5" stroke-opacity=".8" d="M344.676 72.622h64.444c1.067 0 1.6-.533 1.6-1.6v-23.95c0-1.067-.533-1.6-1.6-1.6h-64.444c-1.066 0-1.6.533-1.6 1.6v23.95c0 1.067.534 1.6 1.6 1.6z"/><path stroke-width="1.5" stroke-linecap="square" stroke-linejoin="round" fill="none" stroke="#1f77b4" d="M346.276 52.263h16"/><symbol id="x"><path transform="translate(-.027) scale(.001)" d="M362 718c-18 9-38 14-58 14-60 0-90-37-90-111v-81h127v-79H214V0h-94v461H27v79h93v85c0 58 16 103 50 136 33 33 75 50 127 50 27 0 49-3 65-9v-84z"/></symbol><symbol id="y"><path transform="translate(-.013) scale(.001)" d="M494 540 313 268 492 0H380L277 172c-6 9-13 23-23 42h-2c-1-2-9-16-24-42L123 0H13l183 265L21 540h111l101-181c6-11 14-25 23-43h2l131 224h105z"/></symbol><symbol id="z"><path transform="translate(-.007) scale(.001)" d="M521 540 307 0h-97L7 540h104l132-386c10-31 17-57 19-77h3c3 27 9 52 17 75l138 388h101z"/></symbol><use xlink:href="#x" transform="matrix(8 0 0 -8 368.892 55.063)"/><use xlink:href="#i" transform="matrix(8 0 0 -8 372.044 55.063)"/><use xlink:href="#y" transform="matrix(8 0 0 -8 373.684 55.063)"/><use xlink:href="#l" transform="matrix(8 0 0 -8 377.966 55.159)"/><use xlink:href="#p" transform="matrix(8 0 0 -8 382.502 55.159)"/><use xlink:href="#k" transform="matrix(8 0 0 -8 387.23 55.063)"/><use xlink:href="#z" transform="matrix(8 0 0 -8 389.654 55.063)"/><path stroke-width="1.5" stroke-linecap="square" stroke-linejoin="round" fill="none" stroke="#ff7f0e" d="M346.276 64.638h16"/><symbol id="A"><path transform="matrix(.001 0 0 .001 -.085 .012)" d="M181 76V0H85v799h96V447h2c42 70 104 106 186 106 67 0 121-24 161-72s60-113 60-195c0-92-23-164-67-218-45-54-105-80-179-80-71 0-125 29-161 88h-2zm0 146c0-44 14-81 42-111s64-45 107-45c50 0 90 19 119 59 28 39 43 93 43 162 0 57-14 102-40 136-27 34-64 51-110 51-47 0-86-17-116-51s-45-76-45-128v-73z"/></symbol><symbol id="B"><path transform="translate(-.085) scale(.001)" d="M85 0v799h96V0H85z"/></symbol><use xlink:href="#z" transform="matrix(8 0 0 -8 368.732 67.438)"/><use xlink:href="#h" transform="matrix(8 0 0 -8 373.08 67.534)"/><use xlink:href="#g" transform="matrix(8 0 0 -8 377.824 67.438)"/><use xlink:href="#i" transform="matrix(8 0 0 -8 380.792 67.438)"/><use xlink:href="#h" transform="matrix(8 0 0 -8 382.688 67.534)"/><use xlink:href="#A" transform="matrix(8 0 0 -8 387.432 67.534)"/><use xlink:href="#B" transform="matrix(8 0 0 -8 392.544 67.438)"/><use xlink:href="#l" transform="matrix(8 0 0 -8 394.384 67.534)"/><use xlink:href="#k" transform="matrix(8 0 0 -8 398.528 67.438)"/><use xlink:href="#z" transform="matrix(8 0 0 -8 400.952 67.438)"/><use xlink:href="#k" transform="matrix(8 0 0 -8 405.096 67.438)"/></svg>