<svg xmlns="http://www.w3.org/2000/svg" xmlns:xlink="http://www.w3.org/1999/xlink" width="614.4" height="460.8" viewBox="0 0 460.8 345.6"><path d="M0 345.6h460.8V0H0z" fill="#fff"/><path d="M57.6 307.584h357.12V41.472H57.6z" fill="#fff"/><path stroke-width=".8" stroke-linejoin="round" fill="none" stroke="#000" d="M73.833 307.584v3.5"/><symbol id="a"><path transform="matrix(.001 0 0 .001 -.044 .012)" d="M44 363c0 133 22 234 66 303 44 68 109 103 193 103 160 0 240-130 240-388 0-128-23-225-68-292C430 21 367-12 286-12c-77 0-137 32-179 96S44 241 44 363zm98 5c0-202 51-302 153-302 100 0 150 102 150 307 0 210-49 316-147 316-104 0-156-107-156-321z"/></symbol><use xlink:href="#a" transform="matrix(10 0 0 -10 71.343 322.704)"/><path stroke-width=".8" stroke-linejoin="round" fill="none" stroke="#000" d="M138.829 307.584v3.5"/><symbol id="b"><path transform="translate(-.058) scale(.001)" d="M417 558c0 40-13 72-39 96-26 23-61 35-105 35-32 0-63-8-95-24s-62-39-89-68v92c24 26 52 45 84 59 31 14 68 21 111 21 68 0 122-19 164-55 42-37 63-87 63-149 0-56-13-104-38-144-26-41-69-83-131-125-64-44-106-76-127-94-22-19-37-37-45-54-8-18-12-39-12-63h376V0H58v38c0 43 6 80 18 110s31 60 59 89c27 29 70 64 128 104 59 42 99 78 121 110 22 31 33 67 33 107z"/></symbol><use xlink:href="#b" transform="matrix(10 0 0 -10 130.62 322.584)"/><use xlink:href="#a" transform="matrix(10 0 0 -10 136.34 322.704)"/><use xlink:href="#a" transform="matrix(10 0 0 -10 142.2 322.704)"/><path stroke-width=".8" stroke-linejoin="round" fill="none" stroke="#000" d="M203.825 307.584v3.5"/><symbol id="c"><path transform="translate(-.008) scale(.001)" d="M454 756V257h113v-79H454V0h-93v178H8v74c63 70 126 152 190 244 63 92 115 179 157 260h99zM116 257h245v360c-34-61-70-120-109-177-39-58-84-119-136-183z"/></symbol><use xlink:href="#c" transform="matrix(10 0 0 -10 195.115 322.584)"/><use xlink:href="#a" transform="matrix(10 0 0 -10 201.335 322.704)"/><use xlink:href="#a" transform="matrix(10 0 0 -10 207.195 322.704)"/><path stroke-width=".8" stroke-linejoin="round" fill="none" stroke="#000" d="M268.82 307.584v3.5"/><symbol id="d"><path transform="matrix(.001 0 0 .001 -.058 .012)" d="M497 659c-40 20-81 30-123 30-66 0-119-29-159-85-40-57-60-135-60-233h3c35 69 92 104 171 104 65 0 117-22 156-64 39-43 59-100 59-170 0-74-23-135-68-182-45-48-102-71-172-71-77 0-137 29-181 89S58 222 58 333c0 133 28 239 86 318 57 78 133 118 227 118 53 0 95-8 126-22v-88zM161 248c0-50 13-93 40-129 26-36 62-53 106-53 41 0 75 15 101 46 26 30 39 70 39 118 0 52-13 93-37 122s-59 44-104 44c-44 0-79-15-105-44-27-30-40-64-40-104z"/></symbol><use xlink:href="#d" transform="matrix(10 0 0 -10 260.611 322.704)"/><use xlink:href="#a" transform="matrix(10 0 0 -10 266.331 322.704)"/><use xlink:href="#a" transform="matrix(10 0 0 -10 272.191 322.704)"/><path stroke-width=".8" stroke-linejoin="round" fill="none" stroke="#000" d="M333.816 307.584v3.5"/><symbol id="e"><path transform="matrix(.001 0 0 .001 -.048 .011)" d="M48 211c0 43 13 83 39 120s59 63 101 79c-34 18-60 42-79 71s-28 61-28 95c0 35 9 67 27 97s44 53 77 70c32 17 68 26 108 26s76-9 109-25c32-17 58-40 76-70s28-62 28-98c0-34-10-65-28-94-19-30-45-54-78-72 40-16 74-43 100-79 26-37 39-77 39-120 0-44-11-82-31-116-21-34-50-61-88-79s-80-27-127-27-89 9-127 27-67 45-87 79c-21 34-31 73-31 116zm94 4c0-45 13-81 41-108s64-40 110-40c45 0 82 13 110 41 28 27 43 63 43 107 0 42-15 77-43 105-29 28-65 43-109 43s-81-14-109-42c-29-28-43-63-43-106zm27 353c0-34 12-64 36-88s53-36 88-36c34 0 64 12 89 37 24 24 37 53 37 87s-12 62-36 86-53 36-89 36-66-12-90-35-35-52-35-87z"/></symbol><use xlink:href="#e" transform="matrix(10 0 0 -10 325.507 322.694)"/><use xlink:href="#a" transform="matrix(10 0 0 -10 331.327 322.704)"/><use xlink:href="#a" transform="matrix(10 0 0 -10 337.187 322.704)"/><path stroke-width=".8" stroke-linejoin="round" fill="none" stroke="#000" d="M398.812 307.584v3.5"/><symbol id="f"><path transform="translate(-.104) scale(.001)" d="M278 0v647c-15-15-40-32-76-50-36-19-68-32-98-39v93c40 11 82 29 128 53 45 24 80 47 105 69h36V0h-95z"/></symbol><use xlink:href="#f" transform="matrix(10 0 0 -10 388.134 322.584)"/><use xlink:href="#a" transform="matrix(10 0 0 -10 393.394 322.704)"/><use xlink:href="#a" transform="matrix(10 0 0 -10 399.253 322.704)"/><use xlink:href="#a" transform="matrix(10 0 0 -10 405.113 322.704)"/><symbol id="g"><path transform="matrix(.001 0 0 .001 -.063 .012)" d="M63 142c22-20 53-37 92-50 38-13 75-19 111-19 106 0 159 37 159 113 0 21-6 40-17 57-12 17-27 32-47 45s-58 33-112 60c-76 38-126 73-150 105s-36 69-36 111c0 63 25 113 75 150 50 36 114 55 192 55 74 0 129-9 165-27V635c-46 32-103 48-173 48-46 0-84-10-113-29-29-20-43-47-43-81 0-31 10-56 30-75 20-20 63-46 131-79 74-36 125-71 155-106 30-36 45-76 45-120 0-66-24-117-72-152-48-36-115-53-201-53-30 0-65 4-105 12S81 18 63 31v111z"/></symbol><symbol id="h"><path transform="matrix(.001 0 0 .001 -.022 .011)" d="M345 5c-22-10-50-16-85-16-97 0-145 53-145 160v312H22v79h93v130l95 30V540h135v-79H210V166c0-36 6-61 18-76 12-16 33-23 61-23 21 0 40 6 56 18V5z"/></symbol><symbol id="i"><path transform="matrix(.001 0 0 .001 -.049 .012)" d="M525 246H147c2-58 18-103 48-134 30-32 71-47 125-47 60 0 116 19 167 58V38C439 4 376-12 298-12S159 12 115 62c-44 49-66 118-66 206 0 82 24 150 72 204s107 81 179 81c70 0 125-23 165-68 40-46 60-109 60-191v-48zm-95 76c-1 49-13 87-35 114-23 26-55 40-96 40-38 0-71-15-99-43s-46-65-53-111h283z"/></symbol><symbol id="j"><path transform="matrix(.001 0 0 .001 -.085 .248)" d="M181 76v-324H85v788h96v-93h2c42 70 104 106 186 106 68 0 122-25 162-73 39-48 59-113 59-194 0-90-23-163-67-217S419-12 344-12c-70 0-123 29-161 88h-2zm0 147c0-44 14-82 42-112s64-45 107-45c50 0 90 19 119 59 28 39 43 93 43 162 0 58-14 104-40 137-27 33-64 50-110 50-48 0-86-17-116-51s-45-77-45-129v-71z"/></symbol><symbol id="k"><path transform="matrix(.001 0 0 .001 -.055 .012)" d="M55 117c48-36 100-53 156-53 74 0 112 24 112 74 0 20-9 37-25 51-16 13-49 29-99 48-60 24-99 47-117 71s-26 53-26 87c0 47 20 85 60 114s90 44 150 44c46 0 88-8 128-24v-92c-41 26-87 39-137 39-31 0-56-7-75-20-20-14-29-31-29-53s7-39 21-51 44-28 92-46c60-23 100-46 122-70 21-24 32-54 32-89 0-50-21-89-61-117-41-28-93-42-157-42C146-12 97-1 55 19v98z"/></symbol><use xlink:href="#g" transform="matrix(10 0 0 -10 223.946 337.188)"/><use xlink:href="#h" transform="matrix(10 0 0 -10 228.963 337.178)"/><use xlink:href="#i" transform="matrix(10 0 0 -10 232.884 337.188)"/><use xlink:href="#j" transform="matrix(10 0 0 -10 238.914 339.548)"/><use xlink:href="#k" transform="matrix(10 0 0 -10 245.004 337.188)"/><path stroke-width=".8" stroke-linejoin="round" fill="none" stroke="#000" d="M57.6 296.617h-3.5"/><use xlink:href="#a" transform="matrix(10 0 0 -10 45.18 300.737)"/><path stroke-width=".8" stroke-linejoin="round" fill="none" stroke="#000" d="M57.6 264.893h-3.5"/><symbol id="l"><path transform="matrix(.001 0 0 .001 -.085 .012)" d="M515 233c0-74-25-133-74-178S326-12 244-12C172-12 119-1 85 19v97c51-34 103-50 156-50 52 0 95 14 127 44 32 29 49 68 49 116s-17 85-51 112-81 41-142 41c-48 0-90-2-128-6l28 383h353v-84H204l-16-214 69 3c80 0 143-20 189-60s69-96 69-168z"/></symbol><use xlink:href="#b" transform="matrix(10 0 0 -10 39.461 268.893)"/><use xlink:href="#l" transform="matrix(10 0 0 -10 45.591 269.013)"/><path stroke-width=".8" stroke-linejoin="round" fill="none" stroke="#000" d="M57.6 233.168h-3.5"/><use xlink:href="#l" transform="matrix(10 0 0 -10 39.731 237.288)"/><use xlink:href="#a" transform="matrix(10 0 0 -10 45.181 237.288)"/><path stroke-width=".8" stroke-linejoin="round" fill="none" stroke="#000" d="M57.6 201.443h-3.5"/><symbol id="m"><path transform="translate(-.054) scale(.001)" d="M535 697c-80-139-142-267-188-385S273 90 263 0h-99c12 88 40 190 85 304 44 114 104 236 180 368H54v84h481v-59z"/></symbol><use xlink:href="#m" transform="matrix(10 0 0 -10 39.421 205.443)"/><use xlink:href="#l" transform="matrix(10 0 0 -10 45.591 205.563)"/><path stroke-width=".8" stroke-linejoin="round" fill="none" stroke="#000" d="M57.6 169.718h-3.5"/><use xlink:href="#f" transform="matrix(10 0 0 -10 34.062 173.718)"/><use xlink:href="#a" transform="matrix(10 0 0 -10 39.322 173.838)"/><use xlink:href="#a" transform="matrix(10 0 0 -10 45.182 173.838)"/><path stroke-width=".8" stroke-linejoin="round" fill="none" stroke="#000" d="M57.6 137.993h-3.5"/><use xlink:href="#f" transform="matrix(10 0 0 -10 34.062 141.993)"/><use xlink:href="#b" transform="matrix(10 0 0 -10 39.462 141.993)"/><use xlink:href="#l" transform="matrix(10 0 0 -10 45.592 142.113)"/><path stroke-width=".8" stroke-linejoin="round" fill="none" stroke="#000" d="M57.6 106.268h-3.5"/><use xlink:href="#f" transform="matrix(10 0 0 -10 34.062 110.268)"/><use xlink:href="#l" transform="matrix(10 0 0 -10 39.732 110.388)"/><use xlink:href="#a" transform="matrix(10 0 0 -10 45.182 110.388)"/><path stroke-width=".8" stroke-linejoin="round" fill="none" stroke="#000" d="M57.6 74.544h-3.5"/><use xlink:href="#f" transform="matrix(10 0 0 -10 34.062 78.544)"/><use xlink:href="#m" transform="matrix(10 0 0 -10 39.422 78.544)"/><use xlink:href="#l" transform="matrix(10 0 0 -10 45.592 78.664)"/><path stroke-width=".8" stroke-linejoin="round" fill="none" stroke="#000" d="M57.6 42.819h-3.5"/><use xlink:href="#b" transform="matrix(10 0 0 -10 33.602 46.819)"/><use xlink:href="#a" transform="matrix(10 0 0 -10 39.322 46.939)"/><use xlink:href="#a" transform="matrix(10 0 0 -10 45.182 46.939)"/><symbol id="n"><path transform="translate(-.021) scale(.001)" d="M555 669H336V0h-98v669H21v87h534v-87z"/></symbol><symbol id="o"><path transform="translate(-.085) scale(.001)" d="M542 0h-96v311c0 108-41 163-121 163-42 0-76-16-103-48-28-32-41-72-41-120V0H85v799h96V451h2c41 68 100 102 176 102 122 0 183-74 183-220V0z"/></symbol><symbol id="p"><path transform="translate(-.085) scale(.001)" d="M375 445c-16 11-38 17-66 17-38 0-68-18-92-52-24-35-36-81-36-137V0H85v540h96V430h2c27 79 74 119 142 119 21 0 38-3 50-7v-97z"/></symbol><symbol id="q"><path transform="matrix(.001 0 0 .001 -.049 .012)" d="M49 264c0 89 25 159 75 211s117 78 203 78c80 0 144-25 190-75s69-118 69-206c0-85-25-154-74-206S397-12 315-12c-81 0-146 25-194 76-48 50-72 117-72 200zm98 3c0-62 15-111 47-147 31-36 73-54 127-54s96 17 125 52c28 35 43 85 43 151s-15 116-43 152c-29 35-71 53-125 53s-97-19-128-56-46-87-46-151z"/></symbol><symbol id="r"><path transform="matrix(.001 0 0 .001 -.075 .012)" d="M531 0h-96v85h-2c-36-65-92-97-166-97C139-12 75 64 75 217v323h94V231c0-110 42-165 126-165 42 0 75 15 101 46s39 70 39 117v311h96V0z"/></symbol><symbol id="s"><path transform="matrix(.001 0 0 .001 -.049 .253)" d="M554 45c0-198-97-298-291-298-67 0-125 13-175 37v92c60-33 118-50 174-50 130 0 196 69 196 206v57h-1C415 21 354-12 273-12c-68 0-123 24-163 72-41 48-61 113-61 193 0 92 22 165 67 219s105 81 180 81c72 0 125-29 161-86h1v73h96V45zm-96 276c0 42-14 78-42 108s-63 45-104 45c-52 0-93-20-122-58s-43-91-43-157c0-58 14-104 42-140s65-53 111-53 84 17 114 51 44 77 44 129v75z"/></symbol><symbol id="u"><path transform="matrix(.001 0 0 .001 -.075 .171)" d="M239-171C129-46 75 107 75 289s54 337 164 467h85C214 621 159 466 159 290s54-329 164-461h-84z"/></symbol><symbol id="v"><path transform="translate(-.098) scale(.001)" d="M782 0v501c0 41 2 91 7 149h-2c-9-37-17-62-23-76L515 0h-55L211 569c-6 13-13 40-22 81h-3c3-36 5-87 5-153V0H98v756h132l223-518c17-40 28-71 34-93h3c17 46 29 78 36 95l227 516h126V0h-97z"/></symbol><symbol id="w"><path transform="matrix(.001 0 0 .001 -.085 .012)" d="M181 76V0H85v799h96V447h2c42 70 104 106 186 106 67 0 121-24 161-72s60-113 60-195c0-92-23-164-67-218-45-54-105-80-179-80-71 0-125 29-161 88h-2zm0 146c0-44 14-81 42-111s64-45 107-45c50 0 90 19 119 59 28 39 43 93 43 162 0 57-14 102-40 136-27 34-64 51-110 51-47 0-86-17-116-51s-45-76-45-128v-73z"/></symbol><symbol id="x"><path transform="matrix(.001 0 0 .001 -.011 .171)" d="M12-171C122-40 177 113 177 289S121 621 11 756h85c110-129 165-285 165-468S206-47 96-171H12z"/></symbol><use xlink:href="#n" transform="matrix(0 -10 -10 0 26.475 221.185)"/><use xlink:href="#o" transform="matrix(0 -10 -10 0 26.475 214.815)"/><use xlink:href="#p" transform="matrix(0 -10 -10 0 26.475 208.655)"/><use xlink:href="#q" transform="matrix(0 -10 -10 0 26.595 205.336)"/><use xlink:href="#r" transform="matrix(0 -10 -10 0 26.595 198.716)"/><use xlink:href="#s" transform="matrix(0 -10 -10 0 29.005 192.816)"/><use xlink:href="#o" transform="matrix(0 -10 -10 0 26.475 186.056)"/><use xlink:href="#j" transform="matrix(0 -10 -10 0 28.955 179.896)"/><use xlink:href="#r" transform="matrix(0 -10 -10 0 26.595 173.606)"/><use xlink:href="#h" transform="matrix(0 -10 -10 0 26.585 167.976)"/><use xlink:href="#t" transform="scale(10) rotate(-90 9.547 6.9)"/><use xlink:href="#u" transform="matrix(0 -10 -10 0 28.185 160.756)"/><use xlink:href="#v" transform="matrix(0 -10 -10 0 26.475 157.186)"/><use xlink:href="#w" transform="matrix(0 -10 -10 0 26.595 147.546)"/><use xlink:href="#j" transform="matrix(0 -10 -10 0 28.955 141.156)"/><use xlink:href="#k" transform="matrix(0 -10 -10 0 26.595 135.066)"/><use xlink:href="#x" transform="matrix(0 -10 -10 0 28.185 130.876)"/><clipPath id="y"><path transform="matrix(1 0 0 -1 0 345.6)" d="M57.6 38.016h357.12v266.112H57.6z"/></clipPath><g clip-path="url(#y)"><path stroke-width="1.5" stroke-linecap="square" stroke-linejoin="round" fill="none" stroke="#1f77b4" d="m73.833 287.673.325 4.55.325-2.175.325.234.325 1.525.325-2.48.325 3.932.325-8.075.325 3.66.325-8.47.325 2.066.325-.163.324 4.547.325-1.95.325-5.298.325 9.606.325.644.325-4.508.325-10.179.325 16.456.325-1.25.325.013.325-8.514.325 7.954.65 3.376.325-2.755.325-1.451.325 2.346.325-.217.325.85.325-3.675.325 4.257.325-4.92.325.062.325-6.816.325 6.61.65-4.448.325-.513.325 5.425.325-5.208.325 3.018.325.514.325-5.67.325-1.432.325 4.793.325 2.666.325-3.727.325 4.934.325-2.96.325 3.476.325-3.928.325-20.64.325 10.718.325-2.723.325 10.497.65-25.714.325-8.98.325 18.207.65-19.204.324-1.328.325 9.16.325-15.862.325.01.325-14.883.325-.588.325-6.133.325-17.248.325 19.354.65-28.596.325-34.239.325 12.165.325-6.157.325 7.566.65-5.187.325 13.69.325 8.623.65 25.248.325 1.82.325 10.718.325 6.713.325-5.024.325 24.864.325 6.375.325-6.649.325 13.004.325-21.475.65 20.424.325-.734.325 3.716.65 19.8.325-11.096.325 8.31.325-.188.325-31.736.325 18.488.325 6.843.325-7.804.325-11.76.65-8.335.324 3.469.325-5.329.325 7.08.325-22.952.325 17.698.325-9.577.325-15.939.325 25.84.325-18.565.325 7.812.325-12.887.65 21.83.325 2.712.325 5.89.325-20.798.325 8.678.325 13.891.325-5.172.325 8.66.325-5.748.325 6.643.325 1.513.325 8.055.325 2.334.325-2.142.325 1.192.325 7.15.325 3.333.325 6.474.325 3.891.325-2.568.325-7.242.325-16.877.325 3.941.325-13.676.325 9.146.325-9.82.65-9.515.325-.325.325-11.656.65 22.956.325-11.365.325 13.064.325 18.205.325-8.697.325 5.436.324-7.503.325 6.132.325 11.894.325-1.146.325 4.344.325-2.42.325 9.41.325-13.002.325-2.616.325-31.27.325 15.041.325-12.532.325-6.268.325-2.795.325 4.904.325 13.447.325-3.828.325-5.875.325-32.122.325 23.286.325 10.442.325-14.791.325-2.779.325 3.632.325-14.615.325 5.644.325-4.717.325.596.325 25.576.325-1.473.325-8.663.325 9.81.325 5.225.325-1.752.325 24.615.325-13.894.325 1.696.65 4.798.325-5.975.325 7.32.325 18.145.325-23.409.325 11.445.325 4.305.325-5.335.325 8.553.325 4.703.325-3.969.324-.871.325 1.731.325-14.711.325 12.281.325-4.083.325-5.928.325-3.098.325-8.583.325 21.954.325-2.26.325-3.475.325 4.128.65 3.557.325-6.665.325 3.094.325 4.659.325-3.504.325 6.73.325-2.166.325-12.666.325 2.292.325 6.493.325-11.592.325 9.164.325-1.13.325 6.365.325 2.942.325-8.846.325 8.488.325-2.026.325-.067.325 1.214.325-8.665.325-2.29.325 11.094.325-.815.325-1.76.325 4.971.325-9.086.325 8.243.975 1.915.325-.859.325 2.019.325-4.604.325 1.507.325 2.168.324-1.571.325 2.842.325-8.513.325 3.233.325-1.766.325 3.406.325-5.296.325-1.368.325 4.59.325-2.404.325 1.83.325-.445.65-12.1.325 7.066.325-16.129.325 6.62.325.268.325.984.325-5.256.325 3.613.65-10.766.325-1.263.325-8.784.325-2.9.325 1.424.325-9.769.65 11.919.325 12.397.325-2.792.325-4.685.325-12.543.325 9.474.325-18.653.325 13.81.325-3.867.325 4.897.325-1.192.325.226.325 15.742.325 1.211.325-2.853.325 6.967.325-18.482.325-1.53.325 11.385.325-24.86.324 14.095.325-1.323.325 6.822.975-21.646.325 10.715.325-9.003.65 23.679.325 3.116.325-.61.325-10.297.325-1.362.325 6.92.325 14.183.325-4.616.325 2.938.325 8.038.325-4.977.325-3 .325 2.893.325 5.428.325-9.633.325 15.324.325-10.45.325 3.212.325 5.811.325-4.858.325 4.442.325 8.341.325-2.077.325.806.325-9.875.325 8.085.325.851.325 2.712.325-.87.325.7.325-1.033.325-4.225.325.993.325 5.082.325 1.685.325-.256.325-1.189.325 1.192.325-1.124.325-3.881.324-.338.325 2.086.325.605.325 1.1.325-1.534.325-7.897.325 5.077.325-2.455.325-3.347.325 4.898.65 3.555.325-7.988.325 3.7.325-14.955.325 9.58.325 2.928.325-5.05.325 4.204.325-5.708.325-12.066.65 8.7.325-21.263.325 11.483.65-8.757.325 2.43.325 8.803.325-6.249.325-18.796.325 16.582.325-5.343.325 12.477.65-26.377.325 11.742.325-4.968.325 5.08.325 17.436.325-35.91L202.2 264l.325-16.96.325 14.899.325 3.034.325-11.827.325 2.99.325 11.163.325 2.204.324-21.26.325-29.15.325 14.119.325-5.494.325-23.726.325 1.735.325 4.24.325-16.573.325 11.913.325-15.387.325 5.413.325-16.882.325 9.62.325-.346.325 21.441.325 9.22.325-17.615.325 18.928.325-6.932.325 21.986.325-4.336.325 19.447.325-9.37.325-1.783.325 13.969.325-11.081.325 30.185.325-22.98.325 28.309.325 5.373.325.58.325 1.968.325 5.528.325 1.784.325-26.967.325-2.796.325-18.12.65 24.1.325-34.862.325-19.583.325 12.241.325-20.692.325 23.598.325-13.687.325-26.578.325 15.454.325-20.53.325-9.301.324-4.256.325 8.319.325-5.874.325-31.99.325 37.037.325-14.776.325-.036.325 23.686.325 6.839.325 1.446.325 19.063.325-.461.325-6.338.325 23.428.325-12.47.325 17.803.325-.373.325 16.586.325-8.71.975 29.029.325-13.415.325-1.27.325-2.712.325 9.64.975 17.703.325-6.45.325.619.325-.28.325 10.28.325 2.23.325.3.325-4.462.325 5.045.325-.453.325-4.834.325-.453.325 6.63.325-.366.325 3.544.325-7.441.65 7.27.325.19.325-4.466.325-.675.974-4.895.325 9.405.325-1.807.325-2.98.325 5.464.325-3.505.325.05.325 2.222.325-.266.325.83.325-8.298.325-1.413.325-5.74.325 13.056.325-10.302.325.512.325 5.15.325.1.325-2.824.325 1.87.325-.761.325 4.845.325-8.07.325.386.325 7.458.325-7.083.325 1.687.325 3.153.325-.438.325 2.984.325-4.16.325 6.554.325 1.83.325-4.425.325-1.786.325-9.758.325-25.51.325 18.297.325 9.425.325-36.754.325 8.591.325-5.585.325 1.7.325-4.662.325.665.325-14.452.324 5.294.325-25.145.325-5.55.325 2.132.325-1.815 1.3-84.582.325 7.624.325-54.746.325-5.697.65 79.386.325-11.831.325 29.034.325 17.931.325 5.986.325 38.96.325-9.133.325 5.164.325 11.115.325 5.267.325 8.9.65-10.233.325.492.325 20.315.325 9.642.325 2.865.325 1.703.325 3.231.325 6.083.65-4.545.325 4.845.65 5.25.325-3.776.325 6.2.325-4.424.325 4.09.325-1.031.325-2.354.325-6.957.325 10.924.325-1.927.325-11.195.325 8.615.324 1.355.325-15.05.325 16.62.325-4.764.325-11.368.325 4.21.325-1.159.325-10.16.325 7.287.325-.418.325.64.325-8.539.325 2.223.325 10.83.325-22.353.325 11.606.65-17.255.325 11.292.325-2.552.325-23.898.325 8.2.325 2.556.325 1.607.325-9.63.325.79.325-2.34.325 23.424.65-27.416.325 3.181.65 19.823.325-3.434.325 11.897.325-17.729.325 11.904.325-8.1.65 25.375.325 1.67.325 5.062.325-2.88.65 7.334.325 1.413.325 5.607.325.236.325-6.245.324-16.291.65-9.387.325 14.693.325-9.323.325-3.143.325 7.715.325-.366.325 6.738.325-5.516.325 11.365.325-23.065.325 14.857.325-1.491.325 5.976.325 11.322.325-14.372.325 9.143.325-1.83.325-.397.65 5.446.325-6.253.325-1.072.325 7.929.325-3.764.325-1.913.325 5.198.325 3.263.325-4.266.325-1.868.65 6.057.325-5.428.325-1.176.325 7.51.325-1.315.325 1.117.325-1.174.325 2.857.325-4.316.325.504.325-5.31.325 4.728.325-10.779.325-4.234.325 6.628.325 10.701.324-13.646.325 7.269.65-21.718.325 22.4.325-10.12.325-1.717.325-2.742.325 2.08.325.346.65-28.948.325 16.313.325-15.656.325 11.218.325-12.654.325 10.394.325-32.91.325 22.875.65-34.713.325-3.382.325-.624.325 9.35.325-9.55.325-12.975.325-7.4.65-32.144.325-1.348.325-7.229.325 38.264.325-8.228.325-1.013.325-3.256.65 64.655.325-28.454.325 14.136.325 4.307.325 9.593.65 28.411.325 2.381.325.472.325 2.68.325 3.847.325-5.12.325 5.139.325-3.28.324 1.88.325 11.994.325-3.536.325 6.604.325 2.75.325-3.386.325-7.27.325 11.16.325-3.11.325-4.645.325 4.348.325-1.643.325-13.14.325 1.769.325 9.435.325-5.995.325 1.487.325-.345.325-8.95.325 11.753.325-6.453.325 2.97.325-4.434.325-1.582.325 12.606.325 2.842.325-5.009.325 3.161.325-10.472.65 14.987.325-2.76.325 4.49.325-5.308.325 1.772.325-.34.325 6.115.325-3.854.325.984.325-.303.325 3.31.325.65.325-.232.325-4.246.325 3.605.325-.654.325-.07.974-8.046.325 3.41.325-13.079.65 14.469.325-1.182.325 3.396.325-6.518.325-10.446.325 10.54.325-6.86.325 12.355.65-7.714.325.097.325-3.792.65 6.836.65-4.045.325 6.37.325-13.46.325 8.908.325-.548.325-2.635.325 4.094.325 1.203.325-2.652.325-7.646.325 11.98.325-1.631.325 2.179.325-12.184.325 10.693.325-5.916.325 11 .325-6.415.325 1.26.325-1.251.325 1.625.325-3.502.65 10.452.65-4.811.325 4.9.325-4.197.325 2.68.324-14.2.325.831.325-10.038.65 20.276.325-1.743.325-7.766.325-11.014.325 11.386.325-.242.325 8.033.325-9.46.325-.773.325 7.48.325-18.487.325 16.442.325-17.211.325 8.008.325-7.292.325 2.807.65.316.325 10.67.325-.356.325-10.842.325 3.981.325-10.233.325 10.198.325 6.334.325-20.71.325 14.06.325-4.056.325 6.712.325.942.325-5.05.325-2.106.325 10.325.325-3.32.325-.074.65 5.5.325-15.833.325-.421.325 3.99.325 6.02.325-11.276.325 15.784.325-14.1.325 11 .325-7.992.324 6.952.325-6.434.325 3.482.325-10.229.325 4.378.325 9.414.325-11.787.325 5.63.325-6.433.325 8.805.325 12.01.325-22.835.325 11.555.325-5.29.325-10.538.325 2.447.325-3.84.325 5.761.325-1.584.325 3.421.325 6.173.325-10.596.325-4.69.325 11.383.325 2.16.325-22.928.325 23.058.325.745.325-1.787.325 10.212.325-15.782.325 7.241.325 3.428.325-24.814.325 14.005.325 6.84.325-15.647.325 7.09.325-14.376.325-5.95.325.33.325 1.07.325 9.382.325-22.29.325 22.89.325-8.131.325.407.65-3.186.324 9.528.325-11.335.325 6.054.325-.903.325-18.082.325 27.2.325-6.78.325-.578.325-9.276.325 15.132.325-5.405.325-1.085.325 4.007.65-13.343.325 9.15.325-4.897.325-26.029.325 21.867.325-.062.325-1.304.325 15.96.325-22.122.325 11.645.325-11.632.325 9.364.325-16.105.325 20.84.325-13.199.325 17.26.325-2.066.325-15.783.325-3.555.65 17.013.325-6.523.325 4.228.325-4.891.325-10.75.325 24.026.325-26.292.325 14.21.325-3.153.325 21.516.325-30.173.325 19.03.325-21.12.325 8.028.325 21.598.324-11.073.325 1.87.325 12.181.325-24.055.325 19.232.325-3.536.325-10.982.325 11.57.325-3.793.325 8.106"/></g><clipPath id="z"><path transform="matrix(1 0 0 -1 0 345.6)" d="M57.6 38.016h357.12v266.112H57.6z"/></clipPath><g clip-path="url(#z)"><path stroke-width="1.5" stroke-linecap="square" stroke-linejoin="round" fill="none" stroke="#ff7f0e" d="m73.833 288.452.325-6.413.325 1.18.325.237.325 10.416.325 1.616.325-3.922.325-9.876.325-1.468.325.565.325.166.325 1.24.324 5.012.325-2.077.325.752.325-8.063.325 10.71.325-1.859.325.087.325 5.606.325-6.383.325-2.491.325-.736.325 6.507.325-3.415.325 7.047.325-1.49.325.42.325 1.475.65-3.092.325.886.325-5.895.325 5.815.325-4.482.325-.314.325-.122.325-1.017.325-5.273.325 2.036.325 8.052.325-4.428.325.144.975 3.73.325-4.01.325 1.41.325 1.976.325-7.901.325 4.104.325-12.229.325 12.597.325-13.06.325 13.658.325-3.296.325-.533.325-22.754.325-.193.325 3.358.325-6.36.324 9.027.325-19.224.325-9.598.325 22.355.325-29.286.325 6.113.325-7.8.325-3.162.65-10.32.325-1.676.325-4.618.65-26.323.325-4.808.325-1.584.325-5.299.325 1.55.325 13.776.325-1.645.325 7.205.325 1.742.325 12.656.325.799.325 26.066.325-12.261.325 24.963.325-15.41.325 7.165.975 33.167.325-10.612.325 16.819.325-24.007.65 36.67.325-25.534.325 20.745.325-1.207.325-5.97.325-2.679.325-3.89.325-8.997.325 2.196.325 1.15.325-5.402.325-11.73.324-6.872.325 20.185.325-23.408.325-9.772.325-.954.325 15.176.325-24.398.325 5.662.325 16.81.65-19 .325 23.746.325-9.073.325 19.096.65-10.944.65 8.291.325 7.62.325 4.361.325-6.104.65 12.741.325-13.845.325 23.609.325-8.208.325 5.436.65 5.41.325-.888.325 9.492.325 1.343.325-4.776.325-8.785.65-21.63.325-7.021.325 18.244.325-22.603.325-7.357.325 18.387.325-8.41.325-3.604.325.991.325 14.989.325 2.935.325-3.333.325 20.733.325-20.542.324 27.926.325-12.506.325 14.448.325-6.6.325 2.306.325 3.226.325-3.843.325-15.197.325 3.274.325-18.601.325 22.163.325-24.13.325 2.54.325 14.125.325-15.424.65-15.583.325 6.82.65-9.894.325 1.98.65-28.09.325 25.851.325 2.415.325-2.807.325 6.626.325-10.684.325 12.472.325 3.722.325-10.524.325 19.1.325-7.716.325 5.135.325-3.848.325 6.696.325 3.435.325 14.947.325 4.047.325-6.805.325 5.124.325 7.608.325 3.476.325-4.936.325-9.568.325-.23.325 10.007.325 2.994.325-12.77.324 7.603.325-8.992.325-.319.325 16.694.325-13.301.325.266.325-2.522.325 2.62.325 4.095.325-5.13.325-9.925.325 24.461.325-13.904.325 10.003.325-8.61.325 8.064.325 2.495.325-3.856.325 4.266.325-12.65.325 3.591.325 10.42.325 1.613.325-4.98.325 6.18.325-9.307.325 2.932.325-1.977.325.084.325-6.039.65 12.926.325-4.977.325 6.375.325.018.65-3.941.325 2.82.325.094.325 1.819.325-.207.325-1.263.325 1.953.325.734.325-1.283.325-1.982.325 4.794.65-2.056.324 1.386.325.575.65-6.49.325-2.29.325-3.212.325-1.285.325-.789.325 6.303.325-4.499.325-1.442.325 6.779.325-.343.325-3.97.325-10.318.325-.408.325-2.855.325-.458.325 15.428.325-13.8.325-3.123.325 1.298.325-14.882.325 12.386.325-3.44.325 2.941.325-9.1.325-.649.325-1.843.65 10.346.325-6.243.325-3.387.325-27.859.325 6.742.325 17.053.325-1.995.325-6.358.65 29.241.325-20.267.325.437.325 16.8.325-5.07.325-.39.325-18.877.325-7.91.325 6.03.325 18.309.324-12.957.325-4.556.325 3.197.325-23.927.325 29.568.325-4.543.325-2.561.325 24.59.325-28.326.325 4.299.325 11.188.325-7.17.65 21.98.325-7.981.325-13.39.325 16.505.325-2.824.65 11.176.325-13.583.325 16.699.65-2.689.325-6.236.325 4.976.325 8.558.325-1.55.325 1.197.325-2.146.325-7.612.65 17.339.325-.92.325.696.325.006.325-1.513.325 1.259.325-5.469.65 8.956.325-2.604.325-3.826.325 3.77.65 3.837.325-4.02.325-1.647.325 5.08.324-4.62.325.834.325-2.915.325 2.58.325.763.325-1.424.325 1.18.325-.79.325-14.705.325 16.165.325-11.22.325 8.259.325-11.863.65 7.337.325-15.289.325 1.738.325 3.104.325-6.187.325 12.987.325-16.417.325-2.18.325-10.434.325 23.846.325-21.055.325 9.317.325 5.3.325-13.8.325-1.356.325-5.446.325 1.01.325-1.16.325-13.24.325 16.484.325 9.844.325-16.448.325 5.532.325-9.808.325-2.04.325 5.676.325 18.84.325-5.895.65-13.46.325 24.54.65-25.206.325-6.652.325 23.972.65-32.692.324-2.58.325 8.044.325-4.77.65-19.494.325-14.904.325 1.159.325-14.07.325-3.03.325 19.93.325-7.403.325-4.54.325 1.162.325 17.578.325 8.363.325.83.325 5.897.325 13.478.325-1.514.325 3.952.325-12.128.325 15.898.325 9.103.325 19.024.325-11.144.325 12.697.325-6.523.325 9.613.65 10.577.325 9.7.325-3.51.325-23.224.325-.01.325 3.38.325-13.963.325 1.19.325-20.576.325 22.093.325-34.58.325-18.952.325 28.022.65-39.541.325 10.813.325-10.112.325-20.49.324 1.518.325-6.214.325-19.963.325.263.325 33.56.325-30.251.65 32.712.325 1.324.325 11.33.65 31.795.325 1.37.325.377.325-11.684.325 10.369.325 3.735.325 17.866.325-4.917.325 28.958.325-12.9.325 4.599.325 7.146.325 2.698.325-2.681.325-9.18.325 2.794.325.629.325 9.71.325 5.22.325-6.832.325-.672.325 5.433.325-1.463.325 7.634.325-1.061.325 3.36.325.169.65-8.274.325 5.908.65 6.172.325.137.325-1.42.325.442.325-.148.325-1.406.325-3.714.324-.046.325-5.236.325 6.073.325-7.78.325 4.862.325 2.679.325-.18.325.627.325 4.84.325-1.902.325-.942.325 1.283.325-8.633.325 7.4.325-.984.325-3.704.325-10.087.325 3.722.325-.878.325 8.027.325.153.325 2.048.325-7.272.65 4.003.325-6.491.325 8.404.325-1.825.325 3.67.325-2.28.325-.124.325 2.286.325.186.65-5.651.325 1.805.325 3.799.325-24.946.325.898.325 8.706.325 1.187.325-7.97.325-31.27.325 25.799.325-13.046.325-2.698.325-1.188.325-.597.65-18.046.324-2.94.325-18.959.325-28.494.325-4.981.325 7.576.325-10.818.325-24.732.65-83 .325-6.352.325 53.278.65 65.786.325 5.546.65 42.858.65-15.006.325 24.644.325-28.465.325 32.756.325 12.78.65 9.202.325 8.944.325-1.655.325-4.497.325 14.929.325 4.817.325-16.07.325 22.426.325-10.69.325.419.65 17.528.325-12.72.325.396.325 7.295.325-7.65.325 10.151.325.451.325-.743.325.21.325-.716.325-3.698.325-6.05.325-2.225.324-18.425.325 21.542.325 5.433.325-15.833.325 16.558.325-5.97.325-2.069.325.795.325 5.236.325-16.641.325.38.325 4.84.325-6.841.325-2.337.325-.947.325 9.06.325-21.668.325 7.842.325-3.79.325-9.382.325-3.71.325.09.325-2.375.325 10.038.325-11.732.325.742.325-9.88.325 5.687.325 30.476.325-15.609.325-.553.65 4.876.325-1.662.325 10.378.325-6.92.325 12.382.325-13.009.325 15.332.325 1.883.325 7.497.325-11.186.325 15.868.325-8.94.325-2.133.325 6.769.325-.83.325 7.698.325-2.144.65-18.726.324 4.232.325-9.233.325 21.744.325-13.561.325 5.294.325 11.073.325-13.508.325-6.683.325 11.348.325-4.888.325-1.657.325 4.937.325-3.934.325 3.397.325-7.083.325 10.974.65 6.7.325.925.325-19.84.325 23.262.325-.61.325-3.555.325 5.558.325-4.423.325-.876.325 3.207.325.197.325 4.771.325-1.935.325.14.325-1.3.325-.392.325 1.812.325.473.325-1.67.65 4.572.325-6.996.325 3.612.325-9.192.325 1.901.325.204.325-2.175.325 5.073.325-7.707.324-1.477.325-9.926.325 10.81.325 5.294.325-20.557.325 20.071.325-8.303.325-1.867.325-.08.325-22.068.325 13.8.325 3.837.65-20.729.325 4.57.325-19.602.325 11.669.325-18.653.325 8.738.325-22.322.325-1.162.325-4.737.325 17.216.325-33.437.325 17.563.325-16.37.325-23.403.325-2.361.325-17.834.325 8.415.325-7.394.325 25.459.325-2.577.325 13.904.325-.906.325 3.42.65 49.16.325-3.05.325 10.083.325-11.583.325 23.912.325-10.13.325 1.924.325 13.28.325 3.787.325-4.408.65 22.706.325 2.571.324-11.346.325 5.618.325-2.005.325 7.06.325-1.924.325 1.889.325-5.101.325 4.033.325-4.94.325 2.868.325-15.346.325 12.241.325 4.594.325-.899.325-20.119.325 22.057.325-6.881.325-12.682.325 13.55.325-1.207.325-.465.325 7.434.325-9.189.325-1.016.325-1.566.325 10.12.325-10.229.325 3.096.325-4.045.325 13.447.325-6.575.325 6.473.325-3.82.325.036.325 2.156.325-1.954.325 9.513.325-.546.325-.297.325-1.944.325-.511.325.411.65 1.576.325.17.325 2.448.325-.596.325-.891.325-.244.324-4.504.325-1.094.325-2.298.325 5.187.325.76.325.421.325-8.291.325 4.468.325 1.115.325 4.363.325-17.007.325 8.487.325 4.753.65-12.913.325 1.054.325-6.799.325 14.674.325-2.354.325-6.122.325-.664.325 11.33.325-7.926.325 8.476.325-19.197.65 15.984.975-9.422.325 2.39.65 13.341 1.3-11.48.325 11.993.325-3.808.325-1.383.325-3.25.325 9.015.325-2.825.325 3.362.325-2.932.325 1.215.325-1.879.325 1.423.324-8.167.325-3.072.325.732.325-.89.325 9.836.325-10.629.325 4.475.325-.184.325-3.419.325-2.158.325-4.05.325 1.91.325-1.515.325 5.116.325-5.422.325 8.516.325 3.211.65-16.528.325-1.105.325 9.494.325 1.653.325-2.107.325 10.717.325-13.02.325-8.524.325 20.58.325-11.066.325 6.091.325-4.694.325 7.62.325-5.7.325-1.994.325 13.306.325-7.435.325-3.566.325.672.325 3.734.325-9.305.325 5.402.325-14.485.325 6.373.325-17.16.325 26.355.325-13.8.325-5.664.325.129.325 12.9.325.18.325-2.797.324 3.924.325-1.677.325-9.024.65 10.07.325-3.863.325 12.09.325.402.65-12.908.325 4.366.325 1.916.325 6.429.975-25.234.325 11.147.325.824.325-14.388.325 25.136.325-28.72.65 17.482.325-3.503.65-11.43.325 7.41.325 4.868.65-7.724.325-.216.325-4.963.325-18.636.65 17.596.325-.027.325-13.416.325 7.947.325 4.424.325-.385.325-4.482.325-2.263.325 9.227.325-10.762.325-.795.325 17.182.325-12.787.325 2.319.324-8.886.325.11.325 15.81.325-5.47.325-18.24.325-3.46.325 9.19.325-5.148.325-3.19.325 24.228.325-1.642.325-8.298.325-4.234.325 2.768.325 13.137.325-2.035.325-6.146.325 4.447.325-25.135.325 3.806.325-5.968.65 24.688.325-9.258.325 5.125.325-1.612.325-12.43.325 1.225.325-9.468.325 20.334.325 2.849.325-22.435.325 27.202.325-19.663.325 9.64.325-12.064.325 10.919.325 6.672.325-10.331.325 14.95.325-8.034.325-15.327.325 9.015.325-8.054.325 10.386.325-16.558.325-.885.325 17.987.325 6.26.325-3.459.324 10.813.325-8.787.325-29.268.325 10.606.325 25.074.325-11.347.325 4.368.325 10.07.325-3.432.325 5.35"/></g><path stroke-width=".8" stroke-linecap="square" stroke-miterlimit="10" fill="none" stroke="#000" d="M57.6 307.584V41.472M414.72 307.584V41.472M57.6 307.584h357.12M57.6 41.472h357.12"/><path d="M322.395 72.622h86.725c1.067 0 1.6-.533 1.6-1.6v-23.95c0-1.067-.533-1.6-1.6-1.6h-86.725c-1.067 0-1.6.533-1.6 1.6v23.95c0 1.067.533 1.6 1.6 1.6z" fill="#fff" fill-opacity=".8"/><path stroke-miterlimit="10" fill="none" stroke="#d5d6d5" stroke-opacity=".8" d="M322.395 72.622h86.725c1.067 0 1.6-.533 1.6-1.6v-23.95c0-1.067-.533-1.6-1.6-1.6h-86.725c-1.067 0-1.6.533-1.6 1.6v23.95c0 1.067.533 1.6 1.6 1.6z"/><path stroke-width="1.5" stroke-linecap="square" stroke-linejoin="round" fill="none" stroke="#1f77b4" d="M323.995 52.263h16"/><symbol id="A"><path transform="translate(-.098) scale(.001)" d="M98 0v756h215c114 0 210-34 286-100 76-67 114-156 114-268 0-118-38-212-114-282C523 35 425 0 306 0H98zm97 669V86h110c96 0 171 26 225 79 54 52 81 126 81 220s-28 165-83 213c-56 47-128 71-218 71H195z"/></symbol><symbol id="B"><path transform="matrix(.001 0 0 .001 -.049 .101)" d="M49 369c0 122 33 219 99 291s155 109 269 109c104 0 189-36 253-106 64-71 97-163 97-276 0-123-33-220-99-292-16-17-32-32-50-45l212-151H669L526 4c-38-10-78-16-122-16-108 0-194 35-258 105-65 70-97 162-97 276zm102 8c0-92 23-165 70-220 47-56 108-83 183-83 80 0 144 26 190 79s70 127 70 222c0 98-23 173-68 226-46 53-107 80-185 80s-140-28-188-84-72-130-72-220z"/></symbol><symbol id="C"><path transform="translate(-.098) scale(.001)" d="M715 0H600L219 588c-11 16-20 33-26 50h-3c2-18 4-53 4-106V0H98v756h122l370-578c18-28 28-45 32-52h2c-4 21-5 58-5 110v520h96V0z"/></symbol><symbol id="D"><path transform="translate(-.012) scale(.001)" d="M777 540 616 0h-99L409 379c-5 16-8 33-9 52h-2c-1-14-5-31-11-51L271 0h-97L12 540h100l108-400c3-12 5-29 7-50h4c1 18 4 35 9 51l116 399h89l113-401c3-12 6-28 8-50h4c0 14 3 31 9 50l106 401h92z"/></symbol><symbol id="E"><path transform="translate(-.074) scale(.001)" d="M74 730c0 17 5 31 17 43 11 12 25 18 43 18 17 0 31-6 43-18s18-26 18-43-6-31-18-42c-12-12-26-17-43-17-18 0-32 5-43 17-12 11-17 25-17 42zM85 0v540h96V0H85z"/></symbol><use xlink:href="#A" transform="matrix(8 0 0 -8 347.179 55.063)"/><use xlink:href="#B" transform="matrix(8 0 0 -8 352.883 55.87)"/><use xlink:href="#C" transform="matrix(8 0 0 -8 359.795 55.063)"/><use xlink:href="#t" transform="matrix(8 0 0 -8 365.515 55.063)"/><use xlink:href="#D" transform="matrix(8 0 0 -8 367.979 55.063)"/><use xlink:href="#E" transform="matrix(8 0 0 -8 374.795 55.063)"/><use xlink:href="#h" transform="matrix(8 0 0 -8 376.507 55.15)"/><use xlink:href="#o" transform="matrix(8 0 0 -8 379.995 55.063)"/><use xlink:href="#q" transform="matrix(8 0 0 -8 384.635 55.159)"/><use xlink:href="#r" transform="matrix(8 0 0 -8 389.931 55.159)"/><use xlink:href="#h" transform="matrix(8 0 0 -8 394.435 55.15)"/><use xlink:href="#t" transform="matrix(8 0 0 -8 397.243 55.063)"/><use xlink:href="#h" transform="matrix(8 0 0 -8 399.787 55.15)"/><use xlink:href="#o" transform="matrix(8 0 0 -8 403.275 55.063)"/><path stroke-width="1.5" stroke-linecap="square" stroke-linejoin="round" fill="none" stroke="#ff7f0e" d="M323.995 64.638h16"/><use xlink:href="#A" transform="matrix(8 0 0 -8 347.179 67.438)"/><use xlink:href="#B" transform="matrix(8 0 0 -8 352.883 68.246)"/><use xlink:href="#C" transform="matrix(8 0 0 -8 359.795 67.438)"/><use xlink:href="#t" transform="matrix(8 0 0 -8 365.515 67.438)"/><use xlink:href="#D" transform="matrix(8 0 0 -8 367.979 67.438)"/><use xlink:href="#E" transform="matrix(8 0 0 -8 374.795 67.438)"/><use xlink:href="#h" transform="matrix(8 0 0 -8 376.507 67.526)"/><use xlink:href="#o" transform="matrix(8 0 0 -8 379.995 67.438)"/><use xlink:href="#t" transform="matrix(8 0 0 -8 384.243 67.438)"/><use xlink:href="#h" transform="matrix(8 0 0 -8 386.787 67.526)"/><use xlink:href="#o" transform="matrix(8 0 0 -8 390.275 67.438)"/></svg>