<svg xmlns="http://www.w3.org/2000/svg" xmlns:xlink="http://www.w3.org/1999/xlink" width="614.4" height="460.8" viewBox="0 0 460.8 345.6"><path d="M0 345.6h460.8V0H0z" fill="#fff"/><path d="M57.6 307.584h357.12V41.472H57.6z" fill="#fff"/><path stroke-width=".8" stroke-linejoin="round" fill="none" stroke="#000" d="M73.833 307.584v3.5"/><symbol id="a"><path transform="matrix(.001 0 0 .001 -.044 .012)" d="M44 363c0 133 22 234 66 303 44 68 109 103 193 103 160 0 240-130 240-388 0-128-23-225-68-292C430 21 367-12 286-12c-77 0-137 32-179 96S44 241 44 363zm98 5c0-202 51-302 153-302 100 0 150 102 150 307 0 210-49 316-147 316-104 0-156-107-156-321z"/></symbol><use xlink:href="#a" transform="matrix(10 0 0 -10 71.343 322.704)"/><path stroke-width=".8" stroke-linejoin="round" fill="none" stroke="#000" d="M139.42 307.584v3.5"/><symbol id="b"><path transform="translate(-.058) scale(.001)" d="M417 558c0 40-13 72-39 96-26 23-61 35-105 35-32 0-63-8-95-24s-62-39-89-68v92c24 26 52 45 84 59 31 14 68 21 111 21 68 0 122-19 164-55 42-37 63-87 63-149 0-56-13-104-38-144-26-41-69-83-131-125-64-44-106-76-127-94-22-19-37-37-45-54-8-18-12-39-12-63h376V0H58v38c0 43 6 80 18 110s31 60 59 89c27 29 70 64 128 104 59 42 99 78 121 110 22 31 33 67 33 107z"/></symbol><use xlink:href="#b" transform="matrix(10 0 0 -10 134.14 322.584)"/><use xlink:href="#a" transform="matrix(10 0 0 -10 139.86 322.704)"/><path stroke-width=".8" stroke-linejoin="round" fill="none" stroke="#000" d="M205.006 307.584v3.5"/><symbol id="c"><path transform="translate(-.008) scale(.001)" d="M454 756V257h113v-79H454V0h-93v178H8v74c63 70 126 152 190 244 63 92 115 179 157 260h99zM116 257h245v360c-34-61-70-120-109-177-39-58-84-119-136-183z"/></symbol><use xlink:href="#c" transform="matrix(10 0 0 -10 199.227 322.584)"/><use xlink:href="#a" transform="matrix(10 0 0 -10 205.447 322.704)"/><path stroke-width=".8" stroke-linejoin="round" fill="none" stroke="#000" d="M270.593 307.584v3.5"/><symbol id="d"><path transform="matrix(.001 0 0 .001 -.058 .012)" d="M497 659c-40 20-81 30-123 30-66 0-119-29-159-85-40-57-60-135-60-233h3c35 69 92 104 171 104 65 0 117-22 156-64 39-43 59-100 59-170 0-74-23-135-68-182-45-48-102-71-172-71-77 0-137 29-181 89S58 222 58 333c0 133 28 239 86 318 57 78 133 118 227 118 53 0 95-8 126-22v-88zM161 248c0-50 13-93 40-129 26-36 62-53 106-53 41 0 75 15 101 46 26 30 39 70 39 118 0 52-13 93-37 122s-59 44-104 44c-44 0-79-15-105-44-27-30-40-64-40-104z"/></symbol><use xlink:href="#d" transform="matrix(10 0 0 -10 265.314 322.704)"/><use xlink:href="#a" transform="matrix(10 0 0 -10 271.034 322.704)"/><path stroke-width=".8" stroke-linejoin="round" fill="none" stroke="#000" d="M336.18 307.584v3.5"/><symbol id="e"><path transform="matrix(.001 0 0 .001 -.048 .011)" d="M48 211c0 43 13 83 39 120s59 63 101 79c-34 18-60 42-79 71s-28 61-28 95c0 35 9 67 27 97s44 53 77 70c32 17 68 26 108 26s76-9 109-25c32-17 58-40 76-70s28-62 28-98c0-34-10-65-28-94-19-30-45-54-78-72 40-16 74-43 100-79 26-37 39-77 39-120 0-44-11-82-31-116-21-34-50-61-88-79s-80-27-127-27-89 9-127 27-67 45-87 79c-21 34-31 73-31 116zm94 4c0-45 13-81 41-108s64-40 110-40c45 0 82 13 110 41 28 27 43 63 43 107 0 42-15 77-43 105-29 28-65 43-109 43s-81-14-109-42c-29-28-43-63-43-106zm27 353c0-34 12-64 36-88s53-36 88-36c34 0 64 12 89 37 24 24 37 53 37 87s-12 62-36 86-53 36-89 36-66-12-90-35-35-52-35-87z"/></symbol><use xlink:href="#e" transform="matrix(10 0 0 -10 330.8 322.694)"/><use xlink:href="#a" transform="matrix(10 0 0 -10 336.62 322.704)"/><path stroke-width=".8" stroke-linejoin="round" fill="none" stroke="#000" d="M401.767 307.584v3.5"/><symbol id="f"><path transform="translate(-.104) scale(.001)" d="M278 0v647c-15-15-40-32-76-50-36-19-68-32-98-39v93c40 11 82 29 128 53 45 24 80 47 105 69h36V0h-95z"/></symbol><use xlink:href="#f" transform="matrix(10 0 0 -10 394.018 322.584)"/><use xlink:href="#a" transform="matrix(10 0 0 -10 399.278 322.704)"/><use xlink:href="#a" transform="matrix(10 0 0 -10 405.138 322.704)"/><symbol id="g"><path transform="matrix(.001 0 0 .001 -.063 .012)" d="M63 142c22-20 53-37 92-50 38-13 75-19 111-19 106 0 159 37 159 113 0 21-6 40-17 57-12 17-27 32-47 45s-58 33-112 60c-76 38-126 73-150 105s-36 69-36 111c0 63 25 113 75 150 50 36 114 55 192 55 74 0 129-9 165-27V635c-46 32-103 48-173 48-46 0-84-10-113-29-29-20-43-47-43-81 0-31 10-56 30-75 20-20 63-46 131-79 74-36 125-71 155-106 30-36 45-76 45-120 0-66-24-117-72-152-48-36-115-53-201-53-30 0-65 4-105 12S81 18 63 31v111z"/></symbol><symbol id="h"><path transform="matrix(.001 0 0 .001 -.022 .011)" d="M345 5c-22-10-50-16-85-16-97 0-145 53-145 160v312H22v79h93v130l95 30V540h135v-79H210V166c0-36 6-61 18-76 12-16 33-23 61-23 21 0 40 6 56 18V5z"/></symbol><symbol id="i"><path transform="matrix(.001 0 0 .001 -.049 .012)" d="M525 246H147c2-58 18-103 48-134 30-32 71-47 125-47 60 0 116 19 167 58V38C439 4 376-12 298-12S159 12 115 62c-44 49-66 118-66 206 0 82 24 150 72 204s107 81 179 81c70 0 125-23 165-68 40-46 60-109 60-191v-48zm-95 76c-1 49-13 87-35 114-23 26-55 40-96 40-38 0-71-15-99-43s-46-65-53-111h283z"/></symbol><symbol id="j"><path transform="matrix(.001 0 0 .001 -.085 .248)" d="M181 76v-324H85v788h96v-93h2c42 70 104 106 186 106 68 0 122-25 162-73 39-48 59-113 59-194 0-90-23-163-67-217S419-12 344-12c-70 0-123 29-161 88h-2zm0 147c0-44 14-82 42-112s64-45 107-45c50 0 90 19 119 59 28 39 43 93 43 162 0 58-14 104-40 137-27 33-64 50-110 50-48 0-86-17-116-51s-45-77-45-129v-71z"/></symbol><symbol id="k"><path transform="matrix(.001 0 0 .001 -.055 .012)" d="M55 117c48-36 100-53 156-53 74 0 112 24 112 74 0 20-9 37-25 51-16 13-49 29-99 48-60 24-99 47-117 71s-26 53-26 87c0 47 20 85 60 114s90 44 150 44c46 0 88-8 128-24v-92c-41 26-87 39-137 39-31 0-56-7-75-20-20-14-29-31-29-53s7-39 21-51 44-28 92-46c60-23 100-46 122-70 21-24 32-54 32-89 0-50-21-89-61-117-41-28-93-42-157-42C146-12 97-1 55 19v98z"/></symbol><use xlink:href="#g" transform="matrix(10 0 0 -10 223.946 337.188)"/><use xlink:href="#h" transform="matrix(10 0 0 -10 228.963 337.178)"/><use xlink:href="#i" transform="matrix(10 0 0 -10 232.884 337.188)"/><use xlink:href="#j" transform="matrix(10 0 0 -10 238.914 339.548)"/><use xlink:href="#k" transform="matrix(10 0 0 -10 245.004 337.188)"/><path stroke-width=".8" stroke-linejoin="round" fill="none" stroke="#000" d="M57.6 299.725h-3.5"/><use xlink:href="#a" transform="matrix(10 0 0 -10 45.18 303.845)"/><path stroke-width=".8" stroke-linejoin="round" fill="none" stroke="#000" d="M57.6 259.624h-3.5"/><use xlink:href="#b" transform="matrix(10 0 0 -10 39.461 263.624)"/><use xlink:href="#a" transform="matrix(10 0 0 -10 45.181 263.744)"/><path stroke-width=".8" stroke-linejoin="round" fill="none" stroke="#000" d="M57.6 219.524h-3.5"/><use xlink:href="#c" transform="matrix(10 0 0 -10 38.961 223.524)"/><use xlink:href="#a" transform="matrix(10 0 0 -10 45.181 223.644)"/><path stroke-width=".8" stroke-linejoin="round" fill="none" stroke="#000" d="M57.6 179.424h-3.5"/><use xlink:href="#d" transform="matrix(10 0 0 -10 39.461 183.544)"/><use xlink:href="#a" transform="matrix(10 0 0 -10 45.181 183.544)"/><path stroke-width=".8" stroke-linejoin="round" fill="none" stroke="#000" d="M57.6 139.323h-3.5"/><use xlink:href="#e" transform="matrix(10 0 0 -10 39.361 143.433)"/><use xlink:href="#a" transform="matrix(10 0 0 -10 45.181 143.443)"/><path stroke-width=".8" stroke-linejoin="round" fill="none" stroke="#000" d="M57.6 99.223h-3.5"/><use xlink:href="#f" transform="matrix(10 0 0 -10 34.062 103.223)"/><use xlink:href="#a" transform="matrix(10 0 0 -10 39.322 103.343)"/><use xlink:href="#a" transform="matrix(10 0 0 -10 45.182 103.343)"/><path stroke-width=".8" stroke-linejoin="round" fill="none" stroke="#000" d="M57.6 59.122h-3.5"/><use xlink:href="#f" transform="matrix(10 0 0 -10 34.062 63.122)"/><use xlink:href="#b" transform="matrix(10 0 0 -10 39.462 63.122)"/><use xlink:href="#a" transform="matrix(10 0 0 -10 45.182 63.242)"/><symbol id="l"><path transform="translate(-.021) scale(.001)" d="M555 669H336V0h-98v669H21v87h534v-87z"/></symbol><symbol id="m"><path transform="translate(-.085) scale(.001)" d="M542 0h-96v311c0 108-41 163-121 163-42 0-76-16-103-48-28-32-41-72-41-120V0H85v799h96V451h2c41 68 100 102 176 102 122 0 183-74 183-220V0z"/></symbol><symbol id="n"><path transform="translate(-.085) scale(.001)" d="M375 445c-16 11-38 17-66 17-38 0-68-18-92-52-24-35-36-81-36-137V0H85v540h96V430h2c27 79 74 119 142 119 21 0 38-3 50-7v-97z"/></symbol><symbol id="o"><path transform="matrix(.001 0 0 .001 -.049 .012)" d="M49 264c0 89 25 159 75 211s117 78 203 78c80 0 144-25 190-75s69-118 69-206c0-85-25-154-74-206S397-12 315-12c-81 0-146 25-194 76-48 50-72 117-72 200zm98 3c0-62 15-111 47-147 31-36 73-54 127-54s96 17 125 52c28 35 43 85 43 151s-15 116-43 152c-29 35-71 53-125 53s-97-19-128-56-46-87-46-151z"/></symbol><symbol id="p"><path transform="matrix(.001 0 0 .001 -.075 .012)" d="M531 0h-96v85h-2c-36-65-92-97-166-97C139-12 75 64 75 217v323h94V231c0-110 42-165 126-165 42 0 75 15 101 46s39 70 39 117v311h96V0z"/></symbol><symbol id="q"><path transform="matrix(.001 0 0 .001 -.049 .253)" d="M554 45c0-198-97-298-291-298-67 0-125 13-175 37v92c60-33 118-50 174-50 130 0 196 69 196 206v57h-1C415 21 354-12 273-12c-68 0-123 24-163 72-41 48-61 113-61 193 0 92 22 165 67 219s105 81 180 81c72 0 125-29 161-86h1v73h96V45zm-96 276c0 42-14 78-42 108s-63 45-104 45c-52 0-93-20-122-58s-43-91-43-157c0-58 14-104 42-140s65-53 111-53 84 17 114 51 44 77 44 129v75z"/></symbol><symbol id="s"><path transform="matrix(.001 0 0 .001 -.075 .171)" d="M239-171C129-46 75 107 75 289s54 337 164 467h85C214 621 159 466 159 290s54-329 164-461h-84z"/></symbol><symbol id="t"><path transform="translate(-.098) scale(.001)" d="M782 0v501c0 41 2 91 7 149h-2c-9-37-17-62-23-76L515 0h-55L211 569c-6 13-13 40-22 81h-3c3-36 5-87 5-153V0H98v756h132l223-518c17-40 28-71 34-93h3c17 46 29 78 36 95l227 516h126V0h-97z"/></symbol><symbol id="u"><path transform="matrix(.001 0 0 .001 -.085 .012)" d="M181 76V0H85v799h96V447h2c42 70 104 106 186 106 67 0 121-24 161-72s60-113 60-195c0-92-23-164-67-218-45-54-105-80-179-80-71 0-125 29-161 88h-2zm0 146c0-44 14-81 42-111s64-45 107-45c50 0 90 19 119 59 28 39 43 93 43 162 0 57-14 102-40 136-27 34-64 51-110 51-47 0-86-17-116-51s-45-76-45-128v-73z"/></symbol><symbol id="v"><path transform="matrix(.001 0 0 .001 -.011 .171)" d="M12-171C122-40 177 113 177 289S121 621 11 756h85c110-129 165-285 165-468S206-47 96-171H12z"/></symbol><use xlink:href="#l" transform="matrix(0 -10 -10 0 26.475 221.185)"/><use xlink:href="#m" transform="matrix(0 -10 -10 0 26.475 214.815)"/><use xlink:href="#n" transform="matrix(0 -10 -10 0 26.475 208.655)"/><use xlink:href="#o" transform="matrix(0 -10 -10 0 26.595 205.336)"/><use xlink:href="#p" transform="matrix(0 -10 -10 0 26.595 198.716)"/><use xlink:href="#q" transform="matrix(0 -10 -10 0 29.005 192.816)"/><use xlink:href="#m" transform="matrix(0 -10 -10 0 26.475 186.056)"/><use xlink:href="#j" transform="matrix(0 -10 -10 0 28.955 179.896)"/><use xlink:href="#p" transform="matrix(0 -10 -10 0 26.595 173.606)"/><use xlink:href="#h" transform="matrix(0 -10 -10 0 26.585 167.976)"/><use xlink:href="#r" transform="scale(10) rotate(-90 9.547 6.9)"/><use xlink:href="#s" transform="matrix(0 -10 -10 0 28.185 160.756)"/><use xlink:href="#t" transform="matrix(0 -10 -10 0 26.475 157.186)"/><use xlink:href="#u" transform="matrix(0 -10 -10 0 26.595 147.546)"/><use xlink:href="#j" transform="matrix(0 -10 -10 0 28.955 141.156)"/><use xlink:href="#k" transform="matrix(0 -10 -10 0 26.595 135.066)"/><use xlink:href="#v" transform="matrix(0 -10 -10 0 28.185 130.876)"/><clipPath id="w"><path transform="matrix(1 0 0 -1 0 345.6)" d="M57.6 38.016h357.12v266.112H57.6z"/></clipPath><g clip-path="url(#w)"><path stroke-width="1.5" stroke-linecap="square" stroke-linejoin="round" fill="none" stroke="#1f77b4" d="m73.833 169.138 3.28 9.32 3.278 21.294 3.28-2.392 3.28 6.244 3.278-19.163 3.28 25.12 3.28 14.382L100.066 254l3.28-17.607 3.28 20.06 3.278-10.304 3.28 15.188 3.28 8.24 3.278 8.472 3.28 15.326 3.28-5.547 3.278-36.693 3.28-.015 3.28 5.34 3.279-22.062 3.279 1.88 3.28-32.51 3.279 34.906 3.279-54.636 3.28-29.944 3.279 44.275 3.279-30.005 3.28-32.47 3.279 17.084 3.279-15.976 3.28-32.374 3.279 2.397 3.279-9.817 3.28-31.543 3.279.416 3.279 53.026 3.28-47.798 3.279 24.853 3.279 26.833 3.28 2.09 3.279 17.904 3.279 27.301 3.28 22.935 3.279 2.164 3.279.596 3.28-18.461 3.279 16.383 3.279 5.9 3.28 28.23 3.279-7.77 3.279 45.754 3.28-20.383 3.279 7.267 3.279 11.291 3.28 4.263 3.279-4.236 3.279-14.503 3.28 4.414 3.279.993 3.28 15.343 3.278 8.246 3.28-10.793 3.28-1.063 3.278 8.584 3.28-2.311 3.28 12.062 3.278-1.677 3.28 5.31 3.28.266 3.278-6.564 3.28-6.51 3.28 9.336 3.278 5.797 3.28 3.956 3.28.215 3.278-2.245 3.28.7 3.28-.234 3.278-2.22 3.28-5.869 3.28-.072 3.279-8.274 3.279 9.596 3.28-12.292 3.279 7.681 3.279 4.232 3.28-.284 3.279.992 3.279 7.646 3.28-3.005 3.279-1.488 3.279 2.027 3.28-13.64 3.279 11.693 3.279-1.556 3.28-5.853 3.279-15.937 3.279 5.881 3.28-1.387"/></g><clipPath id="x"><path transform="matrix(1 0 0 -1 0 345.6)" d="M57.6 38.016h357.12v266.112H57.6z"/></clipPath><g clip-path="url(#x)"><path stroke-width="1.5" stroke-linecap="square" stroke-linejoin="round" fill="none" stroke="#ff7f0e" d="m73.833 178.193 3.28-10.953 3.278 34.739 3.28-6.851 3.28 30.726 3.278-14.805 3.28-2.816 3.28 22.07 3.278-17.509 3.28 47.694 3.28-36.309 3.278 44.728 3.28 8.49 3.28.916 3.278 3.11 3.28 8.734 3.28 2.818 3.278-42.608 3.28-4.417 3.28-28.63 3.279 22.361 3.279 15.716 3.28-55.081 3.279-30.94 3.279 19.34 3.28-32.694 3.279 37.286 3.279-21.626 3.28-41.994 3.279 24.418 3.279-32.437 3.28-14.697 3.279-6.724 3.279 13.143 3.28-9.28 3.279-50.543 3.279 58.517 3.28-23.346 3.279-.056 3.279 37.424 3.28 10.805 3.279 2.285 3.279 30.12 3.28-.729 3.279-10.015 3.279 37.018 3.28-19.703 3.279 28.129 3.279-.59 3.28 26.206 3.279-13.761 3.279 16.768 3.28 13.787 3.279 15.31 3.279-21.195 3.28-2.006 3.279-4.286 3.279 15.233 3.28 9.974 3.279 12.025 3.28 5.971 3.278-10.19 3.28.976 3.28-.441 3.278 16.24 3.28 3.526 3.28.472 3.278-7.05 3.28 7.972 3.28-.715 3.278-7.639 3.28-.716 3.28 10.475 3.278-.577 3.28 5.6 3.28-11.758 3.278 6.048 3.28 5.439 3.28.3 3.278-7.057 3.28-1.065 3.28-2.33 3.279-2.06 3.279-3.345 3.28 14.861 3.279-2.855 3.279-4.708 3.28 8.632 3.279-5.537 3.279.077 3.28 3.511 3.279-.419 3.279 1.31 3.28-13.11 3.279-2.233 3.279-9.07 3.28 20.63 3.279-16.277 3.279.808 3.28 8.137"/></g><path stroke-width=".8" stroke-linecap="square" stroke-miterlimit="10" fill="none" stroke="#000" d="M57.6 307.584V41.472M414.72 307.584V41.472M57.6 307.584h357.12M57.6 41.472h357.12"/><path d="M322.395 72.622h86.725c1.067 0 1.6-.533 1.6-1.6v-23.95c0-1.067-.533-1.6-1.6-1.6h-86.725c-1.067 0-1.6.533-1.6 1.6v23.95c0 1.067.533 1.6 1.6 1.6z" fill="#fff" fill-opacity=".8"/><path stroke-miterlimit="10" fill="none" stroke="#d5d6d5" stroke-opacity=".8" d="M322.395 72.622h86.725c1.067 0 1.6-.533 1.6-1.6v-23.95c0-1.067-.533-1.6-1.6-1.6h-86.725c-1.067 0-1.6.533-1.6 1.6v23.95c0 1.067.533 1.6 1.6 1.6z"/><path stroke-width="1.5" stroke-linecap="square" stroke-linejoin="round" fill="none" stroke="#1f77b4" d="M323.995 52.263h16"/><symbol id="y"><path transform="translate(-.098) scale(.001)" d="M98 0v756h215c114 0 210-34 286-100 76-67 114-156 114-268 0-118-38-212-114-282C523 35 425 0 306 0H98zm97 669V86h110c96 0 171 26 225 79 54 52 81 126 81 220s-28 165-83 213c-56 47-128 71-218 71H195z"/></symbol><symbol id="z"><path transform="matrix(.001 0 0 .001 -.049 .101)" d="M49 369c0 122 33 219 99 291s155 109 269 109c104 0 189-36 253-106 64-71 97-163 97-276 0-123-33-220-99-292-16-17-32-32-50-45l212-151H669L526 4c-38-10-78-16-122-16-108 0-194 35-258 105-65 70-97 162-97 276zm102 8c0-92 23-165 70-220 47-56 108-83 183-83 80 0 144 26 190 79s70 127 70 222c0 98-23 173-68 226-46 53-107 80-185 80s-140-28-188-84-72-130-72-220z"/></symbol><symbol id="A"><path transform="translate(-.098) scale(.001)" d="M715 0H600L219 588c-11 16-20 33-26 50h-3c2-18 4-53 4-106V0H98v756h122l370-578c18-28 28-45 32-52h2c-4 21-5 58-5 110v520h96V0z"/></symbol><symbol id="B"><path transform="translate(-.012) scale(.001)" d="M777 540 616 0h-99L409 379c-5 16-8 33-9 52h-2c-1-14-5-31-11-51L271 0h-97L12 540h100l108-400c3-12 5-29 7-50h4c1 18 4 35 9 51l116 399h89l113-401c3-12 6-28 8-50h4c0 14 3 31 9 50l106 401h92z"/></symbol><symbol id="C"><path transform="translate(-.074) scale(.001)" d="M74 730c0 17 5 31 17 43 11 12 25 18 43 18 17 0 31-6 43-18s18-26 18-43-6-31-18-42c-12-12-26-17-43-17-18 0-32 5-43 17-12 11-17 25-17 42zM85 0v540h96V0H85z"/></symbol><use xlink:href="#y" transform="matrix(8 0 0 -8 347.179 55.063)"/><use xlink:href="#z" transform="matrix(8 0 0 -8 352.883 55.87)"/><use xlink:href="#A" transform="matrix(8 0 0 -8 359.795 55.063)"/><use xlink:href="#r" transform="matrix(8 0 0 -8 365.515 55.063)"/><use xlink:href="#B" transform="matrix(8 0 0 -8 367.979 55.063)"/><use xlink:href="#C" transform="matrix(8 0 0 -8 374.795 55.063)"/><use xlink:href="#h" transform="matrix(8 0 0 -8 376.507 55.15)"/><use xlink:href="#m" transform="matrix(8 0 0 -8 379.995 55.063)"/><use xlink:href="#o" transform="matrix(8 0 0 -8 384.635 55.159)"/><use xlink:href="#p" transform="matrix(8 0 0 -8 389.931 55.159)"/><use xlink:href="#h" transform="matrix(8 0 0 -8 394.435 55.15)"/><use xlink:href="#r" transform="matrix(8 0 0 -8 397.243 55.063)"/><use xlink:href="#h" transform="matrix(8 0 0 -8 399.787 55.15)"/><use xlink:href="#m" transform="matrix(8 0 0 -8 403.275 55.063)"/><path stroke-width="1.5" stroke-linecap="square" stroke-linejoin="round" fill="none" stroke="#ff7f0e" d="M323.995 64.638h16"/><use xlink:href="#y" transform="matrix(8 0 0 -8 347.179 67.438)"/><use xlink:href="#z" transform="matrix(8 0 0 -8 352.883 68.246)"/><use xlink:href="#A" transform="matrix(8 0 0 -8 359.795 67.438)"/><use xlink:href="#r" transform="matrix(8 0 0 -8 365.515 67.438)"/><use xlink:href="#B" transform="matrix(8 0 0 -8 367.979 67.438)"/><use xlink:href="#C" transform="matrix(8 0 0 -8 374.795 67.438)"/><use xlink:href="#h" transform="matrix(8 0 0 -8 376.507 67.526)"/><use xlink:href="#m" transform="matrix(8 0 0 -8 379.995 67.438)"/><use xlink:href="#r" transform="matrix(8 0 0 -8 384.243 67.438)"/><use xlink:href="#h" transform="matrix(8 0 0 -8 386.787 67.526)"/><use xlink:href="#m" transform="matrix(8 0 0 -8 390.275 67.438)"/></svg>